%TF.GenerationSoftware,KiCad,Pcbnew,7.0.1*%
%TF.CreationDate,2023-07-03T20:41:50-04:00*%
%TF.ProjectId,business_card,62757369-6e65-4737-935f-636172642e6b,rev?*%
%TF.SameCoordinates,Original*%
%TF.FileFunction,Legend,Top*%
%TF.FilePolarity,Positive*%
%FSLAX46Y46*%
G04 Gerber Fmt 4.6, Leading zero omitted, Abs format (unit mm)*
G04 Created by KiCad (PCBNEW 7.0.1) date 2023-07-03 20:41:50*
%MOMM*%
%LPD*%
G01*
G04 APERTURE LIST*
%ADD10C,0.150000*%
%ADD11C,0.250000*%
%ADD12C,0.120000*%
G04 APERTURE END LIST*
D10*
X46000000Y-42000000D02*
X47000000Y-42000000D01*
X47000000Y-43000000D01*
X46000000Y-43000000D01*
X46000000Y-42000000D01*
X45000000Y-39000000D02*
X46000000Y-39000000D01*
X46000000Y-40000000D01*
X45000000Y-40000000D01*
X45000000Y-39000000D01*
X45000000Y-40000000D02*
X46000000Y-40000000D01*
X46000000Y-41000000D01*
X45000000Y-41000000D01*
X45000000Y-40000000D01*
X44000000Y-35000000D02*
X45000000Y-35000000D01*
X45000000Y-36000000D01*
X44000000Y-36000000D01*
X44000000Y-35000000D01*
D11*
X63142857Y-59956428D02*
X62285714Y-59956428D01*
X62714285Y-59956428D02*
X62714285Y-58456428D01*
X62714285Y-58456428D02*
X62571428Y-58670714D01*
X62571428Y-58670714D02*
X62428571Y-58813571D01*
X62428571Y-58813571D02*
X62285714Y-58885000D01*
X63785713Y-59813571D02*
X63857142Y-59885000D01*
X63857142Y-59885000D02*
X63785713Y-59956428D01*
X63785713Y-59956428D02*
X63714285Y-59885000D01*
X63714285Y-59885000D02*
X63785713Y-59813571D01*
X63785713Y-59813571D02*
X63785713Y-59956428D01*
X65642856Y-59956428D02*
X65642856Y-58456428D01*
X66357142Y-58956428D02*
X66357142Y-59956428D01*
X66357142Y-59099285D02*
X66428571Y-59027857D01*
X66428571Y-59027857D02*
X66571428Y-58956428D01*
X66571428Y-58956428D02*
X66785714Y-58956428D01*
X66785714Y-58956428D02*
X66928571Y-59027857D01*
X66928571Y-59027857D02*
X67000000Y-59170714D01*
X67000000Y-59170714D02*
X67000000Y-59956428D01*
X67642857Y-59885000D02*
X67785714Y-59956428D01*
X67785714Y-59956428D02*
X68071428Y-59956428D01*
X68071428Y-59956428D02*
X68214285Y-59885000D01*
X68214285Y-59885000D02*
X68285714Y-59742142D01*
X68285714Y-59742142D02*
X68285714Y-59670714D01*
X68285714Y-59670714D02*
X68214285Y-59527857D01*
X68214285Y-59527857D02*
X68071428Y-59456428D01*
X68071428Y-59456428D02*
X67857143Y-59456428D01*
X67857143Y-59456428D02*
X67714285Y-59385000D01*
X67714285Y-59385000D02*
X67642857Y-59242142D01*
X67642857Y-59242142D02*
X67642857Y-59170714D01*
X67642857Y-59170714D02*
X67714285Y-59027857D01*
X67714285Y-59027857D02*
X67857143Y-58956428D01*
X67857143Y-58956428D02*
X68071428Y-58956428D01*
X68071428Y-58956428D02*
X68214285Y-59027857D01*
X69500000Y-59885000D02*
X69357143Y-59956428D01*
X69357143Y-59956428D02*
X69071429Y-59956428D01*
X69071429Y-59956428D02*
X68928571Y-59885000D01*
X68928571Y-59885000D02*
X68857143Y-59742142D01*
X68857143Y-59742142D02*
X68857143Y-59170714D01*
X68857143Y-59170714D02*
X68928571Y-59027857D01*
X68928571Y-59027857D02*
X69071429Y-58956428D01*
X69071429Y-58956428D02*
X69357143Y-58956428D01*
X69357143Y-58956428D02*
X69500000Y-59027857D01*
X69500000Y-59027857D02*
X69571429Y-59170714D01*
X69571429Y-59170714D02*
X69571429Y-59313571D01*
X69571429Y-59313571D02*
X68857143Y-59456428D01*
X70214285Y-59956428D02*
X70214285Y-58956428D01*
X70214285Y-59242142D02*
X70285714Y-59099285D01*
X70285714Y-59099285D02*
X70357143Y-59027857D01*
X70357143Y-59027857D02*
X70500000Y-58956428D01*
X70500000Y-58956428D02*
X70642857Y-58956428D01*
X70928571Y-58956428D02*
X71499999Y-58956428D01*
X71142856Y-58456428D02*
X71142856Y-59742142D01*
X71142856Y-59742142D02*
X71214285Y-59885000D01*
X71214285Y-59885000D02*
X71357142Y-59956428D01*
X71357142Y-59956428D02*
X71499999Y-59956428D01*
X73142856Y-59956428D02*
X73142856Y-58956428D01*
X73142856Y-58456428D02*
X73071428Y-58527857D01*
X73071428Y-58527857D02*
X73142856Y-58599285D01*
X73142856Y-58599285D02*
X73214285Y-58527857D01*
X73214285Y-58527857D02*
X73142856Y-58456428D01*
X73142856Y-58456428D02*
X73142856Y-58599285D01*
X73857142Y-58956428D02*
X73857142Y-59956428D01*
X73857142Y-59099285D02*
X73928571Y-59027857D01*
X73928571Y-59027857D02*
X74071428Y-58956428D01*
X74071428Y-58956428D02*
X74285714Y-58956428D01*
X74285714Y-58956428D02*
X74428571Y-59027857D01*
X74428571Y-59027857D02*
X74500000Y-59170714D01*
X74500000Y-59170714D02*
X74500000Y-59956428D01*
X75000000Y-58956428D02*
X75571428Y-58956428D01*
X75214285Y-58456428D02*
X75214285Y-59742142D01*
X75214285Y-59742142D02*
X75285714Y-59885000D01*
X75285714Y-59885000D02*
X75428571Y-59956428D01*
X75428571Y-59956428D02*
X75571428Y-59956428D01*
X76285714Y-59956428D02*
X76142857Y-59885000D01*
X76142857Y-59885000D02*
X76071428Y-59813571D01*
X76071428Y-59813571D02*
X76000000Y-59670714D01*
X76000000Y-59670714D02*
X76000000Y-59242142D01*
X76000000Y-59242142D02*
X76071428Y-59099285D01*
X76071428Y-59099285D02*
X76142857Y-59027857D01*
X76142857Y-59027857D02*
X76285714Y-58956428D01*
X76285714Y-58956428D02*
X76500000Y-58956428D01*
X76500000Y-58956428D02*
X76642857Y-59027857D01*
X76642857Y-59027857D02*
X76714286Y-59099285D01*
X76714286Y-59099285D02*
X76785714Y-59242142D01*
X76785714Y-59242142D02*
X76785714Y-59670714D01*
X76785714Y-59670714D02*
X76714286Y-59813571D01*
X76714286Y-59813571D02*
X76642857Y-59885000D01*
X76642857Y-59885000D02*
X76500000Y-59956428D01*
X76500000Y-59956428D02*
X76285714Y-59956428D01*
X78571428Y-58456428D02*
X78571428Y-59670714D01*
X78571428Y-59670714D02*
X78642857Y-59813571D01*
X78642857Y-59813571D02*
X78714286Y-59885000D01*
X78714286Y-59885000D02*
X78857143Y-59956428D01*
X78857143Y-59956428D02*
X79142857Y-59956428D01*
X79142857Y-59956428D02*
X79285714Y-59885000D01*
X79285714Y-59885000D02*
X79357143Y-59813571D01*
X79357143Y-59813571D02*
X79428571Y-59670714D01*
X79428571Y-59670714D02*
X79428571Y-58456428D01*
X80071429Y-59885000D02*
X80285715Y-59956428D01*
X80285715Y-59956428D02*
X80642857Y-59956428D01*
X80642857Y-59956428D02*
X80785715Y-59885000D01*
X80785715Y-59885000D02*
X80857143Y-59813571D01*
X80857143Y-59813571D02*
X80928572Y-59670714D01*
X80928572Y-59670714D02*
X80928572Y-59527857D01*
X80928572Y-59527857D02*
X80857143Y-59385000D01*
X80857143Y-59385000D02*
X80785715Y-59313571D01*
X80785715Y-59313571D02*
X80642857Y-59242142D01*
X80642857Y-59242142D02*
X80357143Y-59170714D01*
X80357143Y-59170714D02*
X80214286Y-59099285D01*
X80214286Y-59099285D02*
X80142857Y-59027857D01*
X80142857Y-59027857D02*
X80071429Y-58885000D01*
X80071429Y-58885000D02*
X80071429Y-58742142D01*
X80071429Y-58742142D02*
X80142857Y-58599285D01*
X80142857Y-58599285D02*
X80214286Y-58527857D01*
X80214286Y-58527857D02*
X80357143Y-58456428D01*
X80357143Y-58456428D02*
X80714286Y-58456428D01*
X80714286Y-58456428D02*
X80928572Y-58527857D01*
X82071428Y-59170714D02*
X82285714Y-59242142D01*
X82285714Y-59242142D02*
X82357143Y-59313571D01*
X82357143Y-59313571D02*
X82428571Y-59456428D01*
X82428571Y-59456428D02*
X82428571Y-59670714D01*
X82428571Y-59670714D02*
X82357143Y-59813571D01*
X82357143Y-59813571D02*
X82285714Y-59885000D01*
X82285714Y-59885000D02*
X82142857Y-59956428D01*
X82142857Y-59956428D02*
X81571428Y-59956428D01*
X81571428Y-59956428D02*
X81571428Y-58456428D01*
X81571428Y-58456428D02*
X82071428Y-58456428D01*
X82071428Y-58456428D02*
X82214286Y-58527857D01*
X82214286Y-58527857D02*
X82285714Y-58599285D01*
X82285714Y-58599285D02*
X82357143Y-58742142D01*
X82357143Y-58742142D02*
X82357143Y-58885000D01*
X82357143Y-58885000D02*
X82285714Y-59027857D01*
X82285714Y-59027857D02*
X82214286Y-59099285D01*
X82214286Y-59099285D02*
X82071428Y-59170714D01*
X82071428Y-59170714D02*
X81571428Y-59170714D01*
X62285714Y-61029285D02*
X62357142Y-60957857D01*
X62357142Y-60957857D02*
X62500000Y-60886428D01*
X62500000Y-60886428D02*
X62857142Y-60886428D01*
X62857142Y-60886428D02*
X63000000Y-60957857D01*
X63000000Y-60957857D02*
X63071428Y-61029285D01*
X63071428Y-61029285D02*
X63142857Y-61172142D01*
X63142857Y-61172142D02*
X63142857Y-61315000D01*
X63142857Y-61315000D02*
X63071428Y-61529285D01*
X63071428Y-61529285D02*
X62214285Y-62386428D01*
X62214285Y-62386428D02*
X63142857Y-62386428D01*
X63785713Y-62243571D02*
X63857142Y-62315000D01*
X63857142Y-62315000D02*
X63785713Y-62386428D01*
X63785713Y-62386428D02*
X63714285Y-62315000D01*
X63714285Y-62315000D02*
X63785713Y-62243571D01*
X63785713Y-62243571D02*
X63785713Y-62386428D01*
X65928571Y-60886428D02*
X66214285Y-60886428D01*
X66214285Y-60886428D02*
X66357142Y-60957857D01*
X66357142Y-60957857D02*
X66499999Y-61100714D01*
X66499999Y-61100714D02*
X66571428Y-61386428D01*
X66571428Y-61386428D02*
X66571428Y-61886428D01*
X66571428Y-61886428D02*
X66499999Y-62172142D01*
X66499999Y-62172142D02*
X66357142Y-62315000D01*
X66357142Y-62315000D02*
X66214285Y-62386428D01*
X66214285Y-62386428D02*
X65928571Y-62386428D01*
X65928571Y-62386428D02*
X65785714Y-62315000D01*
X65785714Y-62315000D02*
X65642856Y-62172142D01*
X65642856Y-62172142D02*
X65571428Y-61886428D01*
X65571428Y-61886428D02*
X65571428Y-61386428D01*
X65571428Y-61386428D02*
X65642856Y-61100714D01*
X65642856Y-61100714D02*
X65785714Y-60957857D01*
X65785714Y-60957857D02*
X65928571Y-60886428D01*
X67214285Y-61386428D02*
X67214285Y-62886428D01*
X67214285Y-61457857D02*
X67357143Y-61386428D01*
X67357143Y-61386428D02*
X67642857Y-61386428D01*
X67642857Y-61386428D02*
X67785714Y-61457857D01*
X67785714Y-61457857D02*
X67857143Y-61529285D01*
X67857143Y-61529285D02*
X67928571Y-61672142D01*
X67928571Y-61672142D02*
X67928571Y-62100714D01*
X67928571Y-62100714D02*
X67857143Y-62243571D01*
X67857143Y-62243571D02*
X67785714Y-62315000D01*
X67785714Y-62315000D02*
X67642857Y-62386428D01*
X67642857Y-62386428D02*
X67357143Y-62386428D01*
X67357143Y-62386428D02*
X67214285Y-62315000D01*
X69142857Y-62315000D02*
X69000000Y-62386428D01*
X69000000Y-62386428D02*
X68714286Y-62386428D01*
X68714286Y-62386428D02*
X68571428Y-62315000D01*
X68571428Y-62315000D02*
X68500000Y-62172142D01*
X68500000Y-62172142D02*
X68500000Y-61600714D01*
X68500000Y-61600714D02*
X68571428Y-61457857D01*
X68571428Y-61457857D02*
X68714286Y-61386428D01*
X68714286Y-61386428D02*
X69000000Y-61386428D01*
X69000000Y-61386428D02*
X69142857Y-61457857D01*
X69142857Y-61457857D02*
X69214286Y-61600714D01*
X69214286Y-61600714D02*
X69214286Y-61743571D01*
X69214286Y-61743571D02*
X68500000Y-61886428D01*
X69857142Y-61386428D02*
X69857142Y-62386428D01*
X69857142Y-61529285D02*
X69928571Y-61457857D01*
X69928571Y-61457857D02*
X70071428Y-61386428D01*
X70071428Y-61386428D02*
X70285714Y-61386428D01*
X70285714Y-61386428D02*
X70428571Y-61457857D01*
X70428571Y-61457857D02*
X70500000Y-61600714D01*
X70500000Y-61600714D02*
X70500000Y-62386428D01*
X72214285Y-61386428D02*
X72571428Y-62386428D01*
X72571428Y-62386428D02*
X72928571Y-61386428D01*
X73499999Y-62386428D02*
X73499999Y-61386428D01*
X73499999Y-60886428D02*
X73428571Y-60957857D01*
X73428571Y-60957857D02*
X73499999Y-61029285D01*
X73499999Y-61029285D02*
X73571428Y-60957857D01*
X73571428Y-60957857D02*
X73499999Y-60886428D01*
X73499999Y-60886428D02*
X73499999Y-61029285D01*
X74214285Y-62386428D02*
X74214285Y-61386428D01*
X74214285Y-61672142D02*
X74285714Y-61529285D01*
X74285714Y-61529285D02*
X74357143Y-61457857D01*
X74357143Y-61457857D02*
X74500000Y-61386428D01*
X74500000Y-61386428D02*
X74642857Y-61386428D01*
X74928571Y-61386428D02*
X75499999Y-61386428D01*
X75142856Y-60886428D02*
X75142856Y-62172142D01*
X75142856Y-62172142D02*
X75214285Y-62315000D01*
X75214285Y-62315000D02*
X75357142Y-62386428D01*
X75357142Y-62386428D02*
X75499999Y-62386428D01*
X76642857Y-61386428D02*
X76642857Y-62386428D01*
X75999999Y-61386428D02*
X75999999Y-62172142D01*
X75999999Y-62172142D02*
X76071428Y-62315000D01*
X76071428Y-62315000D02*
X76214285Y-62386428D01*
X76214285Y-62386428D02*
X76428571Y-62386428D01*
X76428571Y-62386428D02*
X76571428Y-62315000D01*
X76571428Y-62315000D02*
X76642857Y-62243571D01*
X78000000Y-62386428D02*
X78000000Y-61600714D01*
X78000000Y-61600714D02*
X77928571Y-61457857D01*
X77928571Y-61457857D02*
X77785714Y-61386428D01*
X77785714Y-61386428D02*
X77500000Y-61386428D01*
X77500000Y-61386428D02*
X77357142Y-61457857D01*
X78000000Y-62315000D02*
X77857142Y-62386428D01*
X77857142Y-62386428D02*
X77500000Y-62386428D01*
X77500000Y-62386428D02*
X77357142Y-62315000D01*
X77357142Y-62315000D02*
X77285714Y-62172142D01*
X77285714Y-62172142D02*
X77285714Y-62029285D01*
X77285714Y-62029285D02*
X77357142Y-61886428D01*
X77357142Y-61886428D02*
X77500000Y-61815000D01*
X77500000Y-61815000D02*
X77857142Y-61815000D01*
X77857142Y-61815000D02*
X78000000Y-61743571D01*
X78928571Y-62386428D02*
X78785714Y-62315000D01*
X78785714Y-62315000D02*
X78714285Y-62172142D01*
X78714285Y-62172142D02*
X78714285Y-60886428D01*
X81499999Y-62243571D02*
X81428571Y-62315000D01*
X81428571Y-62315000D02*
X81214285Y-62386428D01*
X81214285Y-62386428D02*
X81071428Y-62386428D01*
X81071428Y-62386428D02*
X80857142Y-62315000D01*
X80857142Y-62315000D02*
X80714285Y-62172142D01*
X80714285Y-62172142D02*
X80642856Y-62029285D01*
X80642856Y-62029285D02*
X80571428Y-61743571D01*
X80571428Y-61743571D02*
X80571428Y-61529285D01*
X80571428Y-61529285D02*
X80642856Y-61243571D01*
X80642856Y-61243571D02*
X80714285Y-61100714D01*
X80714285Y-61100714D02*
X80857142Y-60957857D01*
X80857142Y-60957857D02*
X81071428Y-60886428D01*
X81071428Y-60886428D02*
X81214285Y-60886428D01*
X81214285Y-60886428D02*
X81428571Y-60957857D01*
X81428571Y-60957857D02*
X81499999Y-61029285D01*
X82428571Y-60886428D02*
X82714285Y-60886428D01*
X82714285Y-60886428D02*
X82857142Y-60957857D01*
X82857142Y-60957857D02*
X82999999Y-61100714D01*
X82999999Y-61100714D02*
X83071428Y-61386428D01*
X83071428Y-61386428D02*
X83071428Y-61886428D01*
X83071428Y-61886428D02*
X82999999Y-62172142D01*
X82999999Y-62172142D02*
X82857142Y-62315000D01*
X82857142Y-62315000D02*
X82714285Y-62386428D01*
X82714285Y-62386428D02*
X82428571Y-62386428D01*
X82428571Y-62386428D02*
X82285714Y-62315000D01*
X82285714Y-62315000D02*
X82142856Y-62172142D01*
X82142856Y-62172142D02*
X82071428Y-61886428D01*
X82071428Y-61886428D02*
X82071428Y-61386428D01*
X82071428Y-61386428D02*
X82142856Y-61100714D01*
X82142856Y-61100714D02*
X82285714Y-60957857D01*
X82285714Y-60957857D02*
X82428571Y-60886428D01*
X83714285Y-62386428D02*
X83714285Y-60886428D01*
X83714285Y-60886428D02*
X84214285Y-61957857D01*
X84214285Y-61957857D02*
X84714285Y-60886428D01*
X84714285Y-60886428D02*
X84714285Y-62386428D01*
X86571428Y-61386428D02*
X86571428Y-62886428D01*
X86571428Y-61457857D02*
X86714286Y-61386428D01*
X86714286Y-61386428D02*
X87000000Y-61386428D01*
X87000000Y-61386428D02*
X87142857Y-61457857D01*
X87142857Y-61457857D02*
X87214286Y-61529285D01*
X87214286Y-61529285D02*
X87285714Y-61672142D01*
X87285714Y-61672142D02*
X87285714Y-62100714D01*
X87285714Y-62100714D02*
X87214286Y-62243571D01*
X87214286Y-62243571D02*
X87142857Y-62315000D01*
X87142857Y-62315000D02*
X87000000Y-62386428D01*
X87000000Y-62386428D02*
X86714286Y-62386428D01*
X86714286Y-62386428D02*
X86571428Y-62315000D01*
X88142857Y-62386428D02*
X88000000Y-62315000D01*
X88000000Y-62315000D02*
X87928571Y-62243571D01*
X87928571Y-62243571D02*
X87857143Y-62100714D01*
X87857143Y-62100714D02*
X87857143Y-61672142D01*
X87857143Y-61672142D02*
X87928571Y-61529285D01*
X87928571Y-61529285D02*
X88000000Y-61457857D01*
X88000000Y-61457857D02*
X88142857Y-61386428D01*
X88142857Y-61386428D02*
X88357143Y-61386428D01*
X88357143Y-61386428D02*
X88500000Y-61457857D01*
X88500000Y-61457857D02*
X88571429Y-61529285D01*
X88571429Y-61529285D02*
X88642857Y-61672142D01*
X88642857Y-61672142D02*
X88642857Y-62100714D01*
X88642857Y-62100714D02*
X88571429Y-62243571D01*
X88571429Y-62243571D02*
X88500000Y-62315000D01*
X88500000Y-62315000D02*
X88357143Y-62386428D01*
X88357143Y-62386428D02*
X88142857Y-62386428D01*
X89285714Y-62386428D02*
X89285714Y-61386428D01*
X89285714Y-61672142D02*
X89357143Y-61529285D01*
X89357143Y-61529285D02*
X89428572Y-61457857D01*
X89428572Y-61457857D02*
X89571429Y-61386428D01*
X89571429Y-61386428D02*
X89714286Y-61386428D01*
X90000000Y-61386428D02*
X90571428Y-61386428D01*
X90214285Y-60886428D02*
X90214285Y-62172142D01*
X90214285Y-62172142D02*
X90285714Y-62315000D01*
X90285714Y-62315000D02*
X90428571Y-62386428D01*
X90428571Y-62386428D02*
X90571428Y-62386428D01*
X62214285Y-63316428D02*
X63142857Y-63316428D01*
X63142857Y-63316428D02*
X62642857Y-63887857D01*
X62642857Y-63887857D02*
X62857142Y-63887857D01*
X62857142Y-63887857D02*
X63000000Y-63959285D01*
X63000000Y-63959285D02*
X63071428Y-64030714D01*
X63071428Y-64030714D02*
X63142857Y-64173571D01*
X63142857Y-64173571D02*
X63142857Y-64530714D01*
X63142857Y-64530714D02*
X63071428Y-64673571D01*
X63071428Y-64673571D02*
X63000000Y-64745000D01*
X63000000Y-64745000D02*
X62857142Y-64816428D01*
X62857142Y-64816428D02*
X62428571Y-64816428D01*
X62428571Y-64816428D02*
X62285714Y-64745000D01*
X62285714Y-64745000D02*
X62214285Y-64673571D01*
X63785713Y-64673571D02*
X63857142Y-64745000D01*
X63857142Y-64745000D02*
X63785713Y-64816428D01*
X63785713Y-64816428D02*
X63714285Y-64745000D01*
X63714285Y-64745000D02*
X63785713Y-64673571D01*
X63785713Y-64673571D02*
X63785713Y-64816428D01*
X65285714Y-64959285D02*
X66428571Y-64959285D01*
X67857142Y-63245000D02*
X66571428Y-65173571D01*
X68785714Y-65387857D02*
X68714285Y-65316428D01*
X68714285Y-65316428D02*
X68571428Y-65102142D01*
X68571428Y-65102142D02*
X68500000Y-64959285D01*
X68500000Y-64959285D02*
X68428571Y-64745000D01*
X68428571Y-64745000D02*
X68357142Y-64387857D01*
X68357142Y-64387857D02*
X68357142Y-64102142D01*
X68357142Y-64102142D02*
X68428571Y-63745000D01*
X68428571Y-63745000D02*
X68500000Y-63530714D01*
X68500000Y-63530714D02*
X68571428Y-63387857D01*
X68571428Y-63387857D02*
X68714285Y-63173571D01*
X68714285Y-63173571D02*
X68785714Y-63102142D01*
X69428571Y-63316428D02*
X69285714Y-63602142D01*
X69714286Y-64959285D02*
X70857143Y-64959285D01*
X71285714Y-63316428D02*
X71142857Y-63602142D01*
X71785714Y-65387857D02*
X71857143Y-65316428D01*
X71857143Y-65316428D02*
X72000000Y-65102142D01*
X72000000Y-65102142D02*
X72071429Y-64959285D01*
X72071429Y-64959285D02*
X72142857Y-64745000D01*
X72142857Y-64745000D02*
X72214286Y-64387857D01*
X72214286Y-64387857D02*
X72214286Y-64102142D01*
X72214286Y-64102142D02*
X72142857Y-63745000D01*
X72142857Y-63745000D02*
X72071429Y-63530714D01*
X72071429Y-63530714D02*
X72000000Y-63387857D01*
X72000000Y-63387857D02*
X71857143Y-63173571D01*
X71857143Y-63173571D02*
X71785714Y-63102142D01*
X72428571Y-63173571D02*
X73714286Y-65102142D01*
X73571429Y-64959285D02*
X74714286Y-64959285D01*
D10*
X67809523Y-35377619D02*
X67476190Y-34901428D01*
X67238095Y-35377619D02*
X67238095Y-34377619D01*
X67238095Y-34377619D02*
X67619047Y-34377619D01*
X67619047Y-34377619D02*
X67714285Y-34425238D01*
X67714285Y-34425238D02*
X67761904Y-34472857D01*
X67761904Y-34472857D02*
X67809523Y-34568095D01*
X67809523Y-34568095D02*
X67809523Y-34710952D01*
X67809523Y-34710952D02*
X67761904Y-34806190D01*
X67761904Y-34806190D02*
X67714285Y-34853809D01*
X67714285Y-34853809D02*
X67619047Y-34901428D01*
X67619047Y-34901428D02*
X67238095Y-34901428D01*
X68619047Y-35330000D02*
X68523809Y-35377619D01*
X68523809Y-35377619D02*
X68333333Y-35377619D01*
X68333333Y-35377619D02*
X68238095Y-35330000D01*
X68238095Y-35330000D02*
X68190476Y-35234761D01*
X68190476Y-35234761D02*
X68190476Y-34853809D01*
X68190476Y-34853809D02*
X68238095Y-34758571D01*
X68238095Y-34758571D02*
X68333333Y-34710952D01*
X68333333Y-34710952D02*
X68523809Y-34710952D01*
X68523809Y-34710952D02*
X68619047Y-34758571D01*
X68619047Y-34758571D02*
X68666666Y-34853809D01*
X68666666Y-34853809D02*
X68666666Y-34949047D01*
X68666666Y-34949047D02*
X68190476Y-35044285D01*
X69047619Y-35330000D02*
X69142857Y-35377619D01*
X69142857Y-35377619D02*
X69333333Y-35377619D01*
X69333333Y-35377619D02*
X69428571Y-35330000D01*
X69428571Y-35330000D02*
X69476190Y-35234761D01*
X69476190Y-35234761D02*
X69476190Y-35187142D01*
X69476190Y-35187142D02*
X69428571Y-35091904D01*
X69428571Y-35091904D02*
X69333333Y-35044285D01*
X69333333Y-35044285D02*
X69190476Y-35044285D01*
X69190476Y-35044285D02*
X69095238Y-34996666D01*
X69095238Y-34996666D02*
X69047619Y-34901428D01*
X69047619Y-34901428D02*
X69047619Y-34853809D01*
X69047619Y-34853809D02*
X69095238Y-34758571D01*
X69095238Y-34758571D02*
X69190476Y-34710952D01*
X69190476Y-34710952D02*
X69333333Y-34710952D01*
X69333333Y-34710952D02*
X69428571Y-34758571D01*
X70333333Y-34710952D02*
X70333333Y-35377619D01*
X69904762Y-34710952D02*
X69904762Y-35234761D01*
X69904762Y-35234761D02*
X69952381Y-35330000D01*
X69952381Y-35330000D02*
X70047619Y-35377619D01*
X70047619Y-35377619D02*
X70190476Y-35377619D01*
X70190476Y-35377619D02*
X70285714Y-35330000D01*
X70285714Y-35330000D02*
X70333333Y-35282380D01*
X70809524Y-35377619D02*
X70809524Y-34710952D01*
X70809524Y-34806190D02*
X70857143Y-34758571D01*
X70857143Y-34758571D02*
X70952381Y-34710952D01*
X70952381Y-34710952D02*
X71095238Y-34710952D01*
X71095238Y-34710952D02*
X71190476Y-34758571D01*
X71190476Y-34758571D02*
X71238095Y-34853809D01*
X71238095Y-34853809D02*
X71238095Y-35377619D01*
X71238095Y-34853809D02*
X71285714Y-34758571D01*
X71285714Y-34758571D02*
X71380952Y-34710952D01*
X71380952Y-34710952D02*
X71523809Y-34710952D01*
X71523809Y-34710952D02*
X71619048Y-34758571D01*
X71619048Y-34758571D02*
X71666667Y-34853809D01*
X71666667Y-34853809D02*
X71666667Y-35377619D01*
X72523809Y-35330000D02*
X72428571Y-35377619D01*
X72428571Y-35377619D02*
X72238095Y-35377619D01*
X72238095Y-35377619D02*
X72142857Y-35330000D01*
X72142857Y-35330000D02*
X72095238Y-35234761D01*
X72095238Y-35234761D02*
X72095238Y-34853809D01*
X72095238Y-34853809D02*
X72142857Y-34758571D01*
X72142857Y-34758571D02*
X72238095Y-34710952D01*
X72238095Y-34710952D02*
X72428571Y-34710952D01*
X72428571Y-34710952D02*
X72523809Y-34758571D01*
X72523809Y-34758571D02*
X72571428Y-34853809D01*
X72571428Y-34853809D02*
X72571428Y-34949047D01*
X72571428Y-34949047D02*
X72095238Y-35044285D01*
X70000000Y-40500000D02*
X72000000Y-40500000D01*
X67000000Y-41500000D02*
X73000000Y-41500000D01*
X68000000Y-39500000D02*
X70000000Y-39500000D01*
X67000000Y-38500000D02*
X71000000Y-38500000D01*
X67000000Y-37500000D02*
X70000000Y-37500000D01*
X67000000Y-36500000D02*
X72000000Y-36500000D01*
X73000000Y-34500000D02*
X74000000Y-34500000D01*
X73000000Y-33500000D02*
X73000000Y-34500000D01*
X73000000Y-33500000D02*
X66000000Y-33500000D01*
X74000000Y-34500000D02*
X73000000Y-33500000D01*
X74000000Y-43500000D02*
X74000000Y-34500000D01*
X66000000Y-43500000D02*
X74000000Y-43500000D01*
X66000000Y-33500000D02*
X66000000Y-43500000D01*
X61000000Y-39000000D02*
X62000000Y-39000000D01*
X62000000Y-40000000D01*
X61000000Y-40000000D01*
X61000000Y-39000000D01*
G36*
X61000000Y-39000000D02*
G01*
X62000000Y-39000000D01*
X62000000Y-40000000D01*
X61000000Y-40000000D01*
X61000000Y-39000000D01*
G37*
X61000000Y-41000000D02*
X62000000Y-41000000D01*
X62000000Y-42000000D01*
X61000000Y-42000000D01*
X61000000Y-41000000D01*
G36*
X61000000Y-41000000D02*
G01*
X62000000Y-41000000D01*
X62000000Y-42000000D01*
X61000000Y-42000000D01*
X61000000Y-41000000D01*
G37*
X60000000Y-42000000D02*
X61000000Y-42000000D01*
X61000000Y-43000000D01*
X60000000Y-43000000D01*
X60000000Y-42000000D01*
G36*
X60000000Y-42000000D02*
G01*
X61000000Y-42000000D01*
X61000000Y-43000000D01*
X60000000Y-43000000D01*
X60000000Y-42000000D01*
G37*
X59000000Y-41000000D02*
X60000000Y-41000000D01*
X60000000Y-42000000D01*
X59000000Y-42000000D01*
X59000000Y-41000000D01*
G36*
X59000000Y-41000000D02*
G01*
X60000000Y-41000000D01*
X60000000Y-42000000D01*
X59000000Y-42000000D01*
X59000000Y-41000000D01*
G37*
X58000000Y-42000000D02*
X59000000Y-42000000D01*
X59000000Y-43000000D01*
X58000000Y-43000000D01*
X58000000Y-42000000D01*
G36*
X58000000Y-42000000D02*
G01*
X59000000Y-42000000D01*
X59000000Y-43000000D01*
X58000000Y-43000000D01*
X58000000Y-42000000D01*
G37*
X57000000Y-41000000D02*
X58000000Y-41000000D01*
X58000000Y-42000000D01*
X57000000Y-42000000D01*
X57000000Y-41000000D01*
G36*
X57000000Y-41000000D02*
G01*
X58000000Y-41000000D01*
X58000000Y-42000000D01*
X57000000Y-42000000D01*
X57000000Y-41000000D01*
G37*
X56000000Y-42000000D02*
X57000000Y-42000000D01*
X57000000Y-43000000D01*
X56000000Y-43000000D01*
X56000000Y-42000000D01*
G36*
X56000000Y-42000000D02*
G01*
X57000000Y-42000000D01*
X57000000Y-43000000D01*
X56000000Y-43000000D01*
X56000000Y-42000000D01*
G37*
X54000000Y-42000000D02*
X55000000Y-42000000D01*
X55000000Y-43000000D01*
X54000000Y-43000000D01*
X54000000Y-42000000D01*
G36*
X54000000Y-42000000D02*
G01*
X55000000Y-42000000D01*
X55000000Y-43000000D01*
X54000000Y-43000000D01*
X54000000Y-42000000D01*
G37*
X54000000Y-40000000D02*
X55000000Y-40000000D01*
X55000000Y-41000000D01*
X54000000Y-41000000D01*
X54000000Y-40000000D01*
G36*
X54000000Y-40000000D02*
G01*
X55000000Y-40000000D01*
X55000000Y-41000000D01*
X54000000Y-41000000D01*
X54000000Y-40000000D01*
G37*
X55000000Y-41000000D02*
X56000000Y-41000000D01*
X56000000Y-42000000D01*
X55000000Y-42000000D01*
X55000000Y-41000000D01*
G36*
X55000000Y-41000000D02*
G01*
X56000000Y-41000000D01*
X56000000Y-42000000D01*
X55000000Y-42000000D01*
X55000000Y-41000000D01*
G37*
X56000000Y-40000000D02*
X57000000Y-40000000D01*
X57000000Y-41000000D01*
X56000000Y-41000000D01*
X56000000Y-40000000D01*
G36*
X56000000Y-40000000D02*
G01*
X57000000Y-40000000D01*
X57000000Y-41000000D01*
X56000000Y-41000000D01*
X56000000Y-40000000D01*
G37*
X57000000Y-39000000D02*
X58000000Y-39000000D01*
X58000000Y-40000000D01*
X57000000Y-40000000D01*
X57000000Y-39000000D01*
G36*
X57000000Y-39000000D02*
G01*
X58000000Y-39000000D01*
X58000000Y-40000000D01*
X57000000Y-40000000D01*
X57000000Y-39000000D01*
G37*
X58000000Y-40000000D02*
X59000000Y-40000000D01*
X59000000Y-41000000D01*
X58000000Y-41000000D01*
X58000000Y-40000000D01*
G36*
X58000000Y-40000000D02*
G01*
X59000000Y-40000000D01*
X59000000Y-41000000D01*
X58000000Y-41000000D01*
X58000000Y-40000000D01*
G37*
X59000000Y-39000000D02*
X60000000Y-39000000D01*
X60000000Y-40000000D01*
X59000000Y-40000000D01*
X59000000Y-39000000D01*
G36*
X59000000Y-39000000D02*
G01*
X60000000Y-39000000D01*
X60000000Y-40000000D01*
X59000000Y-40000000D01*
X59000000Y-39000000D01*
G37*
X60000000Y-40000000D02*
X61000000Y-40000000D01*
X61000000Y-41000000D01*
X60000000Y-41000000D01*
X60000000Y-40000000D01*
G36*
X60000000Y-40000000D02*
G01*
X61000000Y-40000000D01*
X61000000Y-41000000D01*
X60000000Y-41000000D01*
X60000000Y-40000000D01*
G37*
X60000000Y-38000000D02*
X61000000Y-38000000D01*
X61000000Y-39000000D01*
X60000000Y-39000000D01*
X60000000Y-38000000D01*
G36*
X60000000Y-38000000D02*
G01*
X61000000Y-38000000D01*
X61000000Y-39000000D01*
X60000000Y-39000000D01*
X60000000Y-38000000D01*
G37*
X58000000Y-38000000D02*
X59000000Y-38000000D01*
X59000000Y-39000000D01*
X58000000Y-39000000D01*
X58000000Y-38000000D01*
G36*
X58000000Y-38000000D02*
G01*
X59000000Y-38000000D01*
X59000000Y-39000000D01*
X58000000Y-39000000D01*
X58000000Y-38000000D01*
G37*
X56000000Y-38000000D02*
X57000000Y-38000000D01*
X57000000Y-39000000D01*
X56000000Y-39000000D01*
X56000000Y-38000000D01*
G36*
X56000000Y-38000000D02*
G01*
X57000000Y-38000000D01*
X57000000Y-39000000D01*
X56000000Y-39000000D01*
X56000000Y-38000000D01*
G37*
X54000000Y-38000000D02*
X55000000Y-38000000D01*
X55000000Y-39000000D01*
X54000000Y-39000000D01*
X54000000Y-38000000D01*
G36*
X54000000Y-38000000D02*
G01*
X55000000Y-38000000D01*
X55000000Y-39000000D01*
X54000000Y-39000000D01*
X54000000Y-38000000D01*
G37*
X55000000Y-39000000D02*
X56000000Y-39000000D01*
X56000000Y-40000000D01*
X55000000Y-40000000D01*
X55000000Y-39000000D01*
G36*
X55000000Y-39000000D02*
G01*
X56000000Y-39000000D01*
X56000000Y-40000000D01*
X55000000Y-40000000D01*
X55000000Y-39000000D01*
G37*
X55000000Y-37000000D02*
X56000000Y-37000000D01*
X56000000Y-38000000D01*
X55000000Y-38000000D01*
X55000000Y-37000000D01*
G36*
X55000000Y-37000000D02*
G01*
X56000000Y-37000000D01*
X56000000Y-38000000D01*
X55000000Y-38000000D01*
X55000000Y-37000000D01*
G37*
X57000000Y-37000000D02*
X58000000Y-37000000D01*
X58000000Y-38000000D01*
X57000000Y-38000000D01*
X57000000Y-37000000D01*
G36*
X57000000Y-37000000D02*
G01*
X58000000Y-37000000D01*
X58000000Y-38000000D01*
X57000000Y-38000000D01*
X57000000Y-37000000D01*
G37*
X59000000Y-37000000D02*
X60000000Y-37000000D01*
X60000000Y-38000000D01*
X59000000Y-38000000D01*
X59000000Y-37000000D01*
G36*
X59000000Y-37000000D02*
G01*
X60000000Y-37000000D01*
X60000000Y-38000000D01*
X59000000Y-38000000D01*
X59000000Y-37000000D01*
G37*
X61000000Y-37000000D02*
X62000000Y-37000000D01*
X62000000Y-38000000D01*
X61000000Y-38000000D01*
X61000000Y-37000000D01*
G36*
X61000000Y-37000000D02*
G01*
X62000000Y-37000000D01*
X62000000Y-38000000D01*
X61000000Y-38000000D01*
X61000000Y-37000000D01*
G37*
X60000000Y-36000000D02*
X61000000Y-36000000D01*
X61000000Y-37000000D01*
X60000000Y-37000000D01*
X60000000Y-36000000D01*
G36*
X60000000Y-36000000D02*
G01*
X61000000Y-36000000D01*
X61000000Y-37000000D01*
X60000000Y-37000000D01*
X60000000Y-36000000D01*
G37*
X61000000Y-35000000D02*
X62000000Y-35000000D01*
X62000000Y-36000000D01*
X61000000Y-36000000D01*
X61000000Y-35000000D01*
G36*
X61000000Y-35000000D02*
G01*
X62000000Y-35000000D01*
X62000000Y-36000000D01*
X61000000Y-36000000D01*
X61000000Y-35000000D01*
G37*
X59000000Y-35000000D02*
X60000000Y-35000000D01*
X60000000Y-36000000D01*
X59000000Y-36000000D01*
X59000000Y-35000000D01*
G36*
X59000000Y-35000000D02*
G01*
X60000000Y-35000000D01*
X60000000Y-36000000D01*
X59000000Y-36000000D01*
X59000000Y-35000000D01*
G37*
X58000000Y-36000000D02*
X59000000Y-36000000D01*
X59000000Y-37000000D01*
X58000000Y-37000000D01*
X58000000Y-36000000D01*
G36*
X58000000Y-36000000D02*
G01*
X59000000Y-36000000D01*
X59000000Y-37000000D01*
X58000000Y-37000000D01*
X58000000Y-36000000D01*
G37*
X57000000Y-35000000D02*
X58000000Y-35000000D01*
X58000000Y-36000000D01*
X57000000Y-36000000D01*
X57000000Y-35000000D01*
G36*
X57000000Y-35000000D02*
G01*
X58000000Y-35000000D01*
X58000000Y-36000000D01*
X57000000Y-36000000D01*
X57000000Y-35000000D01*
G37*
X56000000Y-36000000D02*
X57000000Y-36000000D01*
X57000000Y-37000000D01*
X56000000Y-37000000D01*
X56000000Y-36000000D01*
G36*
X56000000Y-36000000D02*
G01*
X57000000Y-36000000D01*
X57000000Y-37000000D01*
X56000000Y-37000000D01*
X56000000Y-36000000D01*
G37*
X54000000Y-36000000D02*
X55000000Y-36000000D01*
X55000000Y-37000000D01*
X54000000Y-37000000D01*
X54000000Y-36000000D01*
G36*
X54000000Y-36000000D02*
G01*
X55000000Y-36000000D01*
X55000000Y-37000000D01*
X54000000Y-37000000D01*
X54000000Y-36000000D01*
G37*
X55000000Y-35000000D02*
X56000000Y-35000000D01*
X56000000Y-36000000D01*
X55000000Y-36000000D01*
X55000000Y-35000000D01*
G36*
X55000000Y-35000000D02*
G01*
X56000000Y-35000000D01*
X56000000Y-36000000D01*
X55000000Y-36000000D01*
X55000000Y-35000000D01*
G37*
X55000000Y-42000000D02*
X55000000Y-43000000D01*
X55000000Y-36000000D02*
X54000000Y-36000000D01*
X61000000Y-42000000D02*
X61000000Y-43000000D01*
X60000000Y-41000000D02*
X60000000Y-43000000D01*
X54000000Y-42000000D02*
X62000000Y-42000000D01*
X54000000Y-41000000D02*
X54000000Y-42000000D01*
X62000000Y-41000000D02*
X54000000Y-41000000D01*
X62000000Y-40000000D02*
X62000000Y-41000000D01*
X54000000Y-40000000D02*
X62000000Y-40000000D01*
X55000000Y-35000000D02*
X55000000Y-36000000D01*
X62000000Y-38000000D02*
X54000000Y-38000000D01*
X62000000Y-36000000D02*
X61000000Y-36000000D01*
X61000000Y-35000000D02*
X61000000Y-36000000D01*
X60000000Y-35000000D02*
X60000000Y-37000000D01*
X54000000Y-37000000D02*
X62000000Y-37000000D01*
X56000000Y-35000000D02*
X56000000Y-43000000D01*
X57000000Y-35000000D02*
X57000000Y-43000000D01*
X59000000Y-35000000D02*
X59000000Y-43000000D01*
X58000000Y-35000000D02*
X58000000Y-43000000D01*
X54000000Y-39000000D02*
X62000000Y-39000000D01*
X57000000Y-38000000D02*
X59000000Y-38000000D01*
X59000000Y-40000000D01*
X57000000Y-40000000D01*
X57000000Y-38000000D01*
X56000000Y-37000000D02*
X60000000Y-37000000D01*
X60000000Y-41000000D01*
X56000000Y-41000000D01*
X56000000Y-37000000D01*
X55000000Y-36000000D02*
X61000000Y-36000000D01*
X61000000Y-42000000D01*
X55000000Y-42000000D01*
X55000000Y-36000000D01*
X54000000Y-35000000D02*
X62000000Y-35000000D01*
X62000000Y-43000000D01*
X54000000Y-43000000D01*
X54000000Y-35000000D01*
X44000000Y-34000000D02*
X51000000Y-34000000D01*
X51000000Y-44000000D01*
X44000000Y-44000000D01*
X44000000Y-34000000D01*
X44000000Y-36000000D02*
X45000000Y-36000000D01*
X45000000Y-37000000D01*
X44000000Y-37000000D01*
X44000000Y-36000000D01*
X44000000Y-37000000D02*
X45000000Y-37000000D01*
X45000000Y-38000000D01*
X44000000Y-38000000D01*
X44000000Y-37000000D01*
X44000000Y-38000000D02*
X45000000Y-38000000D01*
X45000000Y-39000000D01*
X44000000Y-39000000D01*
X44000000Y-38000000D01*
X45000000Y-41000000D02*
X46000000Y-41000000D01*
X46000000Y-42000000D01*
X45000000Y-42000000D01*
X45000000Y-41000000D01*
X45000000Y-42000000D02*
X46000000Y-42000000D01*
X46000000Y-43000000D01*
X45000000Y-43000000D01*
X45000000Y-42000000D01*
X45000000Y-43000000D02*
X46000000Y-43000000D01*
X46000000Y-44000000D01*
X45000000Y-44000000D01*
X45000000Y-43000000D01*
X46000000Y-43000000D02*
X47000000Y-43000000D01*
X47000000Y-44000000D01*
X46000000Y-44000000D01*
X46000000Y-43000000D01*
X47000000Y-43000000D02*
X48000000Y-43000000D01*
X48000000Y-44000000D01*
X47000000Y-44000000D01*
X47000000Y-43000000D01*
X49000000Y-42000000D02*
X50000000Y-42000000D01*
X50000000Y-43000000D01*
X49000000Y-43000000D01*
X49000000Y-42000000D01*
X50000000Y-43000000D02*
X51000000Y-43000000D01*
X51000000Y-44000000D01*
X50000000Y-44000000D01*
X50000000Y-43000000D01*
X49000000Y-43000000D02*
X50000000Y-43000000D01*
X50000000Y-44000000D01*
X49000000Y-44000000D01*
X49000000Y-43000000D01*
X48000000Y-43000000D02*
X49000000Y-43000000D01*
X49000000Y-44000000D01*
X48000000Y-44000000D01*
X48000000Y-43000000D01*
%TO.C,G\u002A\u002A\u002A*%
G36*
X84394078Y-35787954D02*
G01*
X84394728Y-36013815D01*
X84396334Y-36280330D01*
X84398787Y-36577516D01*
X84401980Y-36895390D01*
X84405805Y-37223969D01*
X84410153Y-37553269D01*
X84414919Y-37873309D01*
X84419590Y-38151645D01*
X84427916Y-38635919D01*
X84434633Y-39072370D01*
X84439605Y-39463800D01*
X84442695Y-39813012D01*
X84443768Y-40122810D01*
X84442686Y-40395997D01*
X84439313Y-40635375D01*
X84433512Y-40843747D01*
X84425149Y-41023917D01*
X84414085Y-41178687D01*
X84400185Y-41310861D01*
X84383312Y-41423242D01*
X84363330Y-41518632D01*
X84340103Y-41599835D01*
X84313494Y-41669654D01*
X84283366Y-41730891D01*
X84249584Y-41786350D01*
X84242210Y-41797238D01*
X84115892Y-41944539D01*
X83948788Y-42083549D01*
X83750733Y-42207493D01*
X83531568Y-42309596D01*
X83459469Y-42336243D01*
X83361405Y-42367423D01*
X83272584Y-42387468D01*
X83176047Y-42398772D01*
X83054833Y-42403729D01*
X82975274Y-42404600D01*
X82845037Y-42404251D01*
X82751329Y-42400166D01*
X82680057Y-42390130D01*
X82617124Y-42371923D01*
X82548436Y-42343330D01*
X82528910Y-42334390D01*
X82362187Y-42235474D01*
X82231521Y-42106560D01*
X82128866Y-41939554D01*
X82121912Y-41924925D01*
X82083354Y-41832911D01*
X82061695Y-41749696D01*
X82052566Y-41653219D01*
X82051285Y-41568393D01*
X82053781Y-41459631D01*
X82064261Y-41377237D01*
X82087856Y-41299866D01*
X82129694Y-41206173D01*
X82146640Y-41171550D01*
X82270945Y-40974875D01*
X82439154Y-40795247D01*
X82645974Y-40637678D01*
X82809606Y-40543836D01*
X82919840Y-40490227D01*
X83005846Y-40456461D01*
X83087264Y-40437067D01*
X83183732Y-40426575D01*
X83243452Y-40422973D01*
X83378713Y-40421784D01*
X83533342Y-40429298D01*
X83677108Y-40443949D01*
X83693213Y-40446265D01*
X83797411Y-40461549D01*
X83882857Y-40473458D01*
X83937002Y-40480271D01*
X83948361Y-40481228D01*
X83951292Y-40456699D01*
X83953947Y-40386112D01*
X83956324Y-40274055D01*
X83958424Y-40125117D01*
X83960247Y-39943886D01*
X83961792Y-39734953D01*
X83963059Y-39502905D01*
X83964048Y-39252332D01*
X83964759Y-38987822D01*
X83965191Y-38713964D01*
X83965344Y-38435347D01*
X83965219Y-38156560D01*
X83964815Y-37882191D01*
X83964131Y-37616829D01*
X83963168Y-37365064D01*
X83961925Y-37131483D01*
X83960402Y-36920677D01*
X83958599Y-36737233D01*
X83956516Y-36585740D01*
X83954152Y-36470788D01*
X83951507Y-36396964D01*
X83948582Y-36368859D01*
X83948543Y-36368815D01*
X83915732Y-36365638D01*
X83836858Y-36373012D01*
X83715251Y-36390290D01*
X83554241Y-36416823D01*
X83357160Y-36451965D01*
X83127337Y-36495067D01*
X82868104Y-36545482D01*
X82582791Y-36602564D01*
X82274729Y-36665663D01*
X81947249Y-36734134D01*
X81603681Y-36807327D01*
X81247356Y-36884596D01*
X80889873Y-36963454D01*
X80677357Y-37010693D01*
X80480874Y-37054300D01*
X80305786Y-37093090D01*
X80157455Y-37125878D01*
X80041242Y-37151479D01*
X79962509Y-37168708D01*
X79926618Y-37176382D01*
X79924987Y-37176670D01*
X79917791Y-37201685D01*
X79911820Y-37275519D01*
X79907082Y-37396362D01*
X79903582Y-37562398D01*
X79901328Y-37771815D01*
X79900326Y-38022801D01*
X79900584Y-38313541D01*
X79902108Y-38642223D01*
X79904904Y-39007034D01*
X79908980Y-39406161D01*
X79914343Y-39837790D01*
X79914885Y-39877928D01*
X79920092Y-40263663D01*
X79924406Y-40602390D01*
X79927625Y-40897743D01*
X79929549Y-41153358D01*
X79929976Y-41372869D01*
X79928703Y-41559911D01*
X79925530Y-41718120D01*
X79920254Y-41851129D01*
X79912674Y-41962575D01*
X79902588Y-42056091D01*
X79889795Y-42135313D01*
X79874092Y-42203876D01*
X79855279Y-42265414D01*
X79833153Y-42323564D01*
X79807513Y-42381958D01*
X79778157Y-42444233D01*
X79771754Y-42457616D01*
X79654644Y-42645701D01*
X79498251Y-42810676D01*
X79309927Y-42949189D01*
X79097024Y-43057887D01*
X78866893Y-43133421D01*
X78626886Y-43172437D01*
X78384355Y-43171585D01*
X78248388Y-43152092D01*
X78062576Y-43094107D01*
X77894328Y-43000678D01*
X77752302Y-42878811D01*
X77645156Y-42735510D01*
X77594468Y-42622991D01*
X77561946Y-42468934D01*
X77555220Y-42296569D01*
X77574250Y-42130259D01*
X77595356Y-42051155D01*
X77688714Y-41851292D01*
X77824899Y-41665571D01*
X77996694Y-41500306D01*
X78196888Y-41361810D01*
X78418265Y-41256397D01*
X78552987Y-41213047D01*
X78689172Y-41189476D01*
X78853449Y-41180121D01*
X79025317Y-41184916D01*
X79184276Y-41203790D01*
X79239980Y-41215346D01*
X79328309Y-41235139D01*
X79401437Y-41248820D01*
X79436241Y-41252937D01*
X79443284Y-41251085D01*
X79449541Y-41243348D01*
X79455057Y-41226907D01*
X79459881Y-41198944D01*
X79464057Y-41156641D01*
X79467632Y-41097180D01*
X79470653Y-41017743D01*
X79473165Y-40915511D01*
X79475216Y-40787666D01*
X79476851Y-40631391D01*
X79478118Y-40443867D01*
X79479061Y-40222275D01*
X79479728Y-39963798D01*
X79480165Y-39665617D01*
X79480418Y-39324915D01*
X79480534Y-38938873D01*
X79480558Y-38557806D01*
X79480558Y-35861773D01*
X79579268Y-35835193D01*
X79698895Y-35804597D01*
X79862176Y-35765283D01*
X80063923Y-35718355D01*
X80298949Y-35664917D01*
X80562067Y-35606073D01*
X80848091Y-35542927D01*
X81151833Y-35476582D01*
X81468108Y-35408143D01*
X81791728Y-35338714D01*
X82117506Y-35269398D01*
X82440255Y-35201298D01*
X82754789Y-35135520D01*
X83055920Y-35073167D01*
X83338463Y-35015342D01*
X83597229Y-34963150D01*
X83827033Y-34917694D01*
X84022687Y-34880079D01*
X84179005Y-34851408D01*
X84285793Y-34833545D01*
X84393420Y-34817084D01*
X84394078Y-35787954D01*
G37*
D12*
%TO.C,TP3*%
X104840000Y-76200000D02*
G75*
G03*
X104840000Y-76200000I-700000J0D01*
G01*
%TO.C,TP4*%
X109920000Y-76200000D02*
G75*
G03*
X109920000Y-76200000I-700000J0D01*
G01*
%TO.C,TP1*%
X102300000Y-76200000D02*
G75*
G03*
X102300000Y-76200000I-700000J0D01*
G01*
%TO.C,TP2*%
X107380000Y-76200000D02*
G75*
G03*
X107380000Y-76200000I-700000J0D01*
G01*
%TD*%
G36*
X55938000Y-35016613D02*
G01*
X55983387Y-35062000D01*
X56000000Y-35124000D01*
X56000000Y-35876000D01*
X55983387Y-35938000D01*
X55938000Y-35983387D01*
X55876000Y-36000000D01*
X55124000Y-36000000D01*
X55062000Y-35983387D01*
X55016613Y-35938000D01*
X55000000Y-35876000D01*
X55000000Y-35124000D01*
X55016613Y-35062000D01*
X55062000Y-35016613D01*
X55124000Y-35000000D01*
X55876000Y-35000000D01*
X55938000Y-35016613D01*
G37*
G36*
X57938000Y-35016613D02*
G01*
X57983387Y-35062000D01*
X58000000Y-35124000D01*
X58000000Y-35876000D01*
X57983387Y-35938000D01*
X57938000Y-35983387D01*
X57876000Y-36000000D01*
X57124000Y-36000000D01*
X57062000Y-35983387D01*
X57016613Y-35938000D01*
X57000000Y-35876000D01*
X57000000Y-35124000D01*
X57016613Y-35062000D01*
X57062000Y-35016613D01*
X57124000Y-35000000D01*
X57876000Y-35000000D01*
X57938000Y-35016613D01*
G37*
G36*
X59938000Y-35016613D02*
G01*
X59983387Y-35062000D01*
X60000000Y-35124000D01*
X60000000Y-35876000D01*
X59983387Y-35938000D01*
X59938000Y-35983387D01*
X59876000Y-36000000D01*
X59124000Y-36000000D01*
X59062000Y-35983387D01*
X59016613Y-35938000D01*
X59000000Y-35876000D01*
X59000000Y-35124000D01*
X59016613Y-35062000D01*
X59062000Y-35016613D01*
X59124000Y-35000000D01*
X59876000Y-35000000D01*
X59938000Y-35016613D01*
G37*
G36*
X61938000Y-35016613D02*
G01*
X61983387Y-35062000D01*
X62000000Y-35124000D01*
X62000000Y-35876000D01*
X61983387Y-35938000D01*
X61938000Y-35983387D01*
X61876000Y-36000000D01*
X61124000Y-36000000D01*
X61062000Y-35983387D01*
X61016613Y-35938000D01*
X61000000Y-35876000D01*
X61000000Y-35124000D01*
X61016613Y-35062000D01*
X61062000Y-35016613D01*
X61124000Y-35000000D01*
X61876000Y-35000000D01*
X61938000Y-35016613D01*
G37*
G36*
X56938000Y-36016613D02*
G01*
X56983387Y-36062000D01*
X57000000Y-36124000D01*
X57000000Y-36876000D01*
X56983387Y-36938000D01*
X56938000Y-36983387D01*
X56876000Y-37000000D01*
X56124000Y-37000000D01*
X56062000Y-36983387D01*
X56016613Y-36938000D01*
X56000000Y-36876000D01*
X56000000Y-36124000D01*
X56016613Y-36062000D01*
X56062000Y-36016613D01*
X56124000Y-36000000D01*
X56876000Y-36000000D01*
X56938000Y-36016613D01*
G37*
G36*
X58938000Y-36016613D02*
G01*
X58983387Y-36062000D01*
X59000000Y-36124000D01*
X59000000Y-36876000D01*
X58983387Y-36938000D01*
X58938000Y-36983387D01*
X58876000Y-37000000D01*
X58124000Y-37000000D01*
X58062000Y-36983387D01*
X58016613Y-36938000D01*
X58000000Y-36876000D01*
X58000000Y-36124000D01*
X58016613Y-36062000D01*
X58062000Y-36016613D01*
X58124000Y-36000000D01*
X58876000Y-36000000D01*
X58938000Y-36016613D01*
G37*
G36*
X60927127Y-36000134D02*
G01*
X60972514Y-36045521D01*
X60989127Y-36107521D01*
X60989127Y-36859521D01*
X60972514Y-36921521D01*
X60927127Y-36966908D01*
X60865127Y-36983521D01*
X60113127Y-36983521D01*
X60051127Y-36966908D01*
X60005740Y-36921521D01*
X59989127Y-36859521D01*
X59989127Y-36107521D01*
X60005740Y-36045521D01*
X60051127Y-36000134D01*
X60113127Y-35983521D01*
X60865127Y-35983521D01*
X60927127Y-36000134D01*
G37*
G36*
X55938000Y-37016613D02*
G01*
X55983387Y-37062000D01*
X56000000Y-37124000D01*
X56000000Y-37876000D01*
X55983387Y-37938000D01*
X55938000Y-37983387D01*
X55876000Y-38000000D01*
X55124000Y-38000000D01*
X55062000Y-37983387D01*
X55016613Y-37938000D01*
X55000000Y-37876000D01*
X55000000Y-37124000D01*
X55016613Y-37062000D01*
X55062000Y-37016613D01*
X55124000Y-37000000D01*
X55876000Y-37000000D01*
X55938000Y-37016613D01*
G37*
G36*
X57938000Y-37016613D02*
G01*
X57983387Y-37062000D01*
X58000000Y-37124000D01*
X58000000Y-37876000D01*
X57983387Y-37938000D01*
X57938000Y-37983387D01*
X57876000Y-38000000D01*
X57124000Y-38000000D01*
X57062000Y-37983387D01*
X57016613Y-37938000D01*
X57000000Y-37876000D01*
X57000000Y-37124000D01*
X57016613Y-37062000D01*
X57062000Y-37016613D01*
X57124000Y-37000000D01*
X57876000Y-37000000D01*
X57938000Y-37016613D01*
G37*
G36*
X59938000Y-37016613D02*
G01*
X59983387Y-37062000D01*
X60000000Y-37124000D01*
X60000000Y-37876000D01*
X59983387Y-37938000D01*
X59938000Y-37983387D01*
X59876000Y-38000000D01*
X59124000Y-38000000D01*
X59062000Y-37983387D01*
X59016613Y-37938000D01*
X59000000Y-37876000D01*
X59000000Y-37124000D01*
X59016613Y-37062000D01*
X59062000Y-37016613D01*
X59124000Y-37000000D01*
X59876000Y-37000000D01*
X59938000Y-37016613D01*
G37*
G36*
X61938000Y-37016613D02*
G01*
X61983387Y-37062000D01*
X62000000Y-37124000D01*
X62000000Y-37876000D01*
X61983387Y-37938000D01*
X61938000Y-37983387D01*
X61876000Y-38000000D01*
X61124000Y-38000000D01*
X61062000Y-37983387D01*
X61016613Y-37938000D01*
X61000000Y-37876000D01*
X61000000Y-37124000D01*
X61016613Y-37062000D01*
X61062000Y-37016613D01*
X61124000Y-37000000D01*
X61876000Y-37000000D01*
X61938000Y-37016613D01*
G37*
G36*
X61938000Y-39016613D02*
G01*
X61983387Y-39062000D01*
X62000000Y-39124000D01*
X62000000Y-39876000D01*
X61983387Y-39938000D01*
X61938000Y-39983387D01*
X61876000Y-40000000D01*
X61124000Y-40000000D01*
X61062000Y-39983387D01*
X61016613Y-39938000D01*
X61000000Y-39876000D01*
X61000000Y-39124000D01*
X61016613Y-39062000D01*
X61062000Y-39016613D01*
X61124000Y-39000000D01*
X61876000Y-39000000D01*
X61938000Y-39016613D01*
G37*
G36*
X60938000Y-38016613D02*
G01*
X60983387Y-38062000D01*
X61000000Y-38124000D01*
X61000000Y-38876000D01*
X60983387Y-38938000D01*
X60938000Y-38983387D01*
X60876000Y-39000000D01*
X60124000Y-39000000D01*
X60062000Y-38983387D01*
X60016613Y-38938000D01*
X60000000Y-38876000D01*
X60000000Y-38124000D01*
X60016613Y-38062000D01*
X60062000Y-38016613D01*
X60124000Y-38000000D01*
X60876000Y-38000000D01*
X60938000Y-38016613D01*
G37*
G36*
X58938000Y-38016613D02*
G01*
X58983387Y-38062000D01*
X59000000Y-38124000D01*
X59000000Y-38876000D01*
X58983387Y-38938000D01*
X58938000Y-38983387D01*
X58876000Y-39000000D01*
X58124000Y-39000000D01*
X58062000Y-38983387D01*
X58016613Y-38938000D01*
X58000000Y-38876000D01*
X58000000Y-38124000D01*
X58016613Y-38062000D01*
X58062000Y-38016613D01*
X58124000Y-38000000D01*
X58876000Y-38000000D01*
X58938000Y-38016613D01*
G37*
G36*
X59938000Y-39016613D02*
G01*
X59983387Y-39062000D01*
X60000000Y-39124000D01*
X60000000Y-39876000D01*
X59983387Y-39938000D01*
X59938000Y-39983387D01*
X59876000Y-40000000D01*
X59124000Y-40000000D01*
X59062000Y-39983387D01*
X59016613Y-39938000D01*
X59000000Y-39876000D01*
X59000000Y-39124000D01*
X59016613Y-39062000D01*
X59062000Y-39016613D01*
X59124000Y-39000000D01*
X59876000Y-39000000D01*
X59938000Y-39016613D01*
G37*
G36*
X60938000Y-40016613D02*
G01*
X60983387Y-40062000D01*
X61000000Y-40124000D01*
X61000000Y-40876000D01*
X60983387Y-40938000D01*
X60938000Y-40983387D01*
X60876000Y-41000000D01*
X60124000Y-41000000D01*
X60062000Y-40983387D01*
X60016613Y-40938000D01*
X60000000Y-40876000D01*
X60000000Y-40124000D01*
X60016613Y-40062000D01*
X60062000Y-40016613D01*
X60124000Y-40000000D01*
X60876000Y-40000000D01*
X60938000Y-40016613D01*
G37*
G36*
X59938000Y-41016613D02*
G01*
X59983387Y-41062000D01*
X60000000Y-41124000D01*
X60000000Y-41876000D01*
X59983387Y-41938000D01*
X59938000Y-41983387D01*
X59876000Y-42000000D01*
X59124000Y-42000000D01*
X59062000Y-41983387D01*
X59016613Y-41938000D01*
X59000000Y-41876000D01*
X59000000Y-41124000D01*
X59016613Y-41062000D01*
X59062000Y-41016613D01*
X59124000Y-41000000D01*
X59876000Y-41000000D01*
X59938000Y-41016613D01*
G37*
G36*
X60938000Y-42016613D02*
G01*
X60983387Y-42062000D01*
X61000000Y-42124000D01*
X61000000Y-42876000D01*
X60983387Y-42938000D01*
X60938000Y-42983387D01*
X60876000Y-43000000D01*
X60124000Y-43000000D01*
X60062000Y-42983387D01*
X60016613Y-42938000D01*
X60000000Y-42876000D01*
X60000000Y-42124000D01*
X60016613Y-42062000D01*
X60062000Y-42016613D01*
X60124000Y-42000000D01*
X60876000Y-42000000D01*
X60938000Y-42016613D01*
G37*
G36*
X61938000Y-41016613D02*
G01*
X61983387Y-41062000D01*
X62000000Y-41124000D01*
X62000000Y-41876000D01*
X61983387Y-41938000D01*
X61938000Y-41983387D01*
X61876000Y-42000000D01*
X61124000Y-42000000D01*
X61062000Y-41983387D01*
X61016613Y-41938000D01*
X61000000Y-41876000D01*
X61000000Y-41124000D01*
X61016613Y-41062000D01*
X61062000Y-41016613D01*
X61124000Y-41000000D01*
X61876000Y-41000000D01*
X61938000Y-41016613D01*
G37*
G36*
X58938000Y-40016613D02*
G01*
X58983387Y-40062000D01*
X59000000Y-40124000D01*
X59000000Y-40876000D01*
X58983387Y-40938000D01*
X58938000Y-40983387D01*
X58876000Y-41000000D01*
X58124000Y-41000000D01*
X58062000Y-40983387D01*
X58016613Y-40938000D01*
X58000000Y-40876000D01*
X58000000Y-40124000D01*
X58016613Y-40062000D01*
X58062000Y-40016613D01*
X58124000Y-40000000D01*
X58876000Y-40000000D01*
X58938000Y-40016613D01*
G37*
G36*
X57938000Y-39016613D02*
G01*
X57983387Y-39062000D01*
X58000000Y-39124000D01*
X58000000Y-39876000D01*
X57983387Y-39938000D01*
X57938000Y-39983387D01*
X57876000Y-40000000D01*
X57124000Y-40000000D01*
X57062000Y-39983387D01*
X57016613Y-39938000D01*
X57000000Y-39876000D01*
X57000000Y-39124000D01*
X57016613Y-39062000D01*
X57062000Y-39016613D01*
X57124000Y-39000000D01*
X57876000Y-39000000D01*
X57938000Y-39016613D01*
G37*
G36*
X56938000Y-38016613D02*
G01*
X56983387Y-38062000D01*
X57000000Y-38124000D01*
X57000000Y-38876000D01*
X56983387Y-38938000D01*
X56938000Y-38983387D01*
X56876000Y-39000000D01*
X56124000Y-39000000D01*
X56062000Y-38983387D01*
X56016613Y-38938000D01*
X56000000Y-38876000D01*
X56000000Y-38124000D01*
X56016613Y-38062000D01*
X56062000Y-38016613D01*
X56124000Y-38000000D01*
X56876000Y-38000000D01*
X56938000Y-38016613D01*
G37*
G36*
X55938000Y-39016613D02*
G01*
X55983387Y-39062000D01*
X56000000Y-39124000D01*
X56000000Y-39876000D01*
X55983387Y-39938000D01*
X55938000Y-39983387D01*
X55876000Y-40000000D01*
X55124000Y-40000000D01*
X55062000Y-39983387D01*
X55016613Y-39938000D01*
X55000000Y-39876000D01*
X55000000Y-39124000D01*
X55016613Y-39062000D01*
X55062000Y-39016613D01*
X55124000Y-39000000D01*
X55876000Y-39000000D01*
X55938000Y-39016613D01*
G37*
G36*
X54938000Y-38016613D02*
G01*
X54983387Y-38062000D01*
X55000000Y-38124000D01*
X55000000Y-38876000D01*
X54983387Y-38938000D01*
X54938000Y-38983387D01*
X54876000Y-39000000D01*
X54124000Y-39000000D01*
X54062000Y-38983387D01*
X54016613Y-38938000D01*
X54000000Y-38876000D01*
X54000000Y-38124000D01*
X54016613Y-38062000D01*
X54062000Y-38016613D01*
X54124000Y-38000000D01*
X54876000Y-38000000D01*
X54938000Y-38016613D01*
G37*
G36*
X54938000Y-36016613D02*
G01*
X54983387Y-36062000D01*
X55000000Y-36124000D01*
X55000000Y-36876000D01*
X54983387Y-36938000D01*
X54938000Y-36983387D01*
X54876000Y-37000000D01*
X54124000Y-37000000D01*
X54062000Y-36983387D01*
X54016613Y-36938000D01*
X54000000Y-36876000D01*
X54000000Y-36124000D01*
X54016613Y-36062000D01*
X54062000Y-36016613D01*
X54124000Y-36000000D01*
X54876000Y-36000000D01*
X54938000Y-36016613D01*
G37*
G36*
X56938000Y-40016613D02*
G01*
X56983387Y-40062000D01*
X57000000Y-40124000D01*
X57000000Y-40876000D01*
X56983387Y-40938000D01*
X56938000Y-40983387D01*
X56876000Y-41000000D01*
X56124000Y-41000000D01*
X56062000Y-40983387D01*
X56016613Y-40938000D01*
X56000000Y-40876000D01*
X56000000Y-40124000D01*
X56016613Y-40062000D01*
X56062000Y-40016613D01*
X56124000Y-40000000D01*
X56876000Y-40000000D01*
X56938000Y-40016613D01*
G37*
G36*
X54938000Y-40016613D02*
G01*
X54983387Y-40062000D01*
X55000000Y-40124000D01*
X55000000Y-40876000D01*
X54983387Y-40938000D01*
X54938000Y-40983387D01*
X54876000Y-41000000D01*
X54124000Y-41000000D01*
X54062000Y-40983387D01*
X54016613Y-40938000D01*
X54000000Y-40876000D01*
X54000000Y-40124000D01*
X54016613Y-40062000D01*
X54062000Y-40016613D01*
X54124000Y-40000000D01*
X54876000Y-40000000D01*
X54938000Y-40016613D01*
G37*
G36*
X57938000Y-41016613D02*
G01*
X57983387Y-41062000D01*
X58000000Y-41124000D01*
X58000000Y-41876000D01*
X57983387Y-41938000D01*
X57938000Y-41983387D01*
X57876000Y-42000000D01*
X57124000Y-42000000D01*
X57062000Y-41983387D01*
X57016613Y-41938000D01*
X57000000Y-41876000D01*
X57000000Y-41124000D01*
X57016613Y-41062000D01*
X57062000Y-41016613D01*
X57124000Y-41000000D01*
X57876000Y-41000000D01*
X57938000Y-41016613D01*
G37*
G36*
X58938000Y-42016613D02*
G01*
X58983387Y-42062000D01*
X59000000Y-42124000D01*
X59000000Y-42876000D01*
X58983387Y-42938000D01*
X58938000Y-42983387D01*
X58876000Y-43000000D01*
X58124000Y-43000000D01*
X58062000Y-42983387D01*
X58016613Y-42938000D01*
X58000000Y-42876000D01*
X58000000Y-42124000D01*
X58016613Y-42062000D01*
X58062000Y-42016613D01*
X58124000Y-42000000D01*
X58876000Y-42000000D01*
X58938000Y-42016613D01*
G37*
G36*
X56938000Y-42016613D02*
G01*
X56983387Y-42062000D01*
X57000000Y-42124000D01*
X57000000Y-42876000D01*
X56983387Y-42938000D01*
X56938000Y-42983387D01*
X56876000Y-43000000D01*
X56124000Y-43000000D01*
X56062000Y-42983387D01*
X56016613Y-42938000D01*
X56000000Y-42876000D01*
X56000000Y-42124000D01*
X56016613Y-42062000D01*
X56062000Y-42016613D01*
X56124000Y-42000000D01*
X56876000Y-42000000D01*
X56938000Y-42016613D01*
G37*
G36*
X54938000Y-42016613D02*
G01*
X54983387Y-42062000D01*
X55000000Y-42124000D01*
X55000000Y-42876000D01*
X54983387Y-42938000D01*
X54938000Y-42983387D01*
X54876000Y-43000000D01*
X54124000Y-43000000D01*
X54062000Y-42983387D01*
X54016613Y-42938000D01*
X54000000Y-42876000D01*
X54000000Y-42124000D01*
X54016613Y-42062000D01*
X54062000Y-42016613D01*
X54124000Y-42000000D01*
X54876000Y-42000000D01*
X54938000Y-42016613D01*
G37*
G36*
X55938000Y-41016613D02*
G01*
X55983387Y-41062000D01*
X56000000Y-41124000D01*
X56000000Y-41876000D01*
X55983387Y-41938000D01*
X55938000Y-41983387D01*
X55876000Y-42000000D01*
X55124000Y-42000000D01*
X55062000Y-41983387D01*
X55016613Y-41938000D01*
X55000000Y-41876000D01*
X55000000Y-41124000D01*
X55016613Y-41062000D01*
X55062000Y-41016613D01*
X55124000Y-41000000D01*
X55876000Y-41000000D01*
X55938000Y-41016613D01*
G37*
M02*
