%TF.GenerationSoftware,KiCad,Pcbnew,7.0.1*%
%TF.CreationDate,2023-07-02T20:59:24-04:00*%
%TF.ProjectId,business_card,62757369-6e65-4737-935f-636172642e6b,rev?*%
%TF.SameCoordinates,Original*%
%TF.FileFunction,Soldermask,Top*%
%TF.FilePolarity,Negative*%
%FSLAX46Y46*%
G04 Gerber Fmt 4.6, Leading zero omitted, Abs format (unit mm)*
G04 Created by KiCad (PCBNEW 7.0.1) date 2023-07-02 20:59:24*
%MOMM*%
%LPD*%
G01*
G04 APERTURE LIST*
G04 Aperture macros list*
%AMRoundRect*
0 Rectangle with rounded corners*
0 $1 Rounding radius*
0 $2 $3 $4 $5 $6 $7 $8 $9 X,Y pos of 4 corners*
0 Add a 4 corners polygon primitive as box body*
4,1,4,$2,$3,$4,$5,$6,$7,$8,$9,$2,$3,0*
0 Add four circle primitives for the rounded corners*
1,1,$1+$1,$2,$3*
1,1,$1+$1,$4,$5*
1,1,$1+$1,$6,$7*
1,1,$1+$1,$8,$9*
0 Add four rect primitives between the rounded corners*
20,1,$1+$1,$2,$3,$4,$5,0*
20,1,$1+$1,$4,$5,$6,$7,0*
20,1,$1+$1,$6,$7,$8,$9,0*
20,1,$1+$1,$8,$9,$2,$3,0*%
G04 Aperture macros list end*
%ADD10RoundRect,0.150000X0.150000X-0.550000X0.150000X0.550000X-0.150000X0.550000X-0.150000X-0.550000X0*%
%ADD11RoundRect,0.150000X0.150000X-0.500000X0.150000X0.500000X-0.150000X0.500000X-0.150000X-0.500000X0*%
%ADD12C,1.500000*%
%ADD13C,1.000000*%
%ADD14RoundRect,0.600000X-0.600000X-0.650000X0.600000X-0.650000X0.600000X0.650000X-0.600000X0.650000X0*%
%ADD15RoundRect,0.600000X-0.650000X-0.600000X0.650000X-0.600000X0.650000X0.600000X-0.650000X0.600000X0*%
%ADD16RoundRect,0.400000X-4.949747X-4.384062X-4.384062X-4.949747X4.949747X4.384062X4.384062X4.949747X0*%
%ADD17RoundRect,0.325000X-4.949747X-4.490128X-4.490128X-4.949747X4.949747X4.490128X4.490128X4.949747X0*%
%ADD18RoundRect,0.100000X0.400000X0.100000X-0.400000X0.100000X-0.400000X-0.100000X0.400000X-0.100000X0*%
%ADD19RoundRect,0.093750X0.406250X0.093750X-0.406250X0.093750X-0.406250X-0.093750X0.406250X-0.093750X0*%
%ADD20RoundRect,0.118750X0.381250X0.118750X-0.381250X0.118750X-0.381250X-0.118750X0.381250X-0.118750X0*%
%ADD21RoundRect,0.106250X0.393750X0.106250X-0.393750X0.106250X-0.393750X-0.106250X0.393750X-0.106250X0*%
G04 APERTURE END LIST*
D10*
%TO.C,U2*%
X111900000Y-56400000D03*
X112850000Y-56400000D03*
X113800000Y-56400000D03*
D11*
X113800000Y-60350000D03*
X111900000Y-60350000D03*
%TD*%
D12*
%TO.C,C2*%
X109200000Y-58600000D03*
X109200000Y-56600000D03*
%TD*%
%TO.C,C1*%
X116600000Y-56600000D03*
X116600000Y-58600000D03*
%TD*%
D13*
%TO.C,TP4*%
X109220000Y-76200000D03*
%TD*%
%TO.C,TP3*%
X104140000Y-76200000D03*
%TD*%
%TO.C,TP2*%
X106680000Y-76200000D03*
%TD*%
%TO.C,TP1*%
X101600000Y-76200000D03*
%TD*%
D14*
%TO.C,BZ1*%
X45000000Y-61000000D03*
D15*
X45000000Y-75000000D03*
%TD*%
D12*
%TO.C,R6*%
X52000000Y-76000000D03*
X54000000Y-76000000D03*
%TD*%
%TO.C,R5*%
X61000000Y-73000000D03*
X59000000Y-73000000D03*
%TD*%
%TO.C,R4*%
X68000000Y-73000000D03*
X66000000Y-73000000D03*
%TD*%
%TO.C,R3*%
X75000000Y-73000000D03*
X73000000Y-73000000D03*
%TD*%
%TO.C,R2*%
X89000000Y-73000000D03*
X87000000Y-73000000D03*
%TD*%
D16*
%TO.C,J1*%
X113400000Y-35900000D03*
D17*
X115167767Y-37667767D03*
X116581981Y-39081980D03*
D16*
X118349747Y-40849747D03*
%TD*%
D12*
%TO.C,D5*%
X59000000Y-51000000D03*
X61000000Y-51000000D03*
%TD*%
%TO.C,D4*%
X66000000Y-51000000D03*
X68000000Y-51000000D03*
%TD*%
%TO.C,D3*%
X73000000Y-51000000D03*
X75000000Y-51000000D03*
%TD*%
%TO.C,D2*%
X87000000Y-51000000D03*
X89000000Y-51000000D03*
%TD*%
D18*
%TO.C,U1*%
X108500000Y-68965000D03*
X108500000Y-68315000D03*
X108500000Y-67665000D03*
X108500000Y-67015000D03*
D19*
X108500000Y-66352500D03*
D18*
X108500000Y-65715000D03*
X108500000Y-65065000D03*
X108500000Y-64415000D03*
X108500000Y-63765000D03*
X108500000Y-63115000D03*
X115500000Y-63115000D03*
D20*
X115500000Y-63802500D03*
D18*
X115500000Y-64415000D03*
X115500000Y-65065000D03*
X115500000Y-65715000D03*
D19*
X115500000Y-66352500D03*
D18*
X115500000Y-67015000D03*
X115500000Y-67665000D03*
D21*
X115500000Y-68327500D03*
D18*
X115500000Y-68965000D03*
%TD*%
D12*
%TO.C,R1*%
X82000000Y-73000000D03*
X80000000Y-73000000D03*
%TD*%
%TO.C,D1*%
X80000000Y-51000000D03*
X82000000Y-51000000D03*
%TD*%
M02*
