%TF.GenerationSoftware,KiCad,Pcbnew,7.0.1*%
%TF.CreationDate,2023-07-02T20:59:24-04:00*%
%TF.ProjectId,business_card,62757369-6e65-4737-935f-636172642e6b,rev?*%
%TF.SameCoordinates,Original*%
%TF.FileFunction,Copper,L2,Bot*%
%TF.FilePolarity,Positive*%
%FSLAX46Y46*%
G04 Gerber Fmt 4.6, Leading zero omitted, Abs format (unit mm)*
G04 Created by KiCad (PCBNEW 7.0.1) date 2023-07-02 20:59:24*
%MOMM*%
%LPD*%
G01*
G04 APERTURE LIST*
%TA.AperFunction,ComponentPad*%
%ADD10C,1.500000*%
%TD*%
%TA.AperFunction,ViaPad*%
%ADD11C,0.800000*%
%TD*%
%TA.AperFunction,Conductor*%
%ADD12C,0.300000*%
%TD*%
G04 APERTURE END LIST*
D10*
%TO.P,C2,1*%
%TO.N,/3V3_SUPPLY*%
X109200000Y-58600000D03*
%TO.P,C2,2*%
%TO.N,GND*%
X109200000Y-56600000D03*
%TD*%
%TO.P,C1,1*%
%TO.N,/5V_USB*%
X116600000Y-56600000D03*
%TO.P,C1,2*%
%TO.N,GND*%
X116600000Y-58600000D03*
%TD*%
%TO.P,R6,1*%
%TO.N,Net-(BZ1-+)*%
X52000000Y-76000000D03*
%TO.P,R6,2*%
%TO.N,Net-(U1-PB1)*%
X54000000Y-76000000D03*
%TD*%
%TO.P,R5,1*%
%TO.N,Net-(U1-PA0)*%
X61000000Y-73000000D03*
%TO.P,R5,2*%
%TO.N,Net-(D5-A)*%
X59000000Y-73000000D03*
%TD*%
%TO.P,R4,1*%
%TO.N,Net-(U1-PA1)*%
X68000000Y-73000000D03*
%TO.P,R4,2*%
%TO.N,Net-(D4-A)*%
X66000000Y-73000000D03*
%TD*%
%TO.P,R3,1*%
%TO.N,Net-(U1-PA2)*%
X75000000Y-73000000D03*
%TO.P,R3,2*%
%TO.N,Net-(D3-A)*%
X73000000Y-73000000D03*
%TD*%
%TO.P,R2,1*%
%TO.N,Net-(U1-PA4)*%
X89000000Y-73000000D03*
%TO.P,R2,2*%
%TO.N,Net-(D2-A)*%
X87000000Y-73000000D03*
%TD*%
%TO.P,D5,1,K*%
%TO.N,GND*%
X59000000Y-51000000D03*
%TO.P,D5,2,A*%
%TO.N,Net-(D5-A)*%
X61000000Y-51000000D03*
%TD*%
%TO.P,D4,1,K*%
%TO.N,GND*%
X66000000Y-51000000D03*
%TO.P,D4,2,A*%
%TO.N,Net-(D4-A)*%
X68000000Y-51000000D03*
%TD*%
%TO.P,D3,1,K*%
%TO.N,GND*%
X73000000Y-51000000D03*
%TO.P,D3,2,A*%
%TO.N,Net-(D3-A)*%
X75000000Y-51000000D03*
%TD*%
%TO.P,D2,1,K*%
%TO.N,GND*%
X87000000Y-51000000D03*
%TO.P,D2,2,A*%
%TO.N,Net-(D2-A)*%
X89000000Y-51000000D03*
%TD*%
%TO.P,R1,1*%
%TO.N,Net-(U1-PA3)*%
X82000000Y-73000000D03*
%TO.P,R1,2*%
%TO.N,Net-(D1-A)*%
X80000000Y-73000000D03*
%TD*%
%TO.P,D1,1,K*%
%TO.N,GND*%
X80000000Y-51000000D03*
%TO.P,D1,2,A*%
%TO.N,Net-(D1-A)*%
X82000000Y-51000000D03*
%TD*%
D11*
%TO.N,GND*%
X115600000Y-50400000D03*
X116800000Y-50400000D03*
X116200000Y-49400000D03*
X39000000Y-77200000D03*
X40200000Y-77200000D03*
X39600000Y-76200000D03*
X38800000Y-30600000D03*
X40000000Y-30600000D03*
X39400000Y-29600000D03*
X95000000Y-30800000D03*
X96200000Y-30800000D03*
X95600000Y-29800000D03*
X122800000Y-57400000D03*
X124000000Y-57400000D03*
X123400000Y-56400000D03*
X121200000Y-75800000D03*
X120600000Y-76800000D03*
X121800000Y-76800000D03*
X118188385Y-65414285D03*
X118000000Y-60400000D03*
X116600000Y-60400000D03*
X111000000Y-48200000D03*
X112800000Y-54600000D03*
%TO.N,/3V3_SUPPLY*%
X101600000Y-67000000D03*
X110000000Y-60400000D03*
%TO.N,Net-(U1-PB1)*%
X118850500Y-64600000D03*
%TD*%
D12*
%TO.N,Net-(U1-PB1)*%
X56600000Y-76000000D02*
X54800000Y-76000000D01*
X57200000Y-76600000D02*
X56600000Y-76000000D01*
X57200000Y-77800000D02*
X57200000Y-76600000D01*
X57800000Y-78400000D02*
X57200000Y-77800000D01*
X124200000Y-76800000D02*
X122600000Y-78400000D01*
X119315500Y-65065000D02*
X122665000Y-65065000D01*
X122600000Y-78400000D02*
X57800000Y-78400000D01*
X118850500Y-64600000D02*
X119315500Y-65065000D01*
X124200000Y-66600000D02*
X124200000Y-76800000D01*
X122665000Y-65065000D02*
X124200000Y-66600000D01*
%TO.N,/3V3_SUPPLY*%
X101600000Y-61000000D02*
X101600000Y-67000000D01*
X102200000Y-60400000D02*
X101600000Y-61000000D01*
X110000000Y-60400000D02*
X102200000Y-60400000D01*
%TO.N,Net-(U1-PB1)*%
X54800000Y-76200000D02*
X54600000Y-76400000D01*
X54800000Y-76000000D02*
X54800000Y-76200000D01*
X54800000Y-75800000D02*
X54600000Y-75600000D01*
X54800000Y-76000000D02*
X54800000Y-75800000D01*
X54800000Y-76000000D02*
X54150000Y-76000000D01*
%TD*%
%TA.AperFunction,Conductor*%
%TO.N,GND*%
G36*
X95996353Y-29009027D02*
G01*
X96036035Y-29034793D01*
X96128429Y-29124000D01*
X124962130Y-56963436D01*
X124990140Y-57004186D01*
X125000000Y-57052642D01*
X125000000Y-66212776D01*
X124984662Y-66272514D01*
X124942442Y-66317473D01*
X124883786Y-66336531D01*
X124823203Y-66324974D01*
X124775682Y-66285661D01*
X124747738Y-66247199D01*
X124741325Y-66237436D01*
X124718084Y-66198138D01*
X124718081Y-66198135D01*
X124703068Y-66183122D01*
X124690435Y-66168330D01*
X124677963Y-66151163D01*
X124642779Y-66122056D01*
X124634140Y-66114194D01*
X123185434Y-64665488D01*
X123172091Y-64648833D01*
X123119166Y-64599134D01*
X123116369Y-64596423D01*
X123096034Y-64576088D01*
X123092547Y-64573383D01*
X123083671Y-64565801D01*
X123050394Y-64534552D01*
X123031793Y-64524326D01*
X123015532Y-64513645D01*
X122998764Y-64500638D01*
X122956870Y-64482508D01*
X122946379Y-64477369D01*
X122906367Y-64455372D01*
X122885800Y-64450091D01*
X122867398Y-64443791D01*
X122847924Y-64435364D01*
X122802837Y-64428223D01*
X122791398Y-64425854D01*
X122747178Y-64414500D01*
X122747177Y-64414500D01*
X122725955Y-64414500D01*
X122706556Y-64412973D01*
X122685596Y-64409653D01*
X122685595Y-64409653D01*
X122663558Y-64411736D01*
X122640139Y-64413950D01*
X122628470Y-64414500D01*
X119827161Y-64414500D01*
X119776726Y-64403780D01*
X119735011Y-64373472D01*
X119709230Y-64328818D01*
X119677679Y-64231715D01*
X119583033Y-64067783D01*
X119456370Y-63927110D01*
X119303230Y-63815848D01*
X119130302Y-63738855D01*
X118945148Y-63699500D01*
X118945146Y-63699500D01*
X118755854Y-63699500D01*
X118755852Y-63699500D01*
X118570697Y-63738855D01*
X118397769Y-63815848D01*
X118244629Y-63927110D01*
X118117966Y-64067783D01*
X118023320Y-64231715D01*
X117964826Y-64411742D01*
X117945040Y-64599999D01*
X117964826Y-64788257D01*
X118023320Y-64968284D01*
X118117966Y-65132216D01*
X118244629Y-65272889D01*
X118397769Y-65384151D01*
X118570697Y-65461144D01*
X118755852Y-65500500D01*
X118755854Y-65500500D01*
X118779692Y-65500500D01*
X118827146Y-65509939D01*
X118867375Y-65536820D01*
X118884465Y-65553911D01*
X118887942Y-65556608D01*
X118896825Y-65564194D01*
X118930107Y-65595448D01*
X118940751Y-65601299D01*
X118948704Y-65605672D01*
X118964964Y-65616352D01*
X118981736Y-65629362D01*
X119023640Y-65647495D01*
X119034120Y-65652629D01*
X119074132Y-65674627D01*
X119094695Y-65679906D01*
X119113098Y-65686207D01*
X119132573Y-65694635D01*
X119177675Y-65701778D01*
X119189070Y-65704137D01*
X119233323Y-65715500D01*
X119254551Y-65715500D01*
X119273949Y-65717026D01*
X119294905Y-65720346D01*
X119340351Y-65716050D01*
X119352021Y-65715500D01*
X122344192Y-65715500D01*
X122391645Y-65724939D01*
X122431873Y-65751819D01*
X123513181Y-66833126D01*
X123540061Y-66873354D01*
X123549500Y-66920807D01*
X123549500Y-76479192D01*
X123540061Y-76526645D01*
X123513181Y-76566873D01*
X122366873Y-77713181D01*
X122326645Y-77740061D01*
X122279192Y-77749500D01*
X58120808Y-77749500D01*
X58073355Y-77740061D01*
X58033127Y-77713181D01*
X57886819Y-77566873D01*
X57859939Y-77526645D01*
X57850500Y-77479192D01*
X57850500Y-76685504D01*
X57852841Y-76664294D01*
X57852704Y-76659939D01*
X57850560Y-76591736D01*
X57850500Y-76587842D01*
X57850500Y-76559081D01*
X57850500Y-76559075D01*
X57849946Y-76554695D01*
X57849030Y-76543054D01*
X57847597Y-76497431D01*
X57841675Y-76477048D01*
X57837732Y-76458011D01*
X57835071Y-76436942D01*
X57818264Y-76394492D01*
X57814483Y-76383448D01*
X57801745Y-76339604D01*
X57801744Y-76339603D01*
X57801744Y-76339601D01*
X57790934Y-76321322D01*
X57782380Y-76303862D01*
X57774568Y-76284129D01*
X57747723Y-76247180D01*
X57741332Y-76237451D01*
X57718081Y-76198135D01*
X57703068Y-76183122D01*
X57690435Y-76168330D01*
X57677963Y-76151163D01*
X57642779Y-76122056D01*
X57634140Y-76114194D01*
X57120434Y-75600488D01*
X57107091Y-75583833D01*
X57054166Y-75534134D01*
X57051369Y-75531423D01*
X57031034Y-75511088D01*
X57027547Y-75508383D01*
X57018671Y-75500801D01*
X56985394Y-75469552D01*
X56966793Y-75459326D01*
X56950532Y-75448645D01*
X56933764Y-75435638D01*
X56891870Y-75417508D01*
X56881379Y-75412369D01*
X56841367Y-75390372D01*
X56820800Y-75385091D01*
X56802398Y-75378791D01*
X56782924Y-75370364D01*
X56737837Y-75363223D01*
X56726398Y-75360854D01*
X56682178Y-75349500D01*
X56682177Y-75349500D01*
X56660955Y-75349500D01*
X56641556Y-75347973D01*
X56620596Y-75344653D01*
X56620595Y-75344653D01*
X56598558Y-75346736D01*
X56575139Y-75348950D01*
X56563470Y-75349500D01*
X55320808Y-75349500D01*
X55273355Y-75340061D01*
X55233127Y-75313181D01*
X55031039Y-75111092D01*
X54933764Y-75035638D01*
X54782924Y-74970364D01*
X54716580Y-74959856D01*
X54664857Y-74938959D01*
X54627639Y-74912898D01*
X54536205Y-74870261D01*
X54429331Y-74820425D01*
X54217974Y-74763792D01*
X54000000Y-74744722D01*
X53782025Y-74763792D01*
X53570668Y-74820425D01*
X53372361Y-74912898D01*
X53193122Y-75038402D01*
X53087681Y-75143844D01*
X53032094Y-75175938D01*
X52967906Y-75175938D01*
X52912319Y-75143844D01*
X52806880Y-75038405D01*
X52806877Y-75038402D01*
X52627639Y-74912898D01*
X52536205Y-74870261D01*
X52429331Y-74820425D01*
X52217974Y-74763792D01*
X52000000Y-74744722D01*
X51782025Y-74763792D01*
X51570668Y-74820425D01*
X51372361Y-74912898D01*
X51193122Y-75038402D01*
X51038402Y-75193122D01*
X50912898Y-75372361D01*
X50820425Y-75570668D01*
X50763792Y-75782025D01*
X50744722Y-75999999D01*
X50763792Y-76217974D01*
X50820425Y-76429331D01*
X50870261Y-76536205D01*
X50912898Y-76627639D01*
X51038402Y-76806877D01*
X51193123Y-76961598D01*
X51372361Y-77087102D01*
X51570670Y-77179575D01*
X51782023Y-77236207D01*
X52000000Y-77255277D01*
X52217977Y-77236207D01*
X52429330Y-77179575D01*
X52627639Y-77087102D01*
X52806877Y-76961598D01*
X52912318Y-76856156D01*
X52967906Y-76824062D01*
X53032094Y-76824062D01*
X53087681Y-76856156D01*
X53193123Y-76961598D01*
X53372361Y-77087102D01*
X53570670Y-77179575D01*
X53782023Y-77236207D01*
X54000000Y-77255277D01*
X54217977Y-77236207D01*
X54429330Y-77179575D01*
X54627639Y-77087102D01*
X54654116Y-77068561D01*
X54690643Y-77051061D01*
X54702565Y-77047597D01*
X54702569Y-77047597D01*
X54860398Y-77001744D01*
X55001865Y-76918081D01*
X55199518Y-76720426D01*
X55216163Y-76707093D01*
X55217937Y-76705203D01*
X55217940Y-76705202D01*
X55232574Y-76689617D01*
X55273721Y-76660699D01*
X55322968Y-76650500D01*
X56279192Y-76650500D01*
X56326645Y-76659939D01*
X56366873Y-76686819D01*
X56513181Y-76833127D01*
X56540061Y-76873355D01*
X56549500Y-76920808D01*
X56549500Y-77714495D01*
X56547158Y-77735704D01*
X56549439Y-77808262D01*
X56549500Y-77812157D01*
X56549500Y-77840926D01*
X56550053Y-77845307D01*
X56550968Y-77856938D01*
X56551445Y-77872101D01*
X56536169Y-77935735D01*
X56490628Y-77982731D01*
X56427506Y-78000000D01*
X38124000Y-78000000D01*
X38062000Y-77983387D01*
X38016613Y-77938000D01*
X38000000Y-77876000D01*
X38000000Y-73431755D01*
X40399500Y-73431755D01*
X40419126Y-73492159D01*
X40419127Y-73492160D01*
X40456458Y-73543542D01*
X40507840Y-73580873D01*
X40568244Y-73600500D01*
X40599901Y-73600500D01*
X40600000Y-73600500D01*
X40600500Y-73600500D01*
X49399500Y-73600500D01*
X49400099Y-73600500D01*
X49431755Y-73600500D01*
X49431756Y-73600500D01*
X49492160Y-73580873D01*
X49543542Y-73543542D01*
X49580873Y-73492160D01*
X49600500Y-73431756D01*
X49600500Y-73400000D01*
X49600500Y-73399500D01*
X49600500Y-72999999D01*
X57744722Y-72999999D01*
X57763792Y-73217974D01*
X57820425Y-73429331D01*
X57849723Y-73492160D01*
X57912898Y-73627639D01*
X58038402Y-73806877D01*
X58193123Y-73961598D01*
X58372361Y-74087102D01*
X58570670Y-74179575D01*
X58782023Y-74236207D01*
X59000000Y-74255277D01*
X59217977Y-74236207D01*
X59429330Y-74179575D01*
X59627639Y-74087102D01*
X59806877Y-73961598D01*
X59912321Y-73856153D01*
X59967905Y-73824062D01*
X60032092Y-73824062D01*
X60087680Y-73856155D01*
X60193123Y-73961598D01*
X60372361Y-74087102D01*
X60570670Y-74179575D01*
X60782023Y-74236207D01*
X61000000Y-74255277D01*
X61217977Y-74236207D01*
X61429330Y-74179575D01*
X61627639Y-74087102D01*
X61806877Y-73961598D01*
X61961598Y-73806877D01*
X62087102Y-73627639D01*
X62179575Y-73429330D01*
X62236207Y-73217977D01*
X62255277Y-73000000D01*
X62255277Y-72999999D01*
X64744722Y-72999999D01*
X64763792Y-73217974D01*
X64820425Y-73429331D01*
X64849723Y-73492160D01*
X64912898Y-73627639D01*
X65038402Y-73806877D01*
X65193123Y-73961598D01*
X65372361Y-74087102D01*
X65570670Y-74179575D01*
X65782023Y-74236207D01*
X66000000Y-74255277D01*
X66217977Y-74236207D01*
X66429330Y-74179575D01*
X66627639Y-74087102D01*
X66806877Y-73961598D01*
X66912321Y-73856153D01*
X66967905Y-73824062D01*
X67032092Y-73824062D01*
X67087680Y-73856155D01*
X67193123Y-73961598D01*
X67372361Y-74087102D01*
X67570670Y-74179575D01*
X67782023Y-74236207D01*
X68000000Y-74255277D01*
X68217977Y-74236207D01*
X68429330Y-74179575D01*
X68627639Y-74087102D01*
X68806877Y-73961598D01*
X68961598Y-73806877D01*
X69087102Y-73627639D01*
X69179575Y-73429330D01*
X69236207Y-73217977D01*
X69255277Y-73000000D01*
X69255277Y-72999999D01*
X71744722Y-72999999D01*
X71763792Y-73217974D01*
X71820425Y-73429331D01*
X71849723Y-73492160D01*
X71912898Y-73627639D01*
X72038402Y-73806877D01*
X72193123Y-73961598D01*
X72372361Y-74087102D01*
X72570670Y-74179575D01*
X72782023Y-74236207D01*
X73000000Y-74255277D01*
X73217977Y-74236207D01*
X73429330Y-74179575D01*
X73627639Y-74087102D01*
X73806877Y-73961598D01*
X73912321Y-73856153D01*
X73967905Y-73824062D01*
X74032092Y-73824062D01*
X74087680Y-73856155D01*
X74193123Y-73961598D01*
X74372361Y-74087102D01*
X74570670Y-74179575D01*
X74782023Y-74236207D01*
X75000000Y-74255277D01*
X75217977Y-74236207D01*
X75429330Y-74179575D01*
X75627639Y-74087102D01*
X75806877Y-73961598D01*
X75961598Y-73806877D01*
X76087102Y-73627639D01*
X76179575Y-73429330D01*
X76236207Y-73217977D01*
X76255277Y-73000000D01*
X78744722Y-73000000D01*
X78763792Y-73217974D01*
X78820425Y-73429331D01*
X78849723Y-73492160D01*
X78912898Y-73627639D01*
X79038402Y-73806877D01*
X79193123Y-73961598D01*
X79372361Y-74087102D01*
X79570670Y-74179575D01*
X79782023Y-74236207D01*
X80000000Y-74255277D01*
X80217977Y-74236207D01*
X80429330Y-74179575D01*
X80627639Y-74087102D01*
X80806877Y-73961598D01*
X80912321Y-73856153D01*
X80967905Y-73824062D01*
X81032092Y-73824062D01*
X81087680Y-73856155D01*
X81193123Y-73961598D01*
X81372361Y-74087102D01*
X81570670Y-74179575D01*
X81782023Y-74236207D01*
X82000000Y-74255277D01*
X82217977Y-74236207D01*
X82429330Y-74179575D01*
X82627639Y-74087102D01*
X82806877Y-73961598D01*
X82961598Y-73806877D01*
X83087102Y-73627639D01*
X83179575Y-73429330D01*
X83236207Y-73217977D01*
X83255277Y-73000000D01*
X85744722Y-73000000D01*
X85763792Y-73217974D01*
X85820425Y-73429331D01*
X85849723Y-73492160D01*
X85912898Y-73627639D01*
X86038402Y-73806877D01*
X86193123Y-73961598D01*
X86372361Y-74087102D01*
X86570670Y-74179575D01*
X86782023Y-74236207D01*
X87000000Y-74255277D01*
X87217977Y-74236207D01*
X87429330Y-74179575D01*
X87627639Y-74087102D01*
X87806877Y-73961598D01*
X87912321Y-73856153D01*
X87967905Y-73824062D01*
X88032092Y-73824062D01*
X88087680Y-73856155D01*
X88193123Y-73961598D01*
X88372361Y-74087102D01*
X88570670Y-74179575D01*
X88782023Y-74236207D01*
X89000000Y-74255277D01*
X89217977Y-74236207D01*
X89429330Y-74179575D01*
X89627639Y-74087102D01*
X89806877Y-73961598D01*
X89961598Y-73806877D01*
X90087102Y-73627639D01*
X90179575Y-73429330D01*
X90236207Y-73217977D01*
X90255277Y-73000000D01*
X90236207Y-72782023D01*
X90179575Y-72570670D01*
X90087102Y-72372362D01*
X89961598Y-72193123D01*
X89806877Y-72038402D01*
X89627639Y-71912898D01*
X89536205Y-71870261D01*
X89429331Y-71820425D01*
X89217974Y-71763792D01*
X88999999Y-71744722D01*
X88782025Y-71763792D01*
X88570668Y-71820425D01*
X88372361Y-71912898D01*
X88193122Y-72038402D01*
X88087681Y-72143844D01*
X88032094Y-72175938D01*
X87967906Y-72175938D01*
X87912319Y-72143844D01*
X87806880Y-72038405D01*
X87806879Y-72038404D01*
X87806877Y-72038402D01*
X87627639Y-71912898D01*
X87536205Y-71870261D01*
X87429331Y-71820425D01*
X87217974Y-71763792D01*
X86999999Y-71744722D01*
X86782025Y-71763792D01*
X86570668Y-71820425D01*
X86372361Y-71912898D01*
X86193122Y-72038402D01*
X86038402Y-72193122D01*
X85912898Y-72372361D01*
X85820425Y-72570668D01*
X85763792Y-72782025D01*
X85744722Y-73000000D01*
X83255277Y-73000000D01*
X83236207Y-72782023D01*
X83179575Y-72570670D01*
X83087102Y-72372362D01*
X82961598Y-72193123D01*
X82806877Y-72038402D01*
X82627639Y-71912898D01*
X82536205Y-71870261D01*
X82429331Y-71820425D01*
X82217974Y-71763792D01*
X81999999Y-71744722D01*
X81782025Y-71763792D01*
X81570668Y-71820425D01*
X81372361Y-71912898D01*
X81193122Y-72038402D01*
X81087681Y-72143844D01*
X81032094Y-72175938D01*
X80967906Y-72175938D01*
X80912319Y-72143844D01*
X80806880Y-72038405D01*
X80806879Y-72038404D01*
X80806877Y-72038402D01*
X80627639Y-71912898D01*
X80536205Y-71870261D01*
X80429331Y-71820425D01*
X80217974Y-71763792D01*
X79999999Y-71744722D01*
X79782025Y-71763792D01*
X79570668Y-71820425D01*
X79372361Y-71912898D01*
X79193122Y-72038402D01*
X79038402Y-72193122D01*
X78912898Y-72372361D01*
X78820425Y-72570668D01*
X78763792Y-72782025D01*
X78744722Y-73000000D01*
X76255277Y-73000000D01*
X76236207Y-72782023D01*
X76179575Y-72570670D01*
X76087102Y-72372362D01*
X75961598Y-72193123D01*
X75806877Y-72038402D01*
X75627639Y-71912898D01*
X75536205Y-71870261D01*
X75429331Y-71820425D01*
X75217974Y-71763792D01*
X74999999Y-71744722D01*
X74782025Y-71763792D01*
X74570668Y-71820425D01*
X74372361Y-71912898D01*
X74193122Y-72038402D01*
X74087681Y-72143844D01*
X74032094Y-72175938D01*
X73967906Y-72175938D01*
X73912319Y-72143844D01*
X73806880Y-72038405D01*
X73806879Y-72038404D01*
X73806877Y-72038402D01*
X73627639Y-71912898D01*
X73536205Y-71870261D01*
X73429331Y-71820425D01*
X73217974Y-71763792D01*
X72999999Y-71744722D01*
X72782025Y-71763792D01*
X72570668Y-71820425D01*
X72372361Y-71912898D01*
X72193122Y-72038402D01*
X72038402Y-72193122D01*
X71912898Y-72372361D01*
X71820425Y-72570668D01*
X71763792Y-72782025D01*
X71744722Y-72999999D01*
X69255277Y-72999999D01*
X69236207Y-72782023D01*
X69179575Y-72570670D01*
X69087102Y-72372362D01*
X68961598Y-72193123D01*
X68806877Y-72038402D01*
X68627639Y-71912898D01*
X68536205Y-71870261D01*
X68429331Y-71820425D01*
X68217974Y-71763792D01*
X67999999Y-71744722D01*
X67782025Y-71763792D01*
X67570668Y-71820425D01*
X67372361Y-71912898D01*
X67193121Y-72038403D01*
X67087679Y-72143844D01*
X67032092Y-72175937D01*
X66967905Y-72175937D01*
X66912318Y-72143843D01*
X66806880Y-72038405D01*
X66806879Y-72038404D01*
X66806877Y-72038402D01*
X66627639Y-71912898D01*
X66536205Y-71870261D01*
X66429331Y-71820425D01*
X66217974Y-71763792D01*
X65999999Y-71744722D01*
X65782025Y-71763792D01*
X65570668Y-71820425D01*
X65372361Y-71912898D01*
X65193122Y-72038402D01*
X65038402Y-72193122D01*
X64912898Y-72372361D01*
X64820425Y-72570668D01*
X64763792Y-72782025D01*
X64744722Y-72999999D01*
X62255277Y-72999999D01*
X62236207Y-72782023D01*
X62179575Y-72570670D01*
X62087102Y-72372362D01*
X61961598Y-72193123D01*
X61806877Y-72038402D01*
X61627639Y-71912898D01*
X61536205Y-71870261D01*
X61429331Y-71820425D01*
X61217974Y-71763792D01*
X60999999Y-71744722D01*
X60782025Y-71763792D01*
X60570668Y-71820425D01*
X60372361Y-71912898D01*
X60193121Y-72038403D01*
X60087679Y-72143844D01*
X60032092Y-72175937D01*
X59967905Y-72175937D01*
X59912318Y-72143843D01*
X59806880Y-72038405D01*
X59806879Y-72038404D01*
X59806877Y-72038402D01*
X59627639Y-71912898D01*
X59536205Y-71870261D01*
X59429331Y-71820425D01*
X59217974Y-71763792D01*
X58999999Y-71744722D01*
X58782025Y-71763792D01*
X58570668Y-71820425D01*
X58372361Y-71912898D01*
X58193122Y-72038402D01*
X58038402Y-72193122D01*
X57912898Y-72372361D01*
X57820425Y-72570668D01*
X57763792Y-72782025D01*
X57744722Y-72999999D01*
X49600500Y-72999999D01*
X49600500Y-69596394D01*
X109249500Y-69596394D01*
X109274596Y-69706350D01*
X109323532Y-69807967D01*
X109358196Y-69851433D01*
X109393854Y-69896146D01*
X109436964Y-69930525D01*
X109482032Y-69966467D01*
X109583649Y-70015403D01*
X109693606Y-70040500D01*
X109693607Y-70040500D01*
X109749901Y-70040500D01*
X109750000Y-70040500D01*
X109750500Y-70040500D01*
X114249500Y-70040500D01*
X114250099Y-70040500D01*
X114306393Y-70040500D01*
X114306394Y-70040500D01*
X114365646Y-70026976D01*
X114416351Y-70015403D01*
X114517967Y-69966467D01*
X114606146Y-69896146D01*
X114676467Y-69807967D01*
X114725403Y-69706351D01*
X114750500Y-69596393D01*
X114750500Y-69540000D01*
X114750500Y-69539500D01*
X114750500Y-62539901D01*
X114750500Y-62483607D01*
X114750301Y-62482737D01*
X114725403Y-62373649D01*
X114676467Y-62272032D01*
X114641804Y-62228567D01*
X114606146Y-62183854D01*
X114567023Y-62152654D01*
X114517967Y-62113532D01*
X114416350Y-62064596D01*
X114306394Y-62039500D01*
X114306393Y-62039500D01*
X114250099Y-62039500D01*
X109750500Y-62039500D01*
X109750000Y-62039500D01*
X109693607Y-62039500D01*
X109693606Y-62039500D01*
X109583649Y-62064596D01*
X109482032Y-62113532D01*
X109393854Y-62183854D01*
X109323532Y-62272032D01*
X109274596Y-62373649D01*
X109249500Y-62483606D01*
X109249500Y-69596394D01*
X49600500Y-69596394D01*
X49600500Y-67000000D01*
X100694540Y-67000000D01*
X100714326Y-67188257D01*
X100772820Y-67368284D01*
X100867466Y-67532216D01*
X100994129Y-67672889D01*
X101147269Y-67784151D01*
X101320197Y-67861144D01*
X101505352Y-67900500D01*
X101505354Y-67900500D01*
X101694646Y-67900500D01*
X101694648Y-67900500D01*
X101818084Y-67874262D01*
X101879803Y-67861144D01*
X102052730Y-67784151D01*
X102205871Y-67672888D01*
X102332533Y-67532216D01*
X102427179Y-67368284D01*
X102485674Y-67188256D01*
X102505460Y-67000000D01*
X102485674Y-66811744D01*
X102427179Y-66631716D01*
X102427179Y-66631715D01*
X102332535Y-66467786D01*
X102323002Y-66457199D01*
X102282348Y-66412048D01*
X102258736Y-66373516D01*
X102250500Y-66329078D01*
X102250500Y-61320808D01*
X102259939Y-61273355D01*
X102286819Y-61233127D01*
X102433127Y-61086819D01*
X102473355Y-61059939D01*
X102520808Y-61050500D01*
X109323025Y-61050500D01*
X109361343Y-61056569D01*
X109395907Y-61074180D01*
X109547270Y-61184151D01*
X109547271Y-61184151D01*
X109547272Y-61184152D01*
X109720197Y-61261144D01*
X109905352Y-61300500D01*
X109905354Y-61300500D01*
X110094646Y-61300500D01*
X110094648Y-61300500D01*
X110222354Y-61273355D01*
X110279803Y-61261144D01*
X110452730Y-61184151D01*
X110605871Y-61072888D01*
X110732533Y-60932216D01*
X110827179Y-60768284D01*
X110885674Y-60588256D01*
X110905460Y-60400000D01*
X110885674Y-60211744D01*
X110827179Y-60031716D01*
X110827179Y-60031715D01*
X110732533Y-59867783D01*
X110605870Y-59727110D01*
X110490272Y-59643124D01*
X115910426Y-59643124D01*
X115910427Y-59643125D01*
X115972610Y-59686666D01*
X116170840Y-59779102D01*
X116382113Y-59835712D01*
X116600000Y-59854775D01*
X116817886Y-59835712D01*
X117029159Y-59779102D01*
X117227385Y-59686667D01*
X117289572Y-59643124D01*
X116600001Y-58953553D01*
X116600000Y-58953553D01*
X115910426Y-59643124D01*
X110490272Y-59643124D01*
X110452730Y-59615848D01*
X110279801Y-59538854D01*
X110279714Y-59538836D01*
X110279266Y-59538616D01*
X110267896Y-59533554D01*
X110268084Y-59533131D01*
X110225378Y-59512185D01*
X110190128Y-59462990D01*
X110186086Y-59431755D01*
X111249500Y-59431755D01*
X111269126Y-59492159D01*
X111269127Y-59492160D01*
X111306458Y-59543542D01*
X111357840Y-59580873D01*
X111418244Y-59600500D01*
X111449901Y-59600500D01*
X111450000Y-59600500D01*
X111450500Y-59600500D01*
X114249500Y-59600500D01*
X114250099Y-59600500D01*
X114281755Y-59600500D01*
X114281756Y-59600500D01*
X114342160Y-59580873D01*
X114393542Y-59543542D01*
X114430873Y-59492160D01*
X114450500Y-59431756D01*
X114450500Y-59400000D01*
X114450500Y-59399500D01*
X114450500Y-57399901D01*
X114450500Y-57368244D01*
X114430873Y-57307840D01*
X114393542Y-57256458D01*
X114342160Y-57219127D01*
X114342159Y-57219126D01*
X114301382Y-57205877D01*
X114281756Y-57199500D01*
X114250099Y-57199500D01*
X111450500Y-57199500D01*
X111450000Y-57199500D01*
X111418244Y-57199500D01*
X111403431Y-57204313D01*
X111357840Y-57219126D01*
X111306458Y-57256458D01*
X111269126Y-57307840D01*
X111249500Y-57368245D01*
X111249500Y-59431755D01*
X110186086Y-59431755D01*
X110182361Y-59402970D01*
X110203925Y-59346427D01*
X110287102Y-59227639D01*
X110379575Y-59029330D01*
X110436207Y-58817977D01*
X110455277Y-58600000D01*
X110436207Y-58382023D01*
X110379575Y-58170670D01*
X110287102Y-57972362D01*
X110161598Y-57793123D01*
X110006877Y-57638402D01*
X109883374Y-57551924D01*
X109844511Y-57507608D01*
X109830500Y-57450351D01*
X109830500Y-57176309D01*
X109844015Y-57120014D01*
X109881615Y-57075991D01*
X109935102Y-57053836D01*
X109992818Y-57058378D01*
X110042181Y-57088628D01*
X110243124Y-57289572D01*
X110286667Y-57227385D01*
X110379102Y-57029159D01*
X110435712Y-56817886D01*
X110454775Y-56600000D01*
X115344722Y-56600000D01*
X115363792Y-56817974D01*
X115420425Y-57029331D01*
X115431852Y-57053836D01*
X115512898Y-57227639D01*
X115638402Y-57406877D01*
X115793123Y-57561598D01*
X115916625Y-57648075D01*
X115955489Y-57692392D01*
X115969500Y-57749649D01*
X115969500Y-58023691D01*
X115955985Y-58079986D01*
X115918385Y-58124009D01*
X115864898Y-58146164D01*
X115807182Y-58141622D01*
X115757819Y-58111372D01*
X115556875Y-57910427D01*
X115556874Y-57910428D01*
X115513333Y-57972611D01*
X115420897Y-58170840D01*
X115364287Y-58382113D01*
X115345224Y-58599999D01*
X115364287Y-58817886D01*
X115420898Y-59029161D01*
X115513331Y-59227386D01*
X115556873Y-59289571D01*
X115556874Y-59289572D01*
X116209628Y-58636819D01*
X116249856Y-58609939D01*
X116297309Y-58600500D01*
X116902691Y-58600500D01*
X116950144Y-58609939D01*
X116990372Y-58636819D01*
X117643124Y-59289572D01*
X117686667Y-59227385D01*
X117779102Y-59029159D01*
X117835712Y-58817886D01*
X117854775Y-58599999D01*
X117835712Y-58382113D01*
X117779102Y-58170840D01*
X117686667Y-57972615D01*
X117643123Y-57910428D01*
X117452181Y-58101372D01*
X117402818Y-58131622D01*
X117345102Y-58136164D01*
X117291615Y-58114009D01*
X117254015Y-58069986D01*
X117240500Y-58013691D01*
X117240500Y-57742647D01*
X117254511Y-57685390D01*
X117293374Y-57641073D01*
X117406877Y-57561598D01*
X117561598Y-57406877D01*
X117687102Y-57227639D01*
X117779575Y-57029330D01*
X117836207Y-56817977D01*
X117855277Y-56600000D01*
X117836207Y-56382023D01*
X117779575Y-56170670D01*
X117687102Y-55972362D01*
X117561598Y-55793123D01*
X117406877Y-55638402D01*
X117227639Y-55512898D01*
X117136205Y-55470261D01*
X117029331Y-55420425D01*
X116817974Y-55363792D01*
X116600000Y-55344722D01*
X116382025Y-55363792D01*
X116170668Y-55420425D01*
X115972361Y-55512898D01*
X115793122Y-55638402D01*
X115638402Y-55793122D01*
X115512898Y-55972361D01*
X115420425Y-56170668D01*
X115363792Y-56382025D01*
X115344722Y-56600000D01*
X110454775Y-56600000D01*
X110435712Y-56382113D01*
X110379102Y-56170840D01*
X110286667Y-55972615D01*
X110243123Y-55910428D01*
X109590372Y-56563181D01*
X109550144Y-56590061D01*
X109502691Y-56599500D01*
X108897309Y-56599500D01*
X108849856Y-56590061D01*
X108809628Y-56563181D01*
X108156875Y-55910427D01*
X108156874Y-55910428D01*
X108113333Y-55972611D01*
X108020897Y-56170840D01*
X107964287Y-56382113D01*
X107945224Y-56600000D01*
X107964287Y-56817886D01*
X108020898Y-57029161D01*
X108113331Y-57227386D01*
X108156873Y-57289571D01*
X108156874Y-57289572D01*
X108347819Y-57098628D01*
X108397182Y-57068378D01*
X108454898Y-57063836D01*
X108508385Y-57085991D01*
X108545985Y-57130014D01*
X108559500Y-57186309D01*
X108559500Y-57457354D01*
X108545489Y-57514611D01*
X108506623Y-57558929D01*
X108393122Y-57638402D01*
X108238402Y-57793122D01*
X108112898Y-57972361D01*
X108020425Y-58170668D01*
X107963792Y-58382025D01*
X107944722Y-58600000D01*
X107963792Y-58817974D01*
X108020379Y-59029161D01*
X108020425Y-59029330D01*
X108112898Y-59227639D01*
X108238402Y-59406877D01*
X108238405Y-59406879D01*
X108238405Y-59406880D01*
X108369344Y-59537819D01*
X108399594Y-59587182D01*
X108404136Y-59644898D01*
X108381981Y-59698385D01*
X108337958Y-59735985D01*
X108281663Y-59749500D01*
X102285504Y-59749500D01*
X102264294Y-59747158D01*
X102191737Y-59749439D01*
X102187842Y-59749500D01*
X102159071Y-59749500D01*
X102154690Y-59750053D01*
X102143059Y-59750968D01*
X102097428Y-59752402D01*
X102077052Y-59758322D01*
X102058006Y-59762267D01*
X102036939Y-59764928D01*
X101994492Y-59781734D01*
X101983445Y-59785516D01*
X101939601Y-59798255D01*
X101921330Y-59809060D01*
X101903864Y-59817617D01*
X101884129Y-59825431D01*
X101847202Y-59852260D01*
X101837442Y-59858671D01*
X101798136Y-59881917D01*
X101783125Y-59896928D01*
X101768336Y-59909558D01*
X101751164Y-59922034D01*
X101722057Y-59957218D01*
X101714196Y-59965856D01*
X101200484Y-60479568D01*
X101183831Y-60492910D01*
X101134133Y-60545833D01*
X101131427Y-60548626D01*
X101111083Y-60568971D01*
X101108376Y-60572460D01*
X101100807Y-60581321D01*
X101069551Y-60614607D01*
X101059322Y-60633212D01*
X101048645Y-60649467D01*
X101035636Y-60666238D01*
X101017506Y-60708132D01*
X101012370Y-60718616D01*
X100990372Y-60758632D01*
X100985091Y-60779199D01*
X100978791Y-60797600D01*
X100970364Y-60817074D01*
X100963223Y-60862161D01*
X100960855Y-60873598D01*
X100949500Y-60917824D01*
X100949500Y-60939045D01*
X100947973Y-60958444D01*
X100944653Y-60979403D01*
X100948950Y-61024861D01*
X100949500Y-61036530D01*
X100949500Y-66329078D01*
X100941264Y-66373516D01*
X100917651Y-66412048D01*
X100896840Y-66435161D01*
X100867464Y-66467786D01*
X100772820Y-66631715D01*
X100714326Y-66811742D01*
X100694540Y-67000000D01*
X49600500Y-67000000D01*
X49600500Y-62599901D01*
X49600500Y-62568244D01*
X49580873Y-62507840D01*
X49543542Y-62456458D01*
X49492160Y-62419127D01*
X49492159Y-62419126D01*
X49451382Y-62405877D01*
X49431756Y-62399500D01*
X49400099Y-62399500D01*
X40600500Y-62399500D01*
X40600000Y-62399500D01*
X40568244Y-62399500D01*
X40553431Y-62404313D01*
X40507840Y-62419126D01*
X40456458Y-62456458D01*
X40419126Y-62507840D01*
X40399500Y-62568245D01*
X40399500Y-73431755D01*
X38000000Y-73431755D01*
X38000000Y-55556875D01*
X108510427Y-55556875D01*
X109200000Y-56246447D01*
X109200001Y-56246447D01*
X109889572Y-55556875D01*
X109889571Y-55556873D01*
X109827386Y-55513331D01*
X109629161Y-55420898D01*
X109417886Y-55364287D01*
X109200000Y-55345224D01*
X108982113Y-55364287D01*
X108770840Y-55420897D01*
X108572611Y-55513333D01*
X108510428Y-55556874D01*
X108510427Y-55556875D01*
X38000000Y-55556875D01*
X38000000Y-52043124D01*
X58310426Y-52043124D01*
X58310427Y-52043125D01*
X58372610Y-52086666D01*
X58570840Y-52179102D01*
X58782113Y-52235712D01*
X59000000Y-52254775D01*
X59217886Y-52235712D01*
X59429159Y-52179102D01*
X59627385Y-52086667D01*
X59689572Y-52043124D01*
X59488628Y-51842181D01*
X59458378Y-51792818D01*
X59453836Y-51735102D01*
X59475991Y-51681615D01*
X59520014Y-51644015D01*
X59576309Y-51630500D01*
X59850351Y-51630500D01*
X59907608Y-51644511D01*
X59951924Y-51683374D01*
X60038402Y-51806877D01*
X60193123Y-51961598D01*
X60372361Y-52087102D01*
X60570670Y-52179575D01*
X60782023Y-52236207D01*
X61000000Y-52255277D01*
X61217977Y-52236207D01*
X61429330Y-52179575D01*
X61627639Y-52087102D01*
X61690446Y-52043124D01*
X65310426Y-52043124D01*
X65310427Y-52043125D01*
X65372610Y-52086666D01*
X65570840Y-52179102D01*
X65782113Y-52235712D01*
X66000000Y-52254775D01*
X66217886Y-52235712D01*
X66429159Y-52179102D01*
X66627385Y-52086667D01*
X66689572Y-52043124D01*
X66488628Y-51842181D01*
X66458378Y-51792818D01*
X66453836Y-51735102D01*
X66475991Y-51681615D01*
X66520014Y-51644015D01*
X66576309Y-51630500D01*
X66850351Y-51630500D01*
X66907608Y-51644511D01*
X66951924Y-51683374D01*
X67038402Y-51806877D01*
X67193123Y-51961598D01*
X67372361Y-52087102D01*
X67570670Y-52179575D01*
X67782023Y-52236207D01*
X68000000Y-52255277D01*
X68217977Y-52236207D01*
X68429330Y-52179575D01*
X68627639Y-52087102D01*
X68690446Y-52043124D01*
X72310426Y-52043124D01*
X72310427Y-52043125D01*
X72372610Y-52086666D01*
X72570840Y-52179102D01*
X72782113Y-52235712D01*
X73000000Y-52254775D01*
X73217886Y-52235712D01*
X73429159Y-52179102D01*
X73627385Y-52086667D01*
X73689572Y-52043124D01*
X73488628Y-51842181D01*
X73458378Y-51792818D01*
X73453836Y-51735102D01*
X73475991Y-51681615D01*
X73520014Y-51644015D01*
X73576309Y-51630500D01*
X73850351Y-51630500D01*
X73907608Y-51644511D01*
X73951924Y-51683374D01*
X74038402Y-51806877D01*
X74193123Y-51961598D01*
X74372361Y-52087102D01*
X74570670Y-52179575D01*
X74782023Y-52236207D01*
X75000000Y-52255277D01*
X75217977Y-52236207D01*
X75429330Y-52179575D01*
X75627639Y-52087102D01*
X75690446Y-52043124D01*
X79310426Y-52043124D01*
X79310427Y-52043125D01*
X79372610Y-52086666D01*
X79570840Y-52179102D01*
X79782113Y-52235712D01*
X80000000Y-52254775D01*
X80217886Y-52235712D01*
X80429159Y-52179102D01*
X80627385Y-52086667D01*
X80689572Y-52043124D01*
X80488628Y-51842181D01*
X80458378Y-51792818D01*
X80453836Y-51735102D01*
X80475991Y-51681615D01*
X80520014Y-51644015D01*
X80576309Y-51630500D01*
X80850351Y-51630500D01*
X80907608Y-51644511D01*
X80951924Y-51683374D01*
X81038402Y-51806877D01*
X81193123Y-51961598D01*
X81372361Y-52087102D01*
X81570670Y-52179575D01*
X81782023Y-52236207D01*
X82000000Y-52255277D01*
X82217977Y-52236207D01*
X82429330Y-52179575D01*
X82627639Y-52087102D01*
X82690446Y-52043124D01*
X86310426Y-52043124D01*
X86310427Y-52043125D01*
X86372610Y-52086666D01*
X86570840Y-52179102D01*
X86782113Y-52235712D01*
X87000000Y-52254775D01*
X87217886Y-52235712D01*
X87429159Y-52179102D01*
X87627385Y-52086667D01*
X87689572Y-52043124D01*
X87488628Y-51842181D01*
X87458378Y-51792818D01*
X87453836Y-51735102D01*
X87475991Y-51681615D01*
X87520014Y-51644015D01*
X87576309Y-51630500D01*
X87850351Y-51630500D01*
X87907608Y-51644511D01*
X87951924Y-51683374D01*
X88038402Y-51806877D01*
X88193123Y-51961598D01*
X88372361Y-52087102D01*
X88570670Y-52179575D01*
X88782023Y-52236207D01*
X89000000Y-52255277D01*
X89217977Y-52236207D01*
X89429330Y-52179575D01*
X89627639Y-52087102D01*
X89806877Y-51961598D01*
X89961598Y-51806877D01*
X90087102Y-51627639D01*
X90179575Y-51429330D01*
X90236207Y-51217977D01*
X90255277Y-51000000D01*
X90236207Y-50782023D01*
X90179575Y-50570670D01*
X90087102Y-50372362D01*
X89961598Y-50193123D01*
X89806877Y-50038402D01*
X89627639Y-49912898D01*
X89536205Y-49870261D01*
X89429331Y-49820425D01*
X89217974Y-49763792D01*
X89000000Y-49744722D01*
X88782025Y-49763792D01*
X88570668Y-49820425D01*
X88372361Y-49912898D01*
X88193122Y-50038402D01*
X88038402Y-50193122D01*
X87958929Y-50306623D01*
X87914611Y-50345489D01*
X87857354Y-50359500D01*
X87586309Y-50359500D01*
X87530014Y-50345985D01*
X87485991Y-50308385D01*
X87463836Y-50254898D01*
X87468378Y-50197182D01*
X87498628Y-50147819D01*
X87689572Y-49956874D01*
X87689571Y-49956873D01*
X87627386Y-49913331D01*
X87429161Y-49820898D01*
X87217886Y-49764287D01*
X87000000Y-49745224D01*
X86782113Y-49764287D01*
X86570840Y-49820897D01*
X86372611Y-49913333D01*
X86310428Y-49956874D01*
X86310427Y-49956875D01*
X86963181Y-50609628D01*
X86990061Y-50649856D01*
X86999500Y-50697309D01*
X86999500Y-51302691D01*
X86990061Y-51350144D01*
X86963181Y-51390372D01*
X86310426Y-52043124D01*
X82690446Y-52043124D01*
X82806877Y-51961598D01*
X82961598Y-51806877D01*
X83087102Y-51627639D01*
X83179575Y-51429330D01*
X83236207Y-51217977D01*
X83255277Y-51000000D01*
X85745224Y-51000000D01*
X85764287Y-51217886D01*
X85820898Y-51429161D01*
X85913331Y-51627386D01*
X85956873Y-51689571D01*
X85956875Y-51689572D01*
X86646447Y-51000001D01*
X86646447Y-51000000D01*
X85956875Y-50310427D01*
X85956874Y-50310428D01*
X85913333Y-50372611D01*
X85820897Y-50570840D01*
X85764287Y-50782113D01*
X85745224Y-51000000D01*
X83255277Y-51000000D01*
X83236207Y-50782023D01*
X83179575Y-50570670D01*
X83087102Y-50372362D01*
X82961598Y-50193123D01*
X82806877Y-50038402D01*
X82627639Y-49912898D01*
X82536205Y-49870261D01*
X82429331Y-49820425D01*
X82217974Y-49763792D01*
X82000000Y-49744722D01*
X81782025Y-49763792D01*
X81570668Y-49820425D01*
X81372361Y-49912898D01*
X81193122Y-50038402D01*
X81038402Y-50193122D01*
X80958929Y-50306623D01*
X80914611Y-50345489D01*
X80857354Y-50359500D01*
X80586309Y-50359500D01*
X80530014Y-50345985D01*
X80485991Y-50308385D01*
X80463836Y-50254898D01*
X80468378Y-50197182D01*
X80498628Y-50147819D01*
X80689572Y-49956874D01*
X80689571Y-49956873D01*
X80627386Y-49913331D01*
X80429161Y-49820898D01*
X80217886Y-49764287D01*
X80000000Y-49745224D01*
X79782113Y-49764287D01*
X79570840Y-49820897D01*
X79372611Y-49913333D01*
X79310428Y-49956874D01*
X79310427Y-49956875D01*
X79963181Y-50609628D01*
X79990061Y-50649856D01*
X79999500Y-50697309D01*
X79999500Y-51302691D01*
X79990061Y-51350144D01*
X79963181Y-51390372D01*
X79310426Y-52043124D01*
X75690446Y-52043124D01*
X75806877Y-51961598D01*
X75961598Y-51806877D01*
X76087102Y-51627639D01*
X76179575Y-51429330D01*
X76236207Y-51217977D01*
X76255277Y-51000000D01*
X78745224Y-51000000D01*
X78764287Y-51217886D01*
X78820898Y-51429161D01*
X78913331Y-51627386D01*
X78956873Y-51689571D01*
X78956875Y-51689572D01*
X79646447Y-51000001D01*
X79646447Y-51000000D01*
X78956875Y-50310427D01*
X78956874Y-50310428D01*
X78913333Y-50372611D01*
X78820897Y-50570840D01*
X78764287Y-50782113D01*
X78745224Y-51000000D01*
X76255277Y-51000000D01*
X76236207Y-50782023D01*
X76179575Y-50570670D01*
X76087102Y-50372362D01*
X75961598Y-50193123D01*
X75806877Y-50038402D01*
X75627639Y-49912898D01*
X75536205Y-49870261D01*
X75429331Y-49820425D01*
X75217974Y-49763792D01*
X75000000Y-49744722D01*
X74782025Y-49763792D01*
X74570668Y-49820425D01*
X74372361Y-49912898D01*
X74193122Y-50038402D01*
X74038402Y-50193122D01*
X73958929Y-50306623D01*
X73914611Y-50345489D01*
X73857354Y-50359500D01*
X73586309Y-50359500D01*
X73530014Y-50345985D01*
X73485991Y-50308385D01*
X73463836Y-50254898D01*
X73468378Y-50197182D01*
X73498628Y-50147819D01*
X73689572Y-49956874D01*
X73689571Y-49956873D01*
X73627386Y-49913331D01*
X73429161Y-49820898D01*
X73217886Y-49764287D01*
X73000000Y-49745224D01*
X72782113Y-49764287D01*
X72570840Y-49820897D01*
X72372611Y-49913333D01*
X72310428Y-49956874D01*
X72310427Y-49956875D01*
X72963181Y-50609628D01*
X72990061Y-50649856D01*
X72999500Y-50697309D01*
X72999500Y-51302691D01*
X72990061Y-51350144D01*
X72963181Y-51390372D01*
X72310426Y-52043124D01*
X68690446Y-52043124D01*
X68806877Y-51961598D01*
X68961598Y-51806877D01*
X69087102Y-51627639D01*
X69179575Y-51429330D01*
X69236207Y-51217977D01*
X69255277Y-51000000D01*
X71745224Y-51000000D01*
X71764287Y-51217886D01*
X71820898Y-51429161D01*
X71913331Y-51627386D01*
X71956873Y-51689571D01*
X71956875Y-51689572D01*
X72646447Y-51000001D01*
X72646447Y-51000000D01*
X71956875Y-50310427D01*
X71956874Y-50310428D01*
X71913333Y-50372611D01*
X71820897Y-50570840D01*
X71764287Y-50782113D01*
X71745224Y-51000000D01*
X69255277Y-51000000D01*
X69236207Y-50782023D01*
X69179575Y-50570670D01*
X69087102Y-50372362D01*
X68961598Y-50193123D01*
X68806877Y-50038402D01*
X68627639Y-49912898D01*
X68536205Y-49870261D01*
X68429331Y-49820425D01*
X68217974Y-49763792D01*
X68000000Y-49744722D01*
X67782025Y-49763792D01*
X67570668Y-49820425D01*
X67372361Y-49912898D01*
X67193122Y-50038402D01*
X67038402Y-50193122D01*
X66958929Y-50306623D01*
X66914611Y-50345489D01*
X66857354Y-50359500D01*
X66586309Y-50359500D01*
X66530014Y-50345985D01*
X66485991Y-50308385D01*
X66463836Y-50254898D01*
X66468378Y-50197182D01*
X66498628Y-50147819D01*
X66689572Y-49956874D01*
X66689571Y-49956873D01*
X66627386Y-49913331D01*
X66429161Y-49820898D01*
X66217886Y-49764287D01*
X66000000Y-49745224D01*
X65782113Y-49764287D01*
X65570840Y-49820897D01*
X65372611Y-49913333D01*
X65310428Y-49956874D01*
X65310427Y-49956875D01*
X65963181Y-50609628D01*
X65990061Y-50649856D01*
X65999500Y-50697309D01*
X65999500Y-51302691D01*
X65990061Y-51350144D01*
X65963181Y-51390372D01*
X65310426Y-52043124D01*
X61690446Y-52043124D01*
X61806877Y-51961598D01*
X61961598Y-51806877D01*
X62087102Y-51627639D01*
X62179575Y-51429330D01*
X62236207Y-51217977D01*
X62255277Y-51000000D01*
X62255277Y-50999999D01*
X64745224Y-50999999D01*
X64764287Y-51217886D01*
X64820898Y-51429161D01*
X64913331Y-51627386D01*
X64956873Y-51689571D01*
X64956875Y-51689572D01*
X65646447Y-51000001D01*
X65646447Y-51000000D01*
X64956875Y-50310427D01*
X64956874Y-50310428D01*
X64913333Y-50372611D01*
X64820897Y-50570840D01*
X64764287Y-50782113D01*
X64745224Y-50999999D01*
X62255277Y-50999999D01*
X62236207Y-50782023D01*
X62179575Y-50570670D01*
X62087102Y-50372362D01*
X61961598Y-50193123D01*
X61806877Y-50038402D01*
X61627639Y-49912898D01*
X61536205Y-49870261D01*
X61429331Y-49820425D01*
X61217974Y-49763792D01*
X61000000Y-49744722D01*
X60782025Y-49763792D01*
X60570668Y-49820425D01*
X60372361Y-49912898D01*
X60193122Y-50038402D01*
X60038402Y-50193122D01*
X59958929Y-50306623D01*
X59914611Y-50345489D01*
X59857354Y-50359500D01*
X59586309Y-50359500D01*
X59530014Y-50345985D01*
X59485991Y-50308385D01*
X59463836Y-50254898D01*
X59468378Y-50197182D01*
X59498628Y-50147819D01*
X59689572Y-49956874D01*
X59689571Y-49956873D01*
X59627386Y-49913331D01*
X59429161Y-49820898D01*
X59217886Y-49764287D01*
X59000000Y-49745224D01*
X58782113Y-49764287D01*
X58570840Y-49820897D01*
X58372611Y-49913333D01*
X58310428Y-49956874D01*
X58310427Y-49956875D01*
X58963181Y-50609628D01*
X58990061Y-50649856D01*
X58999500Y-50697309D01*
X58999500Y-51302691D01*
X58990061Y-51350144D01*
X58963181Y-51390372D01*
X58310426Y-52043124D01*
X38000000Y-52043124D01*
X38000000Y-51000000D01*
X57745224Y-51000000D01*
X57764287Y-51217886D01*
X57820898Y-51429161D01*
X57913331Y-51627386D01*
X57956873Y-51689571D01*
X57956875Y-51689572D01*
X58646447Y-51000001D01*
X58646447Y-51000000D01*
X57956875Y-50310427D01*
X57956874Y-50310428D01*
X57913333Y-50372611D01*
X57820897Y-50570840D01*
X57764287Y-50782113D01*
X57745224Y-51000000D01*
X38000000Y-51000000D01*
X38000000Y-29124000D01*
X38016613Y-29062000D01*
X38062000Y-29016613D01*
X38124000Y-29000000D01*
X95949907Y-29000000D01*
X95996353Y-29009027D01*
G37*
%TD.AperFunction*%
%TD*%
M02*
