%TF.GenerationSoftware,KiCad,Pcbnew,7.0.1*%
%TF.CreationDate,2023-07-03T20:41:54-04:00*%
%TF.ProjectId,business_card,62757369-6e65-4737-935f-636172642e6b,rev?*%
%TF.SameCoordinates,Original*%
%TF.FileFunction,Plated,1,2,PTH,Drill*%
%TF.FilePolarity,Positive*%
%FSLAX46Y46*%
G04 Gerber Fmt 4.6, Leading zero omitted, Abs format (unit mm)*
G04 Created by KiCad (PCBNEW 7.0.1) date 2023-07-03 20:41:54*
%MOMM*%
%LPD*%
G01*
G04 APERTURE LIST*
%TA.AperFunction,ViaDrill*%
%ADD10C,0.400000*%
%TD*%
%TA.AperFunction,ComponentDrill*%
%ADD11C,1.270000*%
%TD*%
G04 APERTURE END LIST*
D10*
X38800000Y-30600000D03*
X39000000Y-77200000D03*
X39400000Y-29600000D03*
X39600000Y-76200000D03*
X40000000Y-30600000D03*
X40200000Y-77200000D03*
X95000000Y-30800000D03*
X95600000Y-29800000D03*
X96200000Y-30800000D03*
X101600000Y-67000000D03*
X110000000Y-60400000D03*
X111000000Y-48200000D03*
X112800000Y-54600000D03*
X115600000Y-50400000D03*
X116200000Y-49400000D03*
X116600000Y-60400000D03*
X116800000Y-50400000D03*
X118000000Y-60400000D03*
X118188385Y-65414285D03*
X118850500Y-64600000D03*
X120600000Y-76800000D03*
X121200000Y-75800000D03*
X121800000Y-76800000D03*
X122800000Y-57400000D03*
X123400000Y-56400000D03*
X124000000Y-57400000D03*
D11*
%TO.C,R6*%
X52000000Y-76000000D03*
X54000000Y-76000000D03*
%TO.C,D5*%
X59000000Y-51000000D03*
%TO.C,R5*%
X59000000Y-73000000D03*
%TO.C,D5*%
X61000000Y-51000000D03*
%TO.C,R5*%
X61000000Y-73000000D03*
%TO.C,D4*%
X66000000Y-51000000D03*
%TO.C,R4*%
X66000000Y-73000000D03*
%TO.C,D4*%
X68000000Y-51000000D03*
%TO.C,R4*%
X68000000Y-73000000D03*
%TO.C,D3*%
X73000000Y-51000000D03*
%TO.C,R3*%
X73000000Y-73000000D03*
%TO.C,D3*%
X75000000Y-51000000D03*
%TO.C,R3*%
X75000000Y-73000000D03*
%TO.C,D1*%
X80000000Y-51000000D03*
%TO.C,R1*%
X80000000Y-73000000D03*
%TO.C,D1*%
X82000000Y-51000000D03*
%TO.C,R1*%
X82000000Y-73000000D03*
%TO.C,D2*%
X87000000Y-51000000D03*
%TO.C,R2*%
X87000000Y-73000000D03*
%TO.C,D2*%
X89000000Y-51000000D03*
%TO.C,R2*%
X89000000Y-73000000D03*
%TO.C,C2*%
X109200000Y-56600000D03*
X109200000Y-58600000D03*
%TO.C,C1*%
X116600000Y-56600000D03*
X116600000Y-58600000D03*
M02*
