%TF.GenerationSoftware,KiCad,Pcbnew,7.0.1*%
%TF.CreationDate,2023-07-02T20:59:24-04:00*%
%TF.ProjectId,business_card,62757369-6e65-4737-935f-636172642e6b,rev?*%
%TF.SameCoordinates,Original*%
%TF.FileFunction,Copper,L1,Top*%
%TF.FilePolarity,Positive*%
%FSLAX46Y46*%
G04 Gerber Fmt 4.6, Leading zero omitted, Abs format (unit mm)*
G04 Created by KiCad (PCBNEW 7.0.1) date 2023-07-02 20:59:24*
%MOMM*%
%LPD*%
G01*
G04 APERTURE LIST*
G04 Aperture macros list*
%AMRoundRect*
0 Rectangle with rounded corners*
0 $1 Rounding radius*
0 $2 $3 $4 $5 $6 $7 $8 $9 X,Y pos of 4 corners*
0 Add a 4 corners polygon primitive as box body*
4,1,4,$2,$3,$4,$5,$6,$7,$8,$9,$2,$3,0*
0 Add four circle primitives for the rounded corners*
1,1,$1+$1,$2,$3*
1,1,$1+$1,$4,$5*
1,1,$1+$1,$6,$7*
1,1,$1+$1,$8,$9*
0 Add four rect primitives between the rounded corners*
20,1,$1+$1,$2,$3,$4,$5,0*
20,1,$1+$1,$4,$5,$6,$7,0*
20,1,$1+$1,$6,$7,$8,$9,0*
20,1,$1+$1,$8,$9,$2,$3,0*%
G04 Aperture macros list end*
%TA.AperFunction,SMDPad,CuDef*%
%ADD10RoundRect,0.150000X0.150000X-0.550000X0.150000X0.550000X-0.150000X0.550000X-0.150000X-0.550000X0*%
%TD*%
%TA.AperFunction,SMDPad,CuDef*%
%ADD11RoundRect,0.150000X0.150000X-0.500000X0.150000X0.500000X-0.150000X0.500000X-0.150000X-0.500000X0*%
%TD*%
%TA.AperFunction,ComponentPad*%
%ADD12C,1.500000*%
%TD*%
%TA.AperFunction,SMDPad,CuDef*%
%ADD13C,1.000000*%
%TD*%
%TA.AperFunction,SMDPad,CuDef*%
%ADD14RoundRect,0.600000X-0.600000X-0.650000X0.600000X-0.650000X0.600000X0.650000X-0.600000X0.650000X0*%
%TD*%
%TA.AperFunction,SMDPad,CuDef*%
%ADD15RoundRect,0.600000X-0.650000X-0.600000X0.650000X-0.600000X0.650000X0.600000X-0.650000X0.600000X0*%
%TD*%
%TA.AperFunction,SMDPad,CuDef*%
%ADD16RoundRect,0.400000X-4.949747X-4.384062X-4.384062X-4.949747X4.949747X4.384062X4.384062X4.949747X0*%
%TD*%
%TA.AperFunction,SMDPad,CuDef*%
%ADD17RoundRect,0.325000X-4.949747X-4.490128X-4.490128X-4.949747X4.949747X4.490128X4.490128X4.949747X0*%
%TD*%
%TA.AperFunction,SMDPad,CuDef*%
%ADD18RoundRect,0.100000X0.400000X0.100000X-0.400000X0.100000X-0.400000X-0.100000X0.400000X-0.100000X0*%
%TD*%
%TA.AperFunction,SMDPad,CuDef*%
%ADD19RoundRect,0.093750X0.406250X0.093750X-0.406250X0.093750X-0.406250X-0.093750X0.406250X-0.093750X0*%
%TD*%
%TA.AperFunction,SMDPad,CuDef*%
%ADD20RoundRect,0.118750X0.381250X0.118750X-0.381250X0.118750X-0.381250X-0.118750X0.381250X-0.118750X0*%
%TD*%
%TA.AperFunction,SMDPad,CuDef*%
%ADD21RoundRect,0.106250X0.393750X0.106250X-0.393750X0.106250X-0.393750X-0.106250X0.393750X-0.106250X0*%
%TD*%
%TA.AperFunction,ViaPad*%
%ADD22C,0.800000*%
%TD*%
%TA.AperFunction,Conductor*%
%ADD23C,0.300000*%
%TD*%
%TA.AperFunction,Conductor*%
%ADD24C,1.000000*%
%TD*%
%TA.AperFunction,Conductor*%
%ADD25C,0.250000*%
%TD*%
G04 APERTURE END LIST*
D10*
%TO.P,U2,1,VIN*%
%TO.N,/5V_USB*%
X111900000Y-56400000D03*
%TO.P,U2,2,GND*%
%TO.N,GND*%
X112850000Y-56400000D03*
%TO.P,U2,3,EN*%
%TO.N,/5V_USB*%
X113800000Y-56400000D03*
D11*
%TO.P,U2,4,NC*%
%TO.N,unconnected-(U2-NC-Pad4)*%
X113800000Y-60350000D03*
%TO.P,U2,5,VOUT*%
%TO.N,/3V3_SUPPLY*%
X111900000Y-60350000D03*
%TD*%
D12*
%TO.P,C2,1*%
%TO.N,/3V3_SUPPLY*%
X109200000Y-58600000D03*
%TO.P,C2,2*%
%TO.N,GND*%
X109200000Y-56600000D03*
%TD*%
%TO.P,C1,1*%
%TO.N,/5V_USB*%
X116600000Y-56600000D03*
%TO.P,C1,2*%
%TO.N,GND*%
X116600000Y-58600000D03*
%TD*%
D13*
%TO.P,TP4,1,1*%
%TO.N,GND*%
X109220000Y-76200000D03*
%TD*%
%TO.P,TP3,1,1*%
%TO.N,/SWDCLK*%
X104140000Y-76200000D03*
%TD*%
%TO.P,TP2,1,1*%
%TO.N,/SWDIO*%
X106680000Y-76200000D03*
%TD*%
%TO.P,TP1,1,1*%
%TO.N,/3V3_SUPPLY*%
X101600000Y-76200000D03*
%TD*%
D14*
%TO.P,BZ1,1,-*%
%TO.N,GND*%
X45000000Y-61000000D03*
D15*
%TO.P,BZ1,2,+*%
%TO.N,Net-(BZ1-+)*%
X45000000Y-75000000D03*
%TD*%
D12*
%TO.P,R6,1*%
%TO.N,Net-(BZ1-+)*%
X52000000Y-76000000D03*
%TO.P,R6,2*%
%TO.N,Net-(U1-PB1)*%
X54000000Y-76000000D03*
%TD*%
%TO.P,R5,1*%
%TO.N,Net-(U1-PA0)*%
X61000000Y-73000000D03*
%TO.P,R5,2*%
%TO.N,Net-(D5-A)*%
X59000000Y-73000000D03*
%TD*%
%TO.P,R4,1*%
%TO.N,Net-(U1-PA1)*%
X68000000Y-73000000D03*
%TO.P,R4,2*%
%TO.N,Net-(D4-A)*%
X66000000Y-73000000D03*
%TD*%
%TO.P,R3,1*%
%TO.N,Net-(U1-PA2)*%
X75000000Y-73000000D03*
%TO.P,R3,2*%
%TO.N,Net-(D3-A)*%
X73000000Y-73000000D03*
%TD*%
%TO.P,R2,1*%
%TO.N,Net-(U1-PA4)*%
X89000000Y-73000000D03*
%TO.P,R2,2*%
%TO.N,Net-(D2-A)*%
X87000000Y-73000000D03*
%TD*%
D16*
%TO.P,J1,1,Pin_1*%
%TO.N,/5V_USB*%
X113400000Y-35900000D03*
D17*
%TO.P,J1,2,Pin_2*%
%TO.N,/USB_DM*%
X115167767Y-37667767D03*
%TO.P,J1,3,Pin_3*%
%TO.N,/USB_DP*%
X116581981Y-39081980D03*
D16*
%TO.P,J1,4,Pin_4*%
%TO.N,GND*%
X118349747Y-40849747D03*
%TD*%
D12*
%TO.P,D5,1,K*%
%TO.N,GND*%
X59000000Y-51000000D03*
%TO.P,D5,2,A*%
%TO.N,Net-(D5-A)*%
X61000000Y-51000000D03*
%TD*%
%TO.P,D4,1,K*%
%TO.N,GND*%
X66000000Y-51000000D03*
%TO.P,D4,2,A*%
%TO.N,Net-(D4-A)*%
X68000000Y-51000000D03*
%TD*%
%TO.P,D3,1,K*%
%TO.N,GND*%
X73000000Y-51000000D03*
%TO.P,D3,2,A*%
%TO.N,Net-(D3-A)*%
X75000000Y-51000000D03*
%TD*%
%TO.P,D2,1,K*%
%TO.N,GND*%
X87000000Y-51000000D03*
%TO.P,D2,2,A*%
%TO.N,Net-(D2-A)*%
X89000000Y-51000000D03*
%TD*%
D18*
%TO.P,U1,1,PB8*%
%TO.N,unconnected-(U1-PB8-Pad1)*%
X108500000Y-68965000D03*
%TO.P,U1,2,PF0*%
%TO.N,unconnected-(U1-PF0-Pad2)*%
X108500000Y-68315000D03*
%TO.P,U1,3,PF1*%
%TO.N,unconnected-(U1-PF1-Pad3)*%
X108500000Y-67665000D03*
%TO.P,U1,4,NRST*%
%TO.N,unconnected-(U1-NRST-Pad4)*%
X108500000Y-67015000D03*
D19*
%TO.P,U1,5,VDDA*%
%TO.N,/3V3_SUPPLY*%
X108500000Y-66352500D03*
D18*
%TO.P,U1,6,PA0*%
%TO.N,Net-(U1-PA0)*%
X108500000Y-65715000D03*
%TO.P,U1,7,PA1*%
%TO.N,Net-(U1-PA1)*%
X108500000Y-65065000D03*
%TO.P,U1,8,PA2*%
%TO.N,Net-(U1-PA2)*%
X108500000Y-64415000D03*
%TO.P,U1,9,PA3*%
%TO.N,Net-(U1-PA3)*%
X108500000Y-63765000D03*
%TO.P,U1,10,PA4*%
%TO.N,Net-(U1-PA4)*%
X108500000Y-63115000D03*
%TO.P,U1,11,PA5*%
%TO.N,unconnected-(U1-PA5-Pad11)*%
X115500000Y-63115000D03*
D20*
%TO.P,U1,12,PA6*%
%TO.N,unconnected-(U1-PA6-Pad12)*%
X115500000Y-63802500D03*
D18*
%TO.P,U1,13,PA7*%
%TO.N,unconnected-(U1-PA7-Pad13)*%
X115500000Y-64415000D03*
%TO.P,U1,14,PB1*%
%TO.N,Net-(U1-PB1)*%
X115500000Y-65065000D03*
%TO.P,U1,15,VSSA*%
%TO.N,GND*%
X115500000Y-65715000D03*
D19*
%TO.P,U1,16,VDD*%
%TO.N,/3V3_SUPPLY*%
X115500000Y-66352500D03*
D18*
%TO.P,U1,17,PA9/PA11*%
%TO.N,/USB_DM*%
X115500000Y-67015000D03*
%TO.P,U1,18,PA10/PA12*%
%TO.N,/USB_DP*%
X115500000Y-67665000D03*
D21*
%TO.P,U1,19,PA13*%
%TO.N,/SWDIO*%
X115500000Y-68327500D03*
D18*
%TO.P,U1,20,PA14*%
%TO.N,/SWDCLK*%
X115500000Y-68965000D03*
%TD*%
D12*
%TO.P,R1,1*%
%TO.N,Net-(U1-PA3)*%
X82000000Y-73000000D03*
%TO.P,R1,2*%
%TO.N,Net-(D1-A)*%
X80000000Y-73000000D03*
%TD*%
%TO.P,D1,1,K*%
%TO.N,GND*%
X80000000Y-51000000D03*
%TO.P,D1,2,A*%
%TO.N,Net-(D1-A)*%
X82000000Y-51000000D03*
%TD*%
D22*
%TO.N,GND*%
X115600000Y-50400000D03*
X116800000Y-50400000D03*
X116200000Y-49400000D03*
X39000000Y-77200000D03*
X40200000Y-77200000D03*
X39600000Y-76200000D03*
X38800000Y-30600000D03*
X40000000Y-30600000D03*
X39400000Y-29600000D03*
X95000000Y-30800000D03*
X96200000Y-30800000D03*
X95600000Y-29800000D03*
X122800000Y-57400000D03*
X124000000Y-57400000D03*
X123400000Y-56400000D03*
X121200000Y-75800000D03*
X120600000Y-76800000D03*
X121800000Y-76800000D03*
X118188385Y-65414285D03*
X118000000Y-60400000D03*
X116600000Y-60400000D03*
X111000000Y-48200000D03*
X112800000Y-54600000D03*
%TO.N,/3V3_SUPPLY*%
X101600000Y-67000000D03*
X110000000Y-60400000D03*
%TO.N,Net-(U1-PB1)*%
X118850500Y-64600000D03*
%TD*%
D23*
%TO.N,Net-(U1-PA3)*%
X83400000Y-73000000D02*
X82800000Y-73000000D01*
X84600000Y-75800000D02*
X84600000Y-74200000D01*
X84800000Y-76000000D02*
X84600000Y-75800000D01*
X93800000Y-75800000D02*
X93600000Y-76000000D01*
X93800000Y-66400000D02*
X93800000Y-75800000D01*
X96435000Y-63765000D02*
X93800000Y-66400000D01*
X84600000Y-74200000D02*
X83400000Y-73000000D01*
X108500000Y-63765000D02*
X96435000Y-63765000D01*
X93600000Y-76000000D02*
X84800000Y-76000000D01*
%TO.N,Net-(U1-PA0)*%
X62400000Y-73000000D02*
X61800000Y-73000000D01*
X63400000Y-74000000D02*
X62400000Y-73000000D01*
X63400000Y-76600000D02*
X63400000Y-74000000D01*
X95600000Y-67200000D02*
X95600000Y-76527817D01*
X94427817Y-77700000D02*
X64500000Y-77700000D01*
X97085000Y-65715000D02*
X95600000Y-67200000D01*
X95600000Y-76527817D02*
X94427817Y-77700000D01*
X108500000Y-65715000D02*
X97085000Y-65715000D01*
X64500000Y-77700000D02*
X63400000Y-76600000D01*
%TO.N,Net-(D4-A)*%
X69800000Y-51000000D02*
X68800000Y-51000000D01*
X70200000Y-51400000D02*
X69800000Y-51000000D01*
X68800000Y-53800000D02*
X70200000Y-52400000D01*
X64000000Y-55200000D02*
X65400000Y-53800000D01*
X64000000Y-72400000D02*
X64000000Y-55200000D01*
X70200000Y-52400000D02*
X70200000Y-51400000D01*
X64600000Y-73000000D02*
X64000000Y-72400000D01*
X65400000Y-53800000D02*
X68800000Y-53800000D01*
X65200000Y-73000000D02*
X64600000Y-73000000D01*
X68800000Y-51200000D02*
X68600000Y-51400000D01*
X68800000Y-51000000D02*
X68800000Y-51200000D01*
X68800000Y-50800000D02*
X68600000Y-50600000D01*
X68800000Y-51000000D02*
X68800000Y-50800000D01*
X68800000Y-51000000D02*
X68150000Y-51000000D01*
%TO.N,Net-(D2-A)*%
X90800000Y-51000000D02*
X89800000Y-51000000D01*
X89800000Y-53800000D02*
X91200000Y-52400000D01*
X86600000Y-53800000D02*
X89800000Y-53800000D01*
X91200000Y-52400000D02*
X91200000Y-51400000D01*
X85000000Y-55400000D02*
X86600000Y-53800000D01*
X85000000Y-72200000D02*
X85000000Y-55400000D01*
X85800000Y-73000000D02*
X85000000Y-72200000D01*
X86200000Y-73000000D02*
X85800000Y-73000000D01*
X91200000Y-51400000D02*
X90800000Y-51000000D01*
%TO.N,Net-(D3-A)*%
X77000000Y-51000000D02*
X75800000Y-51000000D01*
X77400000Y-52200000D02*
X77400000Y-51400000D01*
X77400000Y-51400000D02*
X77000000Y-51000000D01*
X70800000Y-72200000D02*
X70800000Y-55200000D01*
X71600000Y-73000000D02*
X70800000Y-72200000D01*
X72200000Y-53800000D02*
X75800000Y-53800000D01*
X75800000Y-53800000D02*
X77400000Y-52200000D01*
X72200000Y-73000000D02*
X71600000Y-73000000D01*
X70800000Y-55200000D02*
X72200000Y-53800000D01*
%TO.N,Net-(D1-A)*%
X84000000Y-51000000D02*
X82800000Y-51000000D01*
X84400000Y-52200000D02*
X84400000Y-51400000D01*
X79600000Y-53800000D02*
X82800000Y-53800000D01*
X84400000Y-51400000D02*
X84000000Y-51000000D01*
X78000000Y-55400000D02*
X79600000Y-53800000D01*
X82800000Y-53800000D02*
X84400000Y-52200000D01*
X78000000Y-72400000D02*
X78000000Y-55400000D01*
X78600000Y-73000000D02*
X78000000Y-72400000D01*
X79200000Y-73000000D02*
X78600000Y-73000000D01*
%TO.N,Net-(D5-A)*%
X62800000Y-51000000D02*
X61800000Y-51000000D01*
X57400000Y-53800000D02*
X62000000Y-53800000D01*
X56000000Y-55200000D02*
X57400000Y-53800000D01*
X62000000Y-53800000D02*
X63200000Y-52600000D01*
X63200000Y-52600000D02*
X63200000Y-51400000D01*
X63200000Y-51400000D02*
X62800000Y-51000000D01*
X56800000Y-73000000D02*
X56000000Y-72200000D01*
X56000000Y-72200000D02*
X56000000Y-55200000D01*
X58200000Y-73000000D02*
X56800000Y-73000000D01*
%TO.N,Net-(U1-PA2)*%
X76400000Y-73000000D02*
X75800000Y-73000000D01*
X93800000Y-76600000D02*
X77600000Y-76600000D01*
X94400000Y-76000000D02*
X93800000Y-76600000D01*
X77000000Y-73600000D02*
X76400000Y-73000000D01*
X94400000Y-66600000D02*
X94400000Y-76000000D01*
X96585000Y-64415000D02*
X94400000Y-66600000D01*
X77600000Y-76600000D02*
X77000000Y-76000000D01*
X77000000Y-76000000D02*
X77000000Y-73600000D01*
X108500000Y-64415000D02*
X96585000Y-64415000D01*
%TO.N,Net-(U1-PA1)*%
X69200000Y-73000000D02*
X68800000Y-73000000D01*
X70000000Y-76550000D02*
X70000000Y-73800000D01*
X70000000Y-73800000D02*
X69200000Y-73000000D01*
X70600000Y-77150000D02*
X70000000Y-76550000D01*
X95000000Y-76350000D02*
X94200000Y-77150000D01*
X94200000Y-77150000D02*
X70600000Y-77150000D01*
X95000000Y-66963604D02*
X95000000Y-76350000D01*
X96898604Y-65065000D02*
X95000000Y-66963604D01*
X108500000Y-65065000D02*
X96898604Y-65065000D01*
%TO.N,Net-(D4-A)*%
X65200000Y-73200000D02*
X65400000Y-73400000D01*
X65200000Y-73000000D02*
X65200000Y-73200000D01*
X65200000Y-72800000D02*
X65400000Y-72600000D01*
X65200000Y-73000000D02*
X65200000Y-72800000D01*
X65200000Y-73000000D02*
X65850000Y-73000000D01*
%TO.N,Net-(D2-A)*%
X89800000Y-51200000D02*
X89600000Y-51400000D01*
X89800000Y-51000000D02*
X89800000Y-51200000D01*
X89800000Y-50800000D02*
X89600000Y-50600000D01*
X89800000Y-51000000D02*
X89800000Y-50800000D01*
X89800000Y-51000000D02*
X89150000Y-51000000D01*
X86200000Y-73200000D02*
X86400000Y-73400000D01*
X86200000Y-73000000D02*
X86200000Y-73200000D01*
X86200000Y-72800000D02*
X86400000Y-72600000D01*
X86200000Y-73000000D02*
X86200000Y-72800000D01*
X86200000Y-73000000D02*
X86850000Y-73000000D01*
%TO.N,Net-(D1-A)*%
X82800000Y-51200000D02*
X82600000Y-51400000D01*
X82800000Y-51000000D02*
X82800000Y-51200000D01*
X82800000Y-50800000D02*
X82600000Y-50600000D01*
X82800000Y-51000000D02*
X82800000Y-50800000D01*
X82800000Y-51000000D02*
X82150000Y-51000000D01*
%TO.N,Net-(D3-A)*%
X75800000Y-51200000D02*
X75600000Y-51400000D01*
X75800000Y-51000000D02*
X75800000Y-51200000D01*
X75800000Y-50800000D02*
X75600000Y-50600000D01*
X75800000Y-51000000D02*
X75800000Y-50800000D01*
X75800000Y-51000000D02*
X75150000Y-51000000D01*
X72200000Y-73200000D02*
X72400000Y-73400000D01*
X72200000Y-73000000D02*
X72200000Y-73200000D01*
X72200000Y-72800000D02*
X72400000Y-72600000D01*
X72200000Y-73000000D02*
X72200000Y-72800000D01*
X72200000Y-73000000D02*
X72850000Y-73000000D01*
%TO.N,Net-(D1-A)*%
X79200000Y-73200000D02*
X79400000Y-73400000D01*
X79200000Y-73000000D02*
X79200000Y-73200000D01*
X79200000Y-73000000D02*
X79200000Y-72800000D01*
X79200000Y-73000000D02*
X79850000Y-73000000D01*
X79200000Y-72800000D02*
X79400000Y-72600000D01*
%TO.N,Net-(U1-PB1)*%
X117135000Y-65065000D02*
X115500000Y-65065000D01*
X118850500Y-64600000D02*
X117600000Y-64600000D01*
X117600000Y-64600000D02*
X117135000Y-65065000D01*
%TO.N,GND*%
X117887670Y-65715000D02*
X118188385Y-65414285D01*
X115500000Y-65715000D02*
X117887670Y-65715000D01*
%TO.N,Net-(BZ1-+)*%
X51200000Y-76200000D02*
X51400000Y-76400000D01*
X51200000Y-76000000D02*
X51200000Y-76200000D01*
X51200000Y-76000000D02*
X51200000Y-75800000D01*
X51200000Y-76000000D02*
X51850000Y-76000000D01*
X51200000Y-75800000D02*
X51400000Y-75600000D01*
X48200000Y-76000000D02*
X51200000Y-76000000D01*
X47200000Y-75000000D02*
X48200000Y-76000000D01*
X45000000Y-75000000D02*
X47200000Y-75000000D01*
%TO.N,Net-(D5-A)*%
X61800000Y-51200000D02*
X61600000Y-51400000D01*
X61800000Y-51000000D02*
X61800000Y-51200000D01*
X61800000Y-50800000D02*
X61600000Y-50600000D01*
X61800000Y-51000000D02*
X61800000Y-50800000D01*
X61800000Y-51000000D02*
X61150000Y-51000000D01*
X58200000Y-73200000D02*
X58400000Y-73400000D01*
X58200000Y-73000000D02*
X58200000Y-73200000D01*
X58200000Y-73000000D02*
X58200000Y-72800000D01*
X58200000Y-72800000D02*
X58400000Y-72600000D01*
X58200000Y-73000000D02*
X58850000Y-73000000D01*
D24*
%TO.N,GND*%
X118349747Y-40850253D02*
X118349747Y-40849747D01*
X111000000Y-48200000D02*
X118349747Y-40850253D01*
D23*
X116800000Y-59400000D02*
X117000000Y-59200000D01*
X116600000Y-59400000D02*
X116800000Y-59400000D01*
X116600000Y-59400000D02*
X116400000Y-59400000D01*
X116400000Y-59400000D02*
X116200000Y-59200000D01*
X116600000Y-59400000D02*
X116600000Y-58750000D01*
X116600000Y-60400000D02*
X116600000Y-59400000D01*
X118000000Y-60400000D02*
X116600000Y-60400000D01*
X112850000Y-54650000D02*
X112800000Y-54600000D01*
X112850000Y-56400000D02*
X112850000Y-54650000D01*
%TO.N,/5V_USB*%
X116800000Y-55800000D02*
X117000000Y-56000000D01*
X116400000Y-55800000D02*
X116200000Y-56000000D01*
X116600000Y-55800000D02*
X116400000Y-55800000D01*
X116600000Y-55800000D02*
X116800000Y-55800000D01*
X116600000Y-55800000D02*
X116600000Y-56450000D01*
X116600000Y-55000000D02*
X116600000Y-55800000D01*
X116400000Y-54800000D02*
X116600000Y-55000000D01*
X113800000Y-54800000D02*
X116400000Y-54800000D01*
X113800000Y-54800000D02*
X113800000Y-56400000D01*
X113800000Y-53800000D02*
X113800000Y-54800000D01*
%TO.N,/3V3_SUPPLY*%
X119269682Y-66352500D02*
X115500000Y-66352500D01*
X119650000Y-62050000D02*
X119650000Y-65972182D01*
X119200000Y-61600000D02*
X119650000Y-62050000D01*
X112200000Y-61600000D02*
X119200000Y-61600000D01*
X119650000Y-65972182D02*
X119269682Y-66352500D01*
X111900000Y-60350000D02*
X111900000Y-61300000D01*
X111900000Y-61300000D02*
X112200000Y-61600000D01*
X109950000Y-60350000D02*
X109350000Y-60350000D01*
X110000000Y-60400000D02*
X109950000Y-60350000D01*
X110050000Y-60350000D02*
X110000000Y-60400000D01*
X109000000Y-59400000D02*
X108800000Y-59200000D01*
X109200000Y-59400000D02*
X109000000Y-59400000D01*
X109400000Y-59400000D02*
X109600000Y-59200000D01*
X109200000Y-59400000D02*
X109400000Y-59400000D01*
X109200000Y-59400000D02*
X109200000Y-58750000D01*
X109200000Y-60200000D02*
X109200000Y-59400000D01*
X109350000Y-60350000D02*
X109200000Y-60200000D01*
X111900000Y-60350000D02*
X110050000Y-60350000D01*
%TO.N,/USB_DP*%
X119512818Y-67665000D02*
X115500000Y-67665000D01*
X120800000Y-66377818D02*
X119512818Y-67665000D01*
X120800000Y-54022182D02*
X120800000Y-66377818D01*
X118577818Y-51800000D02*
X120800000Y-54022182D01*
X112177818Y-51800000D02*
X118577818Y-51800000D01*
X109600000Y-49222182D02*
X112177818Y-51800000D01*
X109600000Y-46000000D02*
X109600000Y-49222182D01*
X116518020Y-39081980D02*
X109600000Y-46000000D01*
X116581981Y-39081980D02*
X116518020Y-39081980D01*
%TO.N,/USB_DM*%
X115515000Y-67000000D02*
X115500000Y-67015000D01*
X119400000Y-67000000D02*
X115515000Y-67000000D01*
X118400000Y-52400000D02*
X120200000Y-54200000D01*
X120200000Y-54200000D02*
X120200000Y-66200000D01*
X112000000Y-52400000D02*
X118400000Y-52400000D01*
X120200000Y-66200000D02*
X119400000Y-67000000D01*
X107600000Y-48000000D02*
X112000000Y-52400000D01*
X107600000Y-45235534D02*
X107600000Y-48000000D01*
X115167767Y-37667767D02*
X107600000Y-45235534D01*
%TO.N,/5V_USB*%
X113500000Y-53500000D02*
X113800000Y-53800000D01*
X111900000Y-53500000D02*
X113500000Y-53500000D01*
X111900000Y-53500000D02*
X111900000Y-56400000D01*
X105600000Y-47200000D02*
X111900000Y-53500000D01*
X105600000Y-43700000D02*
X105600000Y-47200000D01*
X113400000Y-35900000D02*
X105600000Y-43700000D01*
%TO.N,/SWDIO*%
X117305318Y-68327500D02*
X115500000Y-68327500D01*
X118350000Y-69372182D02*
X117305318Y-68327500D01*
X118350000Y-71027818D02*
X118350000Y-69372182D01*
X117427818Y-71950000D02*
X118350000Y-71027818D01*
X107650000Y-71950000D02*
X117427818Y-71950000D01*
X106680000Y-72920000D02*
X107650000Y-71950000D01*
X106680000Y-76200000D02*
X106680000Y-72920000D01*
%TO.N,/SWDCLK*%
X117165000Y-68965000D02*
X115500000Y-68965000D01*
X117800000Y-69600000D02*
X117165000Y-68965000D01*
X117800000Y-70800000D02*
X117800000Y-69600000D01*
X117200000Y-71400000D02*
X117800000Y-70800000D01*
X105400000Y-71400000D02*
X117200000Y-71400000D01*
X104140000Y-76200000D02*
X104140000Y-72660000D01*
X104140000Y-72660000D02*
X105400000Y-71400000D01*
%TO.N,/3V3_SUPPLY*%
X102200000Y-66400000D02*
X108452500Y-66400000D01*
X101600000Y-67000000D02*
X102200000Y-66400000D01*
X108452500Y-66400000D02*
X108500000Y-66352500D01*
X101600000Y-76200000D02*
X101600000Y-67000000D01*
%TO.N,Net-(U1-PA4)*%
X91000000Y-73000000D02*
X89150000Y-73000000D01*
X93000000Y-75400000D02*
X91800000Y-75400000D01*
X91800000Y-75400000D02*
X91200000Y-74800000D01*
X91200000Y-74800000D02*
X91200000Y-73200000D01*
X91200000Y-73200000D02*
X91000000Y-73000000D01*
X93250000Y-75150000D02*
X93000000Y-75400000D01*
X93250000Y-66172182D02*
X93250000Y-75150000D01*
X96307182Y-63115000D02*
X93250000Y-66172182D01*
X108500000Y-63115000D02*
X96307182Y-63115000D01*
%TO.N,Net-(U1-PA3)*%
X82800000Y-73200000D02*
X82600000Y-73400000D01*
X82800000Y-73000000D02*
X82800000Y-73200000D01*
X82800000Y-73000000D02*
X82150000Y-73000000D01*
X82800000Y-72800000D02*
X82600000Y-72600000D01*
X82800000Y-73000000D02*
X82800000Y-72800000D01*
D25*
%TO.N,Net-(U1-PA2)*%
X75800000Y-73200000D02*
X75600000Y-73400000D01*
X75800000Y-73000000D02*
X75800000Y-73200000D01*
X75800000Y-72800000D02*
X75600000Y-72600000D01*
X75800000Y-73000000D02*
X75800000Y-72800000D01*
X75800000Y-73000000D02*
X75125000Y-73000000D01*
%TO.N,Net-(U1-PA1)*%
X68800000Y-73200000D02*
X68600000Y-73400000D01*
X68800000Y-73000000D02*
X68800000Y-73200000D01*
X68800000Y-72800000D02*
X68600000Y-72600000D01*
X68800000Y-73000000D02*
X68800000Y-72800000D01*
X68800000Y-73000000D02*
X68125000Y-73000000D01*
%TO.N,Net-(U1-PA0)*%
X61800000Y-73200000D02*
X61600000Y-73400000D01*
X61800000Y-73000000D02*
X61800000Y-73200000D01*
X61800000Y-72800000D02*
X61600000Y-72600000D01*
X61800000Y-73000000D02*
X61800000Y-72800000D01*
X61800000Y-73000000D02*
X61125000Y-73000000D01*
%TD*%
%TA.AperFunction,Conductor*%
%TO.N,GND*%
G36*
X121592565Y-53730577D02*
G01*
X121645023Y-53760712D01*
X124962130Y-56963436D01*
X124990140Y-57004186D01*
X125000000Y-57052642D01*
X125000000Y-77876000D01*
X124983387Y-77938000D01*
X124938000Y-77983387D01*
X124876000Y-78000000D01*
X95347124Y-78000000D01*
X95290829Y-77986485D01*
X95246806Y-77948885D01*
X95224651Y-77895398D01*
X95229193Y-77837682D01*
X95259443Y-77788319D01*
X95259442Y-77788319D01*
X95999513Y-77048248D01*
X96016162Y-77034911D01*
X96017936Y-77033021D01*
X96017940Y-77033019D01*
X96065898Y-76981947D01*
X96068546Y-76979215D01*
X96088911Y-76958852D01*
X96091611Y-76955369D01*
X96099187Y-76946498D01*
X96130448Y-76913210D01*
X96140675Y-76894604D01*
X96151348Y-76878356D01*
X96164362Y-76861581D01*
X96182491Y-76819685D01*
X96187631Y-76809194D01*
X96189654Y-76805515D01*
X96209627Y-76769185D01*
X96214906Y-76748622D01*
X96221207Y-76730215D01*
X96229635Y-76710743D01*
X96236777Y-76665645D01*
X96239141Y-76654230D01*
X96250500Y-76609994D01*
X96250500Y-76588766D01*
X96252027Y-76569367D01*
X96255346Y-76548412D01*
X96251050Y-76502965D01*
X96250500Y-76491296D01*
X96250500Y-67520808D01*
X96259939Y-67473355D01*
X96286819Y-67433127D01*
X97318127Y-66401819D01*
X97358355Y-66374939D01*
X97405808Y-66365500D01*
X100711746Y-66365500D01*
X100773746Y-66382113D01*
X100819133Y-66427500D01*
X100835746Y-66489500D01*
X100819133Y-66551500D01*
X100772820Y-66631715D01*
X100714326Y-66811742D01*
X100694540Y-67000000D01*
X100714326Y-67188257D01*
X100772820Y-67368284D01*
X100867464Y-67532213D01*
X100867467Y-67532216D01*
X100917651Y-67587951D01*
X100941264Y-67626484D01*
X100949500Y-67670922D01*
X100949500Y-75380914D01*
X100937595Y-75433931D01*
X100904165Y-75476767D01*
X100889117Y-75489116D01*
X100764089Y-75641462D01*
X100671185Y-75815273D01*
X100613976Y-76003866D01*
X100594659Y-76199999D01*
X100613976Y-76396133D01*
X100671185Y-76584726D01*
X100714447Y-76665663D01*
X100764090Y-76758538D01*
X100889117Y-76910883D01*
X101041462Y-77035910D01*
X101215273Y-77128814D01*
X101403868Y-77186024D01*
X101600000Y-77205341D01*
X101796132Y-77186024D01*
X101984727Y-77128814D01*
X102158538Y-77035910D01*
X102310883Y-76910883D01*
X102435910Y-76758538D01*
X102528814Y-76584727D01*
X102586024Y-76396132D01*
X102605341Y-76200000D01*
X102586024Y-76003868D01*
X102528814Y-75815273D01*
X102435910Y-75641462D01*
X102310883Y-75489117D01*
X102310882Y-75489116D01*
X102295835Y-75476767D01*
X102262405Y-75433931D01*
X102250500Y-75380914D01*
X102250500Y-67670922D01*
X102258736Y-67626484D01*
X102282348Y-67587951D01*
X102332533Y-67532216D01*
X102336332Y-67525637D01*
X102427179Y-67368284D01*
X102436369Y-67339999D01*
X102485674Y-67188256D01*
X102488482Y-67161536D01*
X102509001Y-67105161D01*
X102553587Y-67065015D01*
X102611802Y-67050500D01*
X107377082Y-67050500D01*
X107434339Y-67064511D01*
X107478657Y-67103377D01*
X107500021Y-67158316D01*
X107514955Y-67271760D01*
X107523565Y-67292547D01*
X107533004Y-67339999D01*
X107523566Y-67387450D01*
X107514956Y-67408237D01*
X107499500Y-67525637D01*
X107499500Y-67804362D01*
X107514955Y-67921760D01*
X107523565Y-67942547D01*
X107533004Y-67989999D01*
X107523566Y-68037450D01*
X107514956Y-68058237D01*
X107499500Y-68175637D01*
X107499500Y-68454362D01*
X107514955Y-68571760D01*
X107523565Y-68592547D01*
X107533004Y-68639999D01*
X107523566Y-68687450D01*
X107514956Y-68708237D01*
X107499500Y-68825637D01*
X107499500Y-69104362D01*
X107514955Y-69221760D01*
X107575464Y-69367841D01*
X107671717Y-69493282D01*
X107748155Y-69551934D01*
X107797159Y-69589536D01*
X107943238Y-69650044D01*
X108060639Y-69665500D01*
X108939360Y-69665499D01*
X108939362Y-69665499D01*
X109056758Y-69650045D01*
X109056759Y-69650044D01*
X109056762Y-69650044D01*
X109108374Y-69628665D01*
X109161041Y-69619337D01*
X109212740Y-69633060D01*
X109253848Y-69667283D01*
X109266772Y-69694611D01*
X109268535Y-69693763D01*
X109323532Y-69807967D01*
X109358196Y-69851433D01*
X109393854Y-69896146D01*
X109424779Y-69920808D01*
X109482032Y-69966467D01*
X109583649Y-70015403D01*
X109693606Y-70040500D01*
X109693607Y-70040500D01*
X109749901Y-70040500D01*
X109750000Y-70040500D01*
X109750500Y-70040500D01*
X114249500Y-70040500D01*
X114250099Y-70040500D01*
X114306393Y-70040500D01*
X114306394Y-70040500D01*
X114365646Y-70026976D01*
X114416351Y-70015403D01*
X114517967Y-69966467D01*
X114606146Y-69896146D01*
X114676467Y-69807967D01*
X114725403Y-69706351D01*
X114725403Y-69706350D01*
X114731465Y-69693763D01*
X114733227Y-69694611D01*
X114746152Y-69667283D01*
X114787260Y-69633061D01*
X114838958Y-69619337D01*
X114891626Y-69628665D01*
X114943238Y-69650044D01*
X115060639Y-69665500D01*
X115939360Y-69665499D01*
X115939362Y-69665499D01*
X115998061Y-69657771D01*
X116056762Y-69650044D01*
X116108373Y-69628666D01*
X116117371Y-69624939D01*
X116164824Y-69615500D01*
X116844192Y-69615500D01*
X116891645Y-69624939D01*
X116931873Y-69651819D01*
X117113181Y-69833127D01*
X117140061Y-69873355D01*
X117149500Y-69920808D01*
X117149500Y-70479192D01*
X117140061Y-70526645D01*
X117113181Y-70566873D01*
X116966873Y-70713181D01*
X116926645Y-70740061D01*
X116879192Y-70749500D01*
X105485504Y-70749500D01*
X105464294Y-70747158D01*
X105391737Y-70749439D01*
X105387842Y-70749500D01*
X105359071Y-70749500D01*
X105354690Y-70750053D01*
X105343059Y-70750968D01*
X105297428Y-70752402D01*
X105277052Y-70758322D01*
X105258006Y-70762267D01*
X105236939Y-70764928D01*
X105194487Y-70781736D01*
X105183439Y-70785519D01*
X105139600Y-70798256D01*
X105121330Y-70809061D01*
X105103862Y-70817618D01*
X105092463Y-70822132D01*
X105084126Y-70825433D01*
X105047191Y-70852266D01*
X105037435Y-70858675D01*
X104998135Y-70881918D01*
X104983125Y-70896928D01*
X104968336Y-70909558D01*
X104951164Y-70922034D01*
X104922057Y-70957218D01*
X104914196Y-70965856D01*
X103740484Y-72139568D01*
X103723831Y-72152910D01*
X103674133Y-72205833D01*
X103671427Y-72208626D01*
X103651083Y-72228971D01*
X103648376Y-72232460D01*
X103640807Y-72241321D01*
X103609551Y-72274607D01*
X103599322Y-72293212D01*
X103588645Y-72309467D01*
X103575636Y-72326238D01*
X103557506Y-72368132D01*
X103552370Y-72378616D01*
X103530372Y-72418632D01*
X103525091Y-72439199D01*
X103518791Y-72457600D01*
X103510364Y-72477074D01*
X103503223Y-72522161D01*
X103500855Y-72533593D01*
X103491646Y-72569467D01*
X103489500Y-72577824D01*
X103489500Y-72599045D01*
X103487973Y-72618444D01*
X103484653Y-72639403D01*
X103488950Y-72684861D01*
X103489500Y-72696530D01*
X103489500Y-75380914D01*
X103477595Y-75433931D01*
X103444165Y-75476767D01*
X103429117Y-75489116D01*
X103304089Y-75641462D01*
X103211185Y-75815273D01*
X103153976Y-76003866D01*
X103134659Y-76199999D01*
X103153976Y-76396133D01*
X103211185Y-76584726D01*
X103254447Y-76665663D01*
X103304090Y-76758538D01*
X103429117Y-76910883D01*
X103581462Y-77035910D01*
X103755273Y-77128814D01*
X103943868Y-77186024D01*
X104140000Y-77205341D01*
X104336132Y-77186024D01*
X104524727Y-77128814D01*
X104698538Y-77035910D01*
X104850883Y-76910883D01*
X104975910Y-76758538D01*
X105068814Y-76584727D01*
X105126024Y-76396132D01*
X105145341Y-76200000D01*
X105126024Y-76003868D01*
X105068814Y-75815273D01*
X104975910Y-75641462D01*
X104850883Y-75489117D01*
X104850882Y-75489116D01*
X104835835Y-75476767D01*
X104802405Y-75433931D01*
X104790500Y-75380914D01*
X104790500Y-72980808D01*
X104799939Y-72933355D01*
X104826819Y-72893127D01*
X105633127Y-72086819D01*
X105673355Y-72059939D01*
X105720808Y-72050500D01*
X106330191Y-72050500D01*
X106386486Y-72064015D01*
X106430509Y-72101615D01*
X106452664Y-72155102D01*
X106448122Y-72212818D01*
X106417872Y-72262180D01*
X106347736Y-72332317D01*
X106280485Y-72399568D01*
X106263832Y-72412909D01*
X106214133Y-72465833D01*
X106211427Y-72468626D01*
X106191083Y-72488971D01*
X106188376Y-72492460D01*
X106180807Y-72501321D01*
X106149551Y-72534607D01*
X106139322Y-72553212D01*
X106128645Y-72569467D01*
X106115636Y-72586238D01*
X106097506Y-72628132D01*
X106092370Y-72638616D01*
X106070372Y-72678632D01*
X106065091Y-72699199D01*
X106058791Y-72717600D01*
X106050364Y-72737074D01*
X106043223Y-72782161D01*
X106040855Y-72793593D01*
X106033108Y-72823773D01*
X106029500Y-72837824D01*
X106029500Y-72859045D01*
X106027973Y-72878444D01*
X106024653Y-72899403D01*
X106028950Y-72944861D01*
X106029500Y-72956530D01*
X106029500Y-75380914D01*
X106017595Y-75433931D01*
X105984165Y-75476767D01*
X105969117Y-75489116D01*
X105844089Y-75641462D01*
X105751185Y-75815273D01*
X105693976Y-76003866D01*
X105674659Y-76199999D01*
X105693976Y-76396133D01*
X105751185Y-76584726D01*
X105794447Y-76665663D01*
X105844090Y-76758538D01*
X105969117Y-76910883D01*
X106121462Y-77035910D01*
X106295273Y-77128814D01*
X106483868Y-77186024D01*
X106680000Y-77205341D01*
X106876132Y-77186024D01*
X107064727Y-77128814D01*
X107189585Y-77062076D01*
X108711476Y-77062076D01*
X108835465Y-77128349D01*
X109023969Y-77185531D01*
X109220000Y-77204838D01*
X109416030Y-77185531D01*
X109604538Y-77128347D01*
X109728522Y-77062077D01*
X109728522Y-77062076D01*
X109220001Y-76553553D01*
X109220000Y-76553553D01*
X108711476Y-77062076D01*
X107189585Y-77062076D01*
X107238538Y-77035910D01*
X107390883Y-76910883D01*
X107515910Y-76758538D01*
X107608814Y-76584727D01*
X107666024Y-76396132D01*
X107685341Y-76200000D01*
X107685341Y-76199999D01*
X108215161Y-76199999D01*
X108234468Y-76396032D01*
X108291650Y-76584537D01*
X108357921Y-76708522D01*
X108357922Y-76708522D01*
X108866446Y-76200001D01*
X109573553Y-76200001D01*
X110082076Y-76708522D01*
X110082077Y-76708522D01*
X110148347Y-76584538D01*
X110205531Y-76396030D01*
X110224838Y-76199999D01*
X110205531Y-76003969D01*
X110148349Y-75815465D01*
X110082076Y-75691476D01*
X109573553Y-76200000D01*
X109573553Y-76200001D01*
X108866446Y-76200001D01*
X108866446Y-76200000D01*
X108357922Y-75691476D01*
X108291649Y-75815466D01*
X108234468Y-76003967D01*
X108215161Y-76199999D01*
X107685341Y-76199999D01*
X107666024Y-76003868D01*
X107608814Y-75815273D01*
X107515910Y-75641462D01*
X107390883Y-75489117D01*
X107390882Y-75489116D01*
X107375835Y-75476767D01*
X107342405Y-75433931D01*
X107330500Y-75380914D01*
X107330500Y-75337922D01*
X108711476Y-75337922D01*
X109220000Y-75846446D01*
X109220001Y-75846446D01*
X109728522Y-75337922D01*
X109728522Y-75337921D01*
X109604537Y-75271650D01*
X109416032Y-75214468D01*
X109220000Y-75195161D01*
X109023967Y-75214468D01*
X108835466Y-75271649D01*
X108711476Y-75337922D01*
X107330500Y-75337922D01*
X107330500Y-73240808D01*
X107339939Y-73193355D01*
X107366819Y-73153127D01*
X107883127Y-72636819D01*
X107923355Y-72609939D01*
X107970808Y-72600500D01*
X117342313Y-72600500D01*
X117363522Y-72602841D01*
X117366112Y-72602759D01*
X117366114Y-72602760D01*
X117436080Y-72600560D01*
X117439975Y-72600500D01*
X117468738Y-72600500D01*
X117468743Y-72600500D01*
X117473120Y-72599946D01*
X117484759Y-72599030D01*
X117530387Y-72597597D01*
X117550767Y-72591675D01*
X117569807Y-72587732D01*
X117590876Y-72585071D01*
X117633338Y-72568258D01*
X117644375Y-72564480D01*
X117688216Y-72551744D01*
X117706488Y-72540936D01*
X117723954Y-72532380D01*
X117743689Y-72524568D01*
X117780634Y-72497725D01*
X117790366Y-72491332D01*
X117829683Y-72468081D01*
X117844692Y-72453071D01*
X117859481Y-72440439D01*
X117876655Y-72427963D01*
X117905764Y-72392774D01*
X117913608Y-72384154D01*
X118749513Y-71548249D01*
X118766162Y-71534912D01*
X118767936Y-71533022D01*
X118767940Y-71533020D01*
X118815898Y-71481948D01*
X118818546Y-71479216D01*
X118838911Y-71458853D01*
X118841611Y-71455370D01*
X118849187Y-71446499D01*
X118880448Y-71413211D01*
X118890675Y-71394605D01*
X118901348Y-71378357D01*
X118914362Y-71361582D01*
X118932495Y-71319675D01*
X118937625Y-71309205D01*
X118959627Y-71269186D01*
X118964903Y-71248631D01*
X118971206Y-71230220D01*
X118979635Y-71210745D01*
X118986777Y-71165643D01*
X118989140Y-71154236D01*
X119000500Y-71109995D01*
X119000500Y-71088767D01*
X119002027Y-71069368D01*
X119005346Y-71048413D01*
X119001050Y-71002966D01*
X119000500Y-70991297D01*
X119000500Y-69457686D01*
X119002841Y-69436476D01*
X119000561Y-69363919D01*
X119000500Y-69360024D01*
X119000500Y-69331263D01*
X119000500Y-69331257D01*
X118999946Y-69326877D01*
X118999030Y-69315236D01*
X118997597Y-69269612D01*
X118991675Y-69249229D01*
X118987732Y-69230192D01*
X118985071Y-69209124D01*
X118968266Y-69166680D01*
X118964481Y-69155626D01*
X118951744Y-69111784D01*
X118951744Y-69111783D01*
X118940934Y-69093504D01*
X118932380Y-69076044D01*
X118924568Y-69056311D01*
X118897723Y-69019362D01*
X118891332Y-69009633D01*
X118868081Y-68970317D01*
X118853068Y-68955304D01*
X118840435Y-68940512D01*
X118827963Y-68923345D01*
X118792779Y-68894238D01*
X118784140Y-68886376D01*
X118424945Y-68527181D01*
X118394695Y-68477818D01*
X118390153Y-68420102D01*
X118412308Y-68366615D01*
X118456331Y-68329015D01*
X118512626Y-68315500D01*
X119427313Y-68315500D01*
X119448522Y-68317841D01*
X119451112Y-68317759D01*
X119451114Y-68317760D01*
X119521080Y-68315560D01*
X119524975Y-68315500D01*
X119553738Y-68315500D01*
X119553743Y-68315500D01*
X119558120Y-68314946D01*
X119569759Y-68314030D01*
X119615387Y-68312597D01*
X119635767Y-68306675D01*
X119654807Y-68302732D01*
X119675876Y-68300071D01*
X119718338Y-68283258D01*
X119729375Y-68279480D01*
X119773216Y-68266744D01*
X119791488Y-68255936D01*
X119808954Y-68247380D01*
X119828689Y-68239568D01*
X119865634Y-68212725D01*
X119875366Y-68206332D01*
X119914683Y-68183081D01*
X119929692Y-68168071D01*
X119944481Y-68155439D01*
X119961655Y-68142963D01*
X119990764Y-68107774D01*
X119998608Y-68099154D01*
X121199513Y-66898249D01*
X121216162Y-66884912D01*
X121217936Y-66883022D01*
X121217940Y-66883020D01*
X121265898Y-66831948D01*
X121268546Y-66829216D01*
X121288911Y-66808853D01*
X121291611Y-66805370D01*
X121299187Y-66796499D01*
X121330448Y-66763211D01*
X121340675Y-66744605D01*
X121351348Y-66728357D01*
X121364362Y-66711582D01*
X121382495Y-66669675D01*
X121387625Y-66659205D01*
X121409627Y-66619186D01*
X121414903Y-66598631D01*
X121421206Y-66580220D01*
X121429635Y-66560745D01*
X121436777Y-66515643D01*
X121439140Y-66504236D01*
X121450500Y-66459995D01*
X121450500Y-66438767D01*
X121452027Y-66419368D01*
X121455346Y-66398413D01*
X121451050Y-66352966D01*
X121450500Y-66341297D01*
X121450500Y-54107687D01*
X121452841Y-54086477D01*
X121450561Y-54013920D01*
X121450500Y-54010025D01*
X121450500Y-53981263D01*
X121450500Y-53981257D01*
X121449946Y-53976877D01*
X121449030Y-53965236D01*
X121447597Y-53919613D01*
X121441675Y-53899230D01*
X121437731Y-53880188D01*
X121435870Y-53865451D01*
X121443161Y-53805397D01*
X121478000Y-53755938D01*
X121532093Y-53728849D01*
X121592565Y-53730577D01*
G37*
%TD.AperFunction*%
%TA.AperFunction,Conductor*%
G36*
X95996353Y-29009027D02*
G01*
X96036035Y-29034793D01*
X96128429Y-29124000D01*
X107514385Y-40117338D01*
X107544775Y-40164127D01*
X107551576Y-40219503D01*
X107544792Y-40284059D01*
X107544792Y-40284062D01*
X107564579Y-40472318D01*
X107564580Y-40472321D01*
X107625251Y-40659053D01*
X107627894Y-40726318D01*
X107595001Y-40785051D01*
X105200484Y-43179568D01*
X105183831Y-43192910D01*
X105134133Y-43245833D01*
X105131427Y-43248626D01*
X105111083Y-43268971D01*
X105108376Y-43272460D01*
X105100807Y-43281321D01*
X105069551Y-43314607D01*
X105059322Y-43333212D01*
X105048645Y-43349467D01*
X105035636Y-43366238D01*
X105017506Y-43408132D01*
X105012370Y-43418616D01*
X104990372Y-43458632D01*
X104985091Y-43479199D01*
X104978791Y-43497600D01*
X104970364Y-43517074D01*
X104963223Y-43562161D01*
X104960855Y-43573598D01*
X104949500Y-43617824D01*
X104949500Y-43639045D01*
X104947973Y-43658444D01*
X104944653Y-43679403D01*
X104948950Y-43724861D01*
X104949500Y-43736530D01*
X104949500Y-47114495D01*
X104947158Y-47135704D01*
X104949439Y-47208262D01*
X104949500Y-47212157D01*
X104949500Y-47240926D01*
X104950053Y-47245307D01*
X104950968Y-47256940D01*
X104952402Y-47302569D01*
X104958323Y-47322950D01*
X104962267Y-47341995D01*
X104964928Y-47363059D01*
X104981737Y-47405515D01*
X104985520Y-47416563D01*
X104998256Y-47460400D01*
X105009061Y-47478670D01*
X105017621Y-47496143D01*
X105025431Y-47515869D01*
X105052267Y-47552808D01*
X105058673Y-47562560D01*
X105081919Y-47601865D01*
X105081921Y-47601867D01*
X105096925Y-47616871D01*
X105109564Y-47631669D01*
X105122037Y-47648837D01*
X105157212Y-47677936D01*
X105165854Y-47685800D01*
X111213181Y-53733127D01*
X111240061Y-53773355D01*
X111249500Y-53820808D01*
X111249500Y-55384485D01*
X111232232Y-55447606D01*
X111148255Y-55589602D01*
X111102402Y-55747427D01*
X111099500Y-55784308D01*
X111099500Y-57015692D01*
X111102402Y-57052572D01*
X111148255Y-57210397D01*
X111232232Y-57352394D01*
X111249500Y-57415515D01*
X111249500Y-59384485D01*
X111232232Y-59447606D01*
X111148256Y-59589600D01*
X111145380Y-59599500D01*
X111142301Y-59610096D01*
X111117094Y-59656524D01*
X111074845Y-59688245D01*
X111023226Y-59699500D01*
X110608156Y-59699500D01*
X110569838Y-59693431D01*
X110535270Y-59675818D01*
X110452731Y-59615849D01*
X110384412Y-59585431D01*
X110293260Y-59544847D01*
X110243634Y-59504802D01*
X110220470Y-59445387D01*
X110227487Y-59398447D01*
X110227185Y-59398400D01*
X110229636Y-59382926D01*
X110240144Y-59316577D01*
X110261041Y-59264855D01*
X110287102Y-59227639D01*
X110379575Y-59029330D01*
X110436207Y-58817977D01*
X110455277Y-58600000D01*
X110436207Y-58382023D01*
X110379575Y-58170670D01*
X110287102Y-57972362D01*
X110161598Y-57793123D01*
X110006877Y-57638402D01*
X109883374Y-57551924D01*
X109844511Y-57507608D01*
X109830500Y-57450351D01*
X109830500Y-57176309D01*
X109844015Y-57120014D01*
X109881615Y-57075991D01*
X109935102Y-57053836D01*
X109992818Y-57058378D01*
X110042181Y-57088628D01*
X110243124Y-57289572D01*
X110286667Y-57227385D01*
X110379102Y-57029159D01*
X110435712Y-56817886D01*
X110454775Y-56600000D01*
X110435712Y-56382113D01*
X110379102Y-56170840D01*
X110286667Y-55972615D01*
X110243123Y-55910428D01*
X109590372Y-56563181D01*
X109550144Y-56590061D01*
X109502691Y-56599500D01*
X108897309Y-56599500D01*
X108849856Y-56590061D01*
X108809628Y-56563181D01*
X108156875Y-55910427D01*
X108156874Y-55910428D01*
X108113333Y-55972611D01*
X108020897Y-56170840D01*
X107964287Y-56382113D01*
X107945224Y-56600000D01*
X107964287Y-56817886D01*
X108020898Y-57029161D01*
X108113331Y-57227386D01*
X108156873Y-57289571D01*
X108156874Y-57289572D01*
X108347819Y-57098628D01*
X108397182Y-57068378D01*
X108454898Y-57063836D01*
X108508385Y-57085991D01*
X108545985Y-57130014D01*
X108559500Y-57186309D01*
X108559500Y-57457354D01*
X108545489Y-57514611D01*
X108506623Y-57558929D01*
X108393122Y-57638402D01*
X108238402Y-57793122D01*
X108112898Y-57972361D01*
X108020425Y-58170668D01*
X107963792Y-58382025D01*
X107944722Y-58600000D01*
X107963792Y-58817974D01*
X108020425Y-59029331D01*
X108112898Y-59227639D01*
X108131437Y-59254116D01*
X108148937Y-59290643D01*
X108198255Y-59460396D01*
X108281919Y-59601865D01*
X108479564Y-59799510D01*
X108492911Y-59816168D01*
X108510383Y-59832575D01*
X108539301Y-59873721D01*
X108549500Y-59922968D01*
X108549500Y-60114495D01*
X108547158Y-60135704D01*
X108549439Y-60208262D01*
X108549500Y-60212157D01*
X108549500Y-60240926D01*
X108550053Y-60245307D01*
X108550968Y-60256940D01*
X108552402Y-60302569D01*
X108558323Y-60322950D01*
X108562267Y-60341995D01*
X108564928Y-60363059D01*
X108581737Y-60405515D01*
X108585520Y-60416563D01*
X108598256Y-60460400D01*
X108609061Y-60478670D01*
X108617621Y-60496143D01*
X108625431Y-60515869D01*
X108652267Y-60552808D01*
X108658673Y-60562560D01*
X108681919Y-60601865D01*
X108681921Y-60601867D01*
X108696925Y-60616871D01*
X108709564Y-60631669D01*
X108722037Y-60648837D01*
X108757212Y-60677936D01*
X108765854Y-60685800D01*
X108829564Y-60749510D01*
X108842912Y-60766169D01*
X108895831Y-60815864D01*
X108898628Y-60818575D01*
X108918961Y-60838908D01*
X108922442Y-60841608D01*
X108931325Y-60849194D01*
X108964607Y-60880448D01*
X108983206Y-60890673D01*
X108999466Y-60901354D01*
X109016236Y-60914362D01*
X109036046Y-60922934D01*
X109058129Y-60932491D01*
X109068620Y-60937630D01*
X109108632Y-60959627D01*
X109129196Y-60964906D01*
X109147601Y-60971208D01*
X109167074Y-60979635D01*
X109212171Y-60986777D01*
X109223586Y-60989141D01*
X109267823Y-61000500D01*
X109273742Y-61000500D01*
X109324177Y-61011220D01*
X109365892Y-61041528D01*
X109394129Y-61072889D01*
X109547269Y-61184151D01*
X109720197Y-61261144D01*
X109905352Y-61300500D01*
X109905354Y-61300500D01*
X110094646Y-61300500D01*
X110094648Y-61300500D01*
X110246969Y-61268123D01*
X110279803Y-61261144D01*
X110452730Y-61184151D01*
X110605871Y-61072888D01*
X110605870Y-61072888D01*
X110634110Y-61041527D01*
X110675824Y-61011220D01*
X110726259Y-61000500D01*
X111023226Y-61000500D01*
X111074845Y-61011755D01*
X111117094Y-61043476D01*
X111142301Y-61089903D01*
X111146320Y-61103736D01*
X111148256Y-61110399D01*
X111232232Y-61252394D01*
X111249500Y-61315515D01*
X111249500Y-61340926D01*
X111250053Y-61345307D01*
X111250968Y-61356940D01*
X111252402Y-61402569D01*
X111258323Y-61422950D01*
X111262267Y-61441995D01*
X111264928Y-61463059D01*
X111281737Y-61505515D01*
X111285520Y-61516563D01*
X111298256Y-61560400D01*
X111309061Y-61578670D01*
X111317621Y-61596143D01*
X111325431Y-61615869D01*
X111352267Y-61652808D01*
X111358673Y-61662560D01*
X111381919Y-61701865D01*
X111381921Y-61701867D01*
X111396925Y-61716871D01*
X111409564Y-61731669D01*
X111422037Y-61748837D01*
X111457212Y-61777936D01*
X111465854Y-61785800D01*
X111507873Y-61827819D01*
X111538123Y-61877182D01*
X111542665Y-61934898D01*
X111520510Y-61988385D01*
X111476487Y-62025985D01*
X111420192Y-62039500D01*
X109693606Y-62039500D01*
X109583649Y-62064596D01*
X109482032Y-62113532D01*
X109393854Y-62183854D01*
X109323532Y-62272032D01*
X109268535Y-62386237D01*
X109266772Y-62385388D01*
X109253832Y-62412735D01*
X109212725Y-62446946D01*
X109161033Y-62460663D01*
X109108373Y-62451334D01*
X109056762Y-62429956D01*
X109056761Y-62429955D01*
X109056759Y-62429955D01*
X108939362Y-62414500D01*
X108060637Y-62414500D01*
X107943239Y-62429955D01*
X107882629Y-62455061D01*
X107835176Y-62464500D01*
X96392686Y-62464500D01*
X96371476Y-62462158D01*
X96298919Y-62464439D01*
X96295024Y-62464500D01*
X96266253Y-62464500D01*
X96261872Y-62465053D01*
X96250241Y-62465968D01*
X96204612Y-62467402D01*
X96184233Y-62473323D01*
X96165189Y-62477267D01*
X96150821Y-62479082D01*
X96144123Y-62479929D01*
X96101672Y-62496736D01*
X96090625Y-62500518D01*
X96046780Y-62513256D01*
X96028512Y-62524060D01*
X96011046Y-62532617D01*
X95991311Y-62540431D01*
X95954384Y-62567260D01*
X95944624Y-62573671D01*
X95905318Y-62596917D01*
X95890307Y-62611928D01*
X95875518Y-62624558D01*
X95858346Y-62637034D01*
X95829239Y-62672218D01*
X95821378Y-62680856D01*
X92850484Y-65651750D01*
X92833831Y-65665092D01*
X92784133Y-65718015D01*
X92781427Y-65720808D01*
X92761083Y-65741153D01*
X92758376Y-65744642D01*
X92750807Y-65753503D01*
X92719551Y-65786789D01*
X92709322Y-65805394D01*
X92698645Y-65821649D01*
X92685636Y-65838420D01*
X92667506Y-65880314D01*
X92662370Y-65890798D01*
X92640372Y-65930814D01*
X92635091Y-65951381D01*
X92628791Y-65969782D01*
X92620364Y-65989256D01*
X92613223Y-66034343D01*
X92610855Y-66045780D01*
X92599500Y-66090006D01*
X92599500Y-66111227D01*
X92597973Y-66130626D01*
X92594653Y-66151585D01*
X92598950Y-66197043D01*
X92599500Y-66208712D01*
X92599500Y-74625500D01*
X92582887Y-74687500D01*
X92537500Y-74732887D01*
X92475500Y-74749500D01*
X92120808Y-74749500D01*
X92073355Y-74740061D01*
X92033127Y-74713181D01*
X91886819Y-74566873D01*
X91859939Y-74526645D01*
X91850500Y-74479192D01*
X91850500Y-73285505D01*
X91852841Y-73264294D01*
X91852155Y-73242467D01*
X91850561Y-73191724D01*
X91850500Y-73187829D01*
X91850500Y-73159082D01*
X91850500Y-73159075D01*
X91849947Y-73154700D01*
X91849031Y-73143063D01*
X91847598Y-73097431D01*
X91841675Y-73077045D01*
X91837731Y-73058004D01*
X91835071Y-73036942D01*
X91818267Y-72994501D01*
X91814484Y-72983452D01*
X91813716Y-72980808D01*
X91801745Y-72939602D01*
X91798594Y-72934275D01*
X91790937Y-72921326D01*
X91782376Y-72903850D01*
X91774568Y-72884129D01*
X91747731Y-72847191D01*
X91741317Y-72837425D01*
X91718081Y-72798135D01*
X91703074Y-72783128D01*
X91690436Y-72768331D01*
X91686248Y-72762567D01*
X91677963Y-72751163D01*
X91642779Y-72722056D01*
X91634140Y-72714194D01*
X91520434Y-72600488D01*
X91507091Y-72583833D01*
X91454166Y-72534134D01*
X91451369Y-72531423D01*
X91431034Y-72511088D01*
X91427547Y-72508383D01*
X91418671Y-72500801D01*
X91385394Y-72469552D01*
X91366793Y-72459326D01*
X91350532Y-72448645D01*
X91340581Y-72440926D01*
X91333764Y-72435638D01*
X91316028Y-72427963D01*
X91291869Y-72417508D01*
X91281379Y-72412369D01*
X91241367Y-72390372D01*
X91220800Y-72385091D01*
X91202398Y-72378791D01*
X91182924Y-72370364D01*
X91137837Y-72363223D01*
X91126398Y-72360854D01*
X91082178Y-72349500D01*
X91082177Y-72349500D01*
X91060955Y-72349500D01*
X91041556Y-72347973D01*
X91020596Y-72344653D01*
X91020595Y-72344653D01*
X90999904Y-72346609D01*
X90975139Y-72348950D01*
X90963470Y-72349500D01*
X90135644Y-72349500D01*
X90078387Y-72335489D01*
X90034069Y-72296623D01*
X90028904Y-72289246D01*
X89961598Y-72193123D01*
X89806877Y-72038402D01*
X89627639Y-71912898D01*
X89536205Y-71870261D01*
X89429331Y-71820425D01*
X89217974Y-71763792D01*
X88999999Y-71744722D01*
X88782025Y-71763792D01*
X88570668Y-71820425D01*
X88372361Y-71912898D01*
X88193122Y-72038402D01*
X88087681Y-72143844D01*
X88032094Y-72175938D01*
X87967906Y-72175938D01*
X87912319Y-72143844D01*
X87806880Y-72038405D01*
X87806879Y-72038404D01*
X87806877Y-72038402D01*
X87627639Y-71912898D01*
X87536205Y-71870261D01*
X87429331Y-71820425D01*
X87217974Y-71763792D01*
X86999999Y-71744722D01*
X86782025Y-71763792D01*
X86570668Y-71820425D01*
X86372363Y-71912897D01*
X86345884Y-71931437D01*
X86309358Y-71948936D01*
X86139602Y-71998254D01*
X85998132Y-72081920D01*
X85987678Y-72092374D01*
X85932091Y-72124466D01*
X85867905Y-72124466D01*
X85812318Y-72092372D01*
X85686819Y-71966873D01*
X85659939Y-71926645D01*
X85650500Y-71879192D01*
X85650500Y-55720808D01*
X85659939Y-55673355D01*
X85686819Y-55633127D01*
X85763071Y-55556875D01*
X108510427Y-55556875D01*
X109200000Y-56246447D01*
X109200001Y-56246447D01*
X109889572Y-55556875D01*
X109889571Y-55556873D01*
X109827386Y-55513331D01*
X109629161Y-55420898D01*
X109417886Y-55364287D01*
X109200000Y-55345224D01*
X108982113Y-55364287D01*
X108770840Y-55420897D01*
X108572611Y-55513333D01*
X108510428Y-55556874D01*
X108510427Y-55556875D01*
X85763071Y-55556875D01*
X86833127Y-54486819D01*
X86873355Y-54459939D01*
X86920808Y-54450500D01*
X89714495Y-54450500D01*
X89735704Y-54452841D01*
X89738294Y-54452759D01*
X89738296Y-54452760D01*
X89808262Y-54450560D01*
X89812157Y-54450500D01*
X89840920Y-54450500D01*
X89840925Y-54450500D01*
X89845302Y-54449946D01*
X89856941Y-54449030D01*
X89902569Y-54447597D01*
X89922949Y-54441675D01*
X89941989Y-54437732D01*
X89963058Y-54435071D01*
X90005520Y-54418258D01*
X90016557Y-54414480D01*
X90060398Y-54401744D01*
X90078670Y-54390936D01*
X90096136Y-54382380D01*
X90115871Y-54374568D01*
X90152816Y-54347725D01*
X90162548Y-54341332D01*
X90201865Y-54318081D01*
X90216874Y-54303071D01*
X90231663Y-54290439D01*
X90248837Y-54277963D01*
X90277946Y-54242774D01*
X90285790Y-54234154D01*
X91599513Y-52920431D01*
X91616162Y-52907094D01*
X91617936Y-52905204D01*
X91617940Y-52905202D01*
X91665898Y-52854130D01*
X91668546Y-52851398D01*
X91688911Y-52831035D01*
X91691611Y-52827552D01*
X91699187Y-52818681D01*
X91730448Y-52785393D01*
X91740675Y-52766787D01*
X91751348Y-52750539D01*
X91764362Y-52733764D01*
X91782491Y-52691868D01*
X91787631Y-52681377D01*
X91798862Y-52660949D01*
X91809627Y-52641368D01*
X91814906Y-52620805D01*
X91821204Y-52602406D01*
X91829635Y-52582926D01*
X91836777Y-52537824D01*
X91839145Y-52526397D01*
X91850500Y-52482178D01*
X91850500Y-52460955D01*
X91852027Y-52441556D01*
X91852336Y-52439602D01*
X91855347Y-52420595D01*
X91851050Y-52375139D01*
X91850500Y-52363470D01*
X91850500Y-51485504D01*
X91852841Y-51464294D01*
X91851742Y-51429330D01*
X91850560Y-51391736D01*
X91850500Y-51387842D01*
X91850500Y-51359081D01*
X91850500Y-51359075D01*
X91849946Y-51354695D01*
X91849030Y-51343054D01*
X91848708Y-51332809D01*
X91847597Y-51297430D01*
X91841675Y-51277047D01*
X91837732Y-51258010D01*
X91835071Y-51236942D01*
X91818266Y-51194498D01*
X91814481Y-51183444D01*
X91803891Y-51146993D01*
X91801744Y-51139601D01*
X91790934Y-51121322D01*
X91782380Y-51103862D01*
X91774568Y-51084129D01*
X91747723Y-51047180D01*
X91741332Y-51037451D01*
X91718081Y-50998135D01*
X91703068Y-50983122D01*
X91690435Y-50968330D01*
X91677963Y-50951163D01*
X91642779Y-50922056D01*
X91634140Y-50914194D01*
X91320434Y-50600488D01*
X91307091Y-50583833D01*
X91254166Y-50534134D01*
X91251369Y-50531423D01*
X91231034Y-50511088D01*
X91227547Y-50508383D01*
X91218671Y-50500801D01*
X91185394Y-50469552D01*
X91166793Y-50459326D01*
X91150532Y-50448645D01*
X91133764Y-50435638D01*
X91091870Y-50417508D01*
X91081379Y-50412369D01*
X91041367Y-50390372D01*
X91020800Y-50385091D01*
X91002398Y-50378791D01*
X90982924Y-50370364D01*
X90937837Y-50363223D01*
X90926398Y-50360854D01*
X90882178Y-50349500D01*
X90882177Y-50349500D01*
X90860955Y-50349500D01*
X90841556Y-50347973D01*
X90820596Y-50344653D01*
X90820595Y-50344653D01*
X90811752Y-50345489D01*
X90775139Y-50348950D01*
X90763470Y-50349500D01*
X90320808Y-50349500D01*
X90273355Y-50340061D01*
X90233127Y-50313181D01*
X90031039Y-50111092D01*
X89933764Y-50035638D01*
X89782924Y-49970364D01*
X89716580Y-49959856D01*
X89664857Y-49938959D01*
X89627639Y-49912898D01*
X89536205Y-49870261D01*
X89429331Y-49820425D01*
X89217974Y-49763792D01*
X89000000Y-49744722D01*
X88782025Y-49763792D01*
X88570668Y-49820425D01*
X88372361Y-49912898D01*
X88193122Y-50038402D01*
X88038402Y-50193122D01*
X87958929Y-50306623D01*
X87914611Y-50345489D01*
X87857354Y-50359500D01*
X87586309Y-50359500D01*
X87530014Y-50345985D01*
X87485991Y-50308385D01*
X87463836Y-50254898D01*
X87468378Y-50197182D01*
X87498628Y-50147819D01*
X87689572Y-49956874D01*
X87689571Y-49956873D01*
X87627386Y-49913331D01*
X87429161Y-49820898D01*
X87217886Y-49764287D01*
X87000000Y-49745224D01*
X86782113Y-49764287D01*
X86570840Y-49820897D01*
X86372611Y-49913333D01*
X86310428Y-49956874D01*
X86310427Y-49956875D01*
X86963181Y-50609628D01*
X86990061Y-50649856D01*
X86999500Y-50697309D01*
X86999500Y-51302691D01*
X86990061Y-51350144D01*
X86963181Y-51390372D01*
X86310426Y-52043124D01*
X86310427Y-52043125D01*
X86372610Y-52086666D01*
X86570840Y-52179102D01*
X86782113Y-52235712D01*
X87000000Y-52254775D01*
X87217886Y-52235712D01*
X87429159Y-52179102D01*
X87627385Y-52086667D01*
X87689572Y-52043124D01*
X87488628Y-51842181D01*
X87458378Y-51792818D01*
X87453836Y-51735102D01*
X87475991Y-51681615D01*
X87520014Y-51644015D01*
X87576309Y-51630500D01*
X87850351Y-51630500D01*
X87907608Y-51644511D01*
X87951924Y-51683374D01*
X88038402Y-51806877D01*
X88193123Y-51961598D01*
X88372361Y-52087102D01*
X88570670Y-52179575D01*
X88782023Y-52236207D01*
X89000000Y-52255277D01*
X89217977Y-52236207D01*
X89429330Y-52179575D01*
X89627639Y-52087102D01*
X89654116Y-52068561D01*
X89690643Y-52051061D01*
X89702565Y-52047597D01*
X89702569Y-52047597D01*
X89860398Y-52001744D01*
X90001865Y-51918081D01*
X90199518Y-51720426D01*
X90216163Y-51707093D01*
X90217937Y-51705203D01*
X90217940Y-51705202D01*
X90232574Y-51689617D01*
X90273721Y-51660699D01*
X90322968Y-51650500D01*
X90425500Y-51650500D01*
X90487500Y-51667113D01*
X90532887Y-51712500D01*
X90549500Y-51774500D01*
X90549500Y-52079192D01*
X90540061Y-52126645D01*
X90513181Y-52166873D01*
X89566873Y-53113181D01*
X89526645Y-53140061D01*
X89479192Y-53149500D01*
X86685505Y-53149500D01*
X86664294Y-53147158D01*
X86591724Y-53149439D01*
X86587829Y-53149500D01*
X86559074Y-53149500D01*
X86554701Y-53150052D01*
X86543069Y-53150967D01*
X86497428Y-53152401D01*
X86477041Y-53158324D01*
X86457998Y-53162268D01*
X86436942Y-53164928D01*
X86394496Y-53181733D01*
X86383450Y-53185514D01*
X86339602Y-53198254D01*
X86321324Y-53209063D01*
X86303861Y-53217618D01*
X86284130Y-53225431D01*
X86247187Y-53252270D01*
X86237428Y-53258680D01*
X86198135Y-53281918D01*
X86183125Y-53296928D01*
X86168336Y-53309558D01*
X86151164Y-53322034D01*
X86122057Y-53357218D01*
X86114196Y-53365856D01*
X84600484Y-54879568D01*
X84583831Y-54892910D01*
X84534133Y-54945833D01*
X84531427Y-54948626D01*
X84511083Y-54968971D01*
X84508376Y-54972460D01*
X84500807Y-54981321D01*
X84469551Y-55014607D01*
X84459322Y-55033212D01*
X84448645Y-55049467D01*
X84435636Y-55066238D01*
X84417506Y-55108132D01*
X84412370Y-55118616D01*
X84390372Y-55158632D01*
X84385091Y-55179199D01*
X84378791Y-55197600D01*
X84370364Y-55217074D01*
X84363223Y-55262161D01*
X84360855Y-55273598D01*
X84349500Y-55317824D01*
X84349500Y-55339045D01*
X84347973Y-55358444D01*
X84344653Y-55379403D01*
X84348950Y-55424861D01*
X84349500Y-55436530D01*
X84349500Y-72114495D01*
X84347158Y-72135704D01*
X84349439Y-72208262D01*
X84349500Y-72212157D01*
X84349500Y-72240926D01*
X84350053Y-72245307D01*
X84350968Y-72256940D01*
X84352402Y-72302569D01*
X84358323Y-72322950D01*
X84362267Y-72341995D01*
X84364928Y-72363059D01*
X84381737Y-72405515D01*
X84385520Y-72416563D01*
X84398256Y-72460400D01*
X84409061Y-72478670D01*
X84417621Y-72496143D01*
X84425431Y-72515869D01*
X84452267Y-72552808D01*
X84458673Y-72562560D01*
X84481919Y-72601865D01*
X84481921Y-72601867D01*
X84496925Y-72616871D01*
X84509562Y-72631667D01*
X84514611Y-72638616D01*
X84522037Y-72648837D01*
X84557212Y-72677936D01*
X84565854Y-72685800D01*
X85279564Y-73399510D01*
X85292912Y-73416169D01*
X85345831Y-73465864D01*
X85348628Y-73468575D01*
X85368965Y-73488912D01*
X85372448Y-73491614D01*
X85381326Y-73499196D01*
X85405670Y-73522056D01*
X85414607Y-73530448D01*
X85433198Y-73540668D01*
X85449462Y-73551351D01*
X85466235Y-73564362D01*
X85508138Y-73582495D01*
X85518622Y-73587631D01*
X85558632Y-73609627D01*
X85579197Y-73614906D01*
X85597593Y-73621205D01*
X85617074Y-73629636D01*
X85662178Y-73636779D01*
X85673597Y-73639144D01*
X85700004Y-73645924D01*
X85748203Y-73670483D01*
X85756149Y-73677057D01*
X85757212Y-73677936D01*
X85765853Y-73685799D01*
X85968961Y-73888908D01*
X85968965Y-73888911D01*
X85968966Y-73888912D01*
X86066237Y-73964363D01*
X86110331Y-73983444D01*
X86217070Y-74029635D01*
X86217072Y-74029635D01*
X86217074Y-74029636D01*
X86283421Y-74040144D01*
X86335144Y-74061042D01*
X86372359Y-74087101D01*
X86372360Y-74087101D01*
X86372361Y-74087102D01*
X86570670Y-74179575D01*
X86782023Y-74236207D01*
X87000000Y-74255277D01*
X87217977Y-74236207D01*
X87429330Y-74179575D01*
X87627639Y-74087102D01*
X87806877Y-73961598D01*
X87912321Y-73856153D01*
X87967905Y-73824062D01*
X88032092Y-73824062D01*
X88087680Y-73856155D01*
X88193123Y-73961598D01*
X88372361Y-74087102D01*
X88570670Y-74179575D01*
X88782023Y-74236207D01*
X89000000Y-74255277D01*
X89217977Y-74236207D01*
X89429330Y-74179575D01*
X89627639Y-74087102D01*
X89806877Y-73961598D01*
X89961598Y-73806877D01*
X90034071Y-73703374D01*
X90078388Y-73664511D01*
X90135645Y-73650500D01*
X90425500Y-73650500D01*
X90487500Y-73667113D01*
X90532887Y-73712500D01*
X90549500Y-73774500D01*
X90549500Y-74714495D01*
X90547158Y-74735704D01*
X90549439Y-74808262D01*
X90549500Y-74812157D01*
X90549500Y-74840926D01*
X90550053Y-74845307D01*
X90550968Y-74856940D01*
X90552402Y-74902569D01*
X90558323Y-74922950D01*
X90562267Y-74941995D01*
X90564928Y-74963059D01*
X90581737Y-75005515D01*
X90585520Y-75016563D01*
X90598256Y-75060400D01*
X90609061Y-75078670D01*
X90617621Y-75096143D01*
X90625431Y-75115869D01*
X90652128Y-75152616D01*
X90675427Y-75215773D01*
X90662293Y-75281796D01*
X90616598Y-75331228D01*
X90551809Y-75349500D01*
X85374500Y-75349500D01*
X85312500Y-75332887D01*
X85267113Y-75287500D01*
X85250500Y-75225500D01*
X85250500Y-74285504D01*
X85252841Y-74264294D01*
X85252450Y-74251858D01*
X85250560Y-74191736D01*
X85250500Y-74187842D01*
X85250500Y-74159081D01*
X85250500Y-74159075D01*
X85249946Y-74154695D01*
X85249030Y-74143054D01*
X85248331Y-74120808D01*
X85247597Y-74097430D01*
X85241675Y-74077047D01*
X85237732Y-74058010D01*
X85235071Y-74036942D01*
X85218266Y-73994498D01*
X85214481Y-73983444D01*
X85208133Y-73961594D01*
X85201744Y-73939601D01*
X85190934Y-73921322D01*
X85182380Y-73903862D01*
X85174568Y-73884129D01*
X85147723Y-73847180D01*
X85141332Y-73837451D01*
X85118081Y-73798135D01*
X85103068Y-73783122D01*
X85090435Y-73768330D01*
X85077963Y-73751163D01*
X85042779Y-73722056D01*
X85034140Y-73714194D01*
X83920434Y-72600488D01*
X83907091Y-72583833D01*
X83854166Y-72534134D01*
X83851369Y-72531423D01*
X83831034Y-72511088D01*
X83827547Y-72508383D01*
X83818671Y-72500801D01*
X83785394Y-72469552D01*
X83766793Y-72459326D01*
X83750532Y-72448645D01*
X83740581Y-72440926D01*
X83733764Y-72435638D01*
X83716028Y-72427963D01*
X83691869Y-72417508D01*
X83681379Y-72412369D01*
X83641367Y-72390372D01*
X83620800Y-72385091D01*
X83602398Y-72378791D01*
X83582924Y-72370364D01*
X83537837Y-72363223D01*
X83526398Y-72360854D01*
X83482178Y-72349500D01*
X83482177Y-72349500D01*
X83460955Y-72349500D01*
X83441556Y-72347973D01*
X83420596Y-72344653D01*
X83420595Y-72344653D01*
X83399904Y-72346609D01*
X83375139Y-72348950D01*
X83363470Y-72349500D01*
X83320808Y-72349500D01*
X83273355Y-72340061D01*
X83233127Y-72313181D01*
X83031039Y-72111092D01*
X82933764Y-72035638D01*
X82782924Y-71970364D01*
X82716580Y-71959856D01*
X82664857Y-71938959D01*
X82627639Y-71912898D01*
X82536205Y-71870261D01*
X82429331Y-71820425D01*
X82217974Y-71763792D01*
X81999999Y-71744722D01*
X81782025Y-71763792D01*
X81570668Y-71820425D01*
X81372361Y-71912898D01*
X81193122Y-72038402D01*
X81087681Y-72143844D01*
X81032094Y-72175938D01*
X80967906Y-72175938D01*
X80912319Y-72143844D01*
X80806880Y-72038405D01*
X80806879Y-72038404D01*
X80806877Y-72038402D01*
X80627639Y-71912898D01*
X80536205Y-71870261D01*
X80429331Y-71820425D01*
X80217974Y-71763792D01*
X79999999Y-71744722D01*
X79782025Y-71763792D01*
X79570668Y-71820425D01*
X79372363Y-71912897D01*
X79345884Y-71931437D01*
X79309358Y-71948936D01*
X79139602Y-71998254D01*
X78998135Y-72081918D01*
X78887680Y-72192373D01*
X78832092Y-72224466D01*
X78767905Y-72224466D01*
X78712318Y-72192372D01*
X78686819Y-72166873D01*
X78659939Y-72126645D01*
X78650500Y-72079192D01*
X78650500Y-55720808D01*
X78659939Y-55673355D01*
X78686819Y-55633127D01*
X79833127Y-54486819D01*
X79873355Y-54459939D01*
X79920808Y-54450500D01*
X82714495Y-54450500D01*
X82735704Y-54452841D01*
X82738294Y-54452759D01*
X82738296Y-54452760D01*
X82808262Y-54450560D01*
X82812157Y-54450500D01*
X82840920Y-54450500D01*
X82840925Y-54450500D01*
X82845302Y-54449946D01*
X82856941Y-54449030D01*
X82902569Y-54447597D01*
X82922949Y-54441675D01*
X82941989Y-54437732D01*
X82963058Y-54435071D01*
X83005520Y-54418258D01*
X83016557Y-54414480D01*
X83060398Y-54401744D01*
X83078670Y-54390936D01*
X83096136Y-54382380D01*
X83115871Y-54374568D01*
X83152816Y-54347725D01*
X83162548Y-54341332D01*
X83201865Y-54318081D01*
X83216874Y-54303071D01*
X83231663Y-54290439D01*
X83248837Y-54277963D01*
X83277946Y-54242774D01*
X83285790Y-54234154D01*
X84799513Y-52720431D01*
X84816162Y-52707094D01*
X84817936Y-52705204D01*
X84817940Y-52705202D01*
X84865898Y-52654130D01*
X84868546Y-52651398D01*
X84888912Y-52631034D01*
X84891612Y-52627551D01*
X84899188Y-52618680D01*
X84930448Y-52585393D01*
X84940672Y-52566793D01*
X84951351Y-52550536D01*
X84964363Y-52533763D01*
X84982498Y-52491852D01*
X84987633Y-52481374D01*
X85009626Y-52441370D01*
X85014903Y-52420815D01*
X85021208Y-52402399D01*
X85029636Y-52382926D01*
X85036778Y-52337824D01*
X85039143Y-52326405D01*
X85050500Y-52282177D01*
X85050500Y-52260955D01*
X85052027Y-52241556D01*
X85052874Y-52236207D01*
X85055347Y-52220595D01*
X85051049Y-52175136D01*
X85050500Y-52163469D01*
X85050500Y-51485504D01*
X85052841Y-51464294D01*
X85051742Y-51429330D01*
X85050560Y-51391736D01*
X85050500Y-51387842D01*
X85050500Y-51359081D01*
X85050500Y-51359075D01*
X85049946Y-51354695D01*
X85049030Y-51343054D01*
X85048708Y-51332809D01*
X85047597Y-51297430D01*
X85041675Y-51277047D01*
X85037732Y-51258010D01*
X85035071Y-51236942D01*
X85018266Y-51194498D01*
X85014481Y-51183444D01*
X85003891Y-51146993D01*
X85001744Y-51139601D01*
X84990934Y-51121322D01*
X84982380Y-51103862D01*
X84974568Y-51084129D01*
X84947723Y-51047180D01*
X84941332Y-51037451D01*
X84919184Y-51000000D01*
X85745224Y-51000000D01*
X85764287Y-51217886D01*
X85820898Y-51429161D01*
X85913331Y-51627386D01*
X85956873Y-51689571D01*
X85956875Y-51689572D01*
X86646447Y-51000001D01*
X86646447Y-51000000D01*
X85956875Y-50310427D01*
X85956874Y-50310428D01*
X85913333Y-50372611D01*
X85820897Y-50570840D01*
X85764287Y-50782113D01*
X85745224Y-51000000D01*
X84919184Y-51000000D01*
X84918081Y-50998135D01*
X84903068Y-50983122D01*
X84890435Y-50968330D01*
X84877963Y-50951163D01*
X84842779Y-50922056D01*
X84834140Y-50914194D01*
X84520434Y-50600488D01*
X84507091Y-50583833D01*
X84454166Y-50534134D01*
X84451369Y-50531423D01*
X84431034Y-50511088D01*
X84427547Y-50508383D01*
X84418671Y-50500801D01*
X84385394Y-50469552D01*
X84366793Y-50459326D01*
X84350532Y-50448645D01*
X84333764Y-50435638D01*
X84291870Y-50417508D01*
X84281379Y-50412369D01*
X84241367Y-50390372D01*
X84220800Y-50385091D01*
X84202398Y-50378791D01*
X84182924Y-50370364D01*
X84137837Y-50363223D01*
X84126398Y-50360854D01*
X84082178Y-50349500D01*
X84082177Y-50349500D01*
X84060955Y-50349500D01*
X84041556Y-50347973D01*
X84020596Y-50344653D01*
X84020595Y-50344653D01*
X84011752Y-50345489D01*
X83975139Y-50348950D01*
X83963470Y-50349500D01*
X83320808Y-50349500D01*
X83273355Y-50340061D01*
X83233127Y-50313181D01*
X83031039Y-50111092D01*
X82933764Y-50035638D01*
X82782924Y-49970364D01*
X82716580Y-49959856D01*
X82664857Y-49938959D01*
X82627639Y-49912898D01*
X82536205Y-49870261D01*
X82429331Y-49820425D01*
X82217974Y-49763792D01*
X82000000Y-49744722D01*
X81782025Y-49763792D01*
X81570668Y-49820425D01*
X81372361Y-49912898D01*
X81193122Y-50038402D01*
X81038402Y-50193122D01*
X80958929Y-50306623D01*
X80914611Y-50345489D01*
X80857354Y-50359500D01*
X80586309Y-50359500D01*
X80530014Y-50345985D01*
X80485991Y-50308385D01*
X80463836Y-50254898D01*
X80468378Y-50197182D01*
X80498628Y-50147819D01*
X80689572Y-49956874D01*
X80689571Y-49956873D01*
X80627386Y-49913331D01*
X80429161Y-49820898D01*
X80217886Y-49764287D01*
X80000000Y-49745224D01*
X79782113Y-49764287D01*
X79570840Y-49820897D01*
X79372611Y-49913333D01*
X79310428Y-49956874D01*
X79310427Y-49956875D01*
X79963181Y-50609628D01*
X79990061Y-50649856D01*
X79999500Y-50697309D01*
X79999500Y-51302691D01*
X79990061Y-51350144D01*
X79963181Y-51390372D01*
X79310426Y-52043124D01*
X79310427Y-52043125D01*
X79372610Y-52086666D01*
X79570840Y-52179102D01*
X79782113Y-52235712D01*
X80000000Y-52254775D01*
X80217886Y-52235712D01*
X80429159Y-52179102D01*
X80627385Y-52086667D01*
X80689572Y-52043124D01*
X80488628Y-51842181D01*
X80458378Y-51792818D01*
X80453836Y-51735102D01*
X80475991Y-51681615D01*
X80520014Y-51644015D01*
X80576309Y-51630500D01*
X80850351Y-51630500D01*
X80907608Y-51644511D01*
X80951924Y-51683374D01*
X81038402Y-51806877D01*
X81193123Y-51961598D01*
X81372361Y-52087102D01*
X81570670Y-52179575D01*
X81782023Y-52236207D01*
X82000000Y-52255277D01*
X82217977Y-52236207D01*
X82429330Y-52179575D01*
X82627639Y-52087102D01*
X82654116Y-52068561D01*
X82690643Y-52051061D01*
X82702565Y-52047597D01*
X82702569Y-52047597D01*
X82860398Y-52001744D01*
X83001865Y-51918081D01*
X83199518Y-51720426D01*
X83216163Y-51707093D01*
X83217937Y-51705203D01*
X83217940Y-51705202D01*
X83232574Y-51689617D01*
X83273721Y-51660699D01*
X83322968Y-51650500D01*
X83625500Y-51650500D01*
X83687500Y-51667113D01*
X83732887Y-51712500D01*
X83749500Y-51774500D01*
X83749500Y-51879192D01*
X83740061Y-51926645D01*
X83713181Y-51966873D01*
X82566873Y-53113181D01*
X82526645Y-53140061D01*
X82479192Y-53149500D01*
X79685505Y-53149500D01*
X79664294Y-53147158D01*
X79591724Y-53149439D01*
X79587829Y-53149500D01*
X79559074Y-53149500D01*
X79554701Y-53150052D01*
X79543069Y-53150967D01*
X79497428Y-53152401D01*
X79477041Y-53158324D01*
X79457998Y-53162268D01*
X79436942Y-53164928D01*
X79394496Y-53181733D01*
X79383450Y-53185514D01*
X79339602Y-53198254D01*
X79321324Y-53209063D01*
X79303861Y-53217618D01*
X79284130Y-53225431D01*
X79247187Y-53252270D01*
X79237428Y-53258680D01*
X79198135Y-53281918D01*
X79183125Y-53296928D01*
X79168336Y-53309558D01*
X79151164Y-53322034D01*
X79122057Y-53357218D01*
X79114196Y-53365856D01*
X77600484Y-54879568D01*
X77583831Y-54892910D01*
X77534133Y-54945833D01*
X77531427Y-54948626D01*
X77511083Y-54968971D01*
X77508376Y-54972460D01*
X77500807Y-54981321D01*
X77469551Y-55014607D01*
X77459322Y-55033212D01*
X77448645Y-55049467D01*
X77435636Y-55066238D01*
X77417506Y-55108132D01*
X77412370Y-55118616D01*
X77390372Y-55158632D01*
X77385091Y-55179199D01*
X77378791Y-55197600D01*
X77370364Y-55217074D01*
X77363223Y-55262161D01*
X77360855Y-55273598D01*
X77349500Y-55317824D01*
X77349500Y-55339045D01*
X77347973Y-55358444D01*
X77344653Y-55379403D01*
X77348950Y-55424861D01*
X77349500Y-55436530D01*
X77349500Y-72314495D01*
X77347158Y-72335704D01*
X77349439Y-72408262D01*
X77349500Y-72412157D01*
X77349500Y-72440926D01*
X77350053Y-72445307D01*
X77350968Y-72456940D01*
X77352402Y-72502569D01*
X77358323Y-72522950D01*
X77362267Y-72541995D01*
X77364928Y-72563059D01*
X77381737Y-72605515D01*
X77385520Y-72616563D01*
X77398256Y-72660400D01*
X77409061Y-72678670D01*
X77417621Y-72696143D01*
X77425432Y-72715871D01*
X77427223Y-72718336D01*
X77452267Y-72752808D01*
X77458673Y-72762560D01*
X77481919Y-72801865D01*
X77481921Y-72801867D01*
X77496925Y-72816871D01*
X77509564Y-72831669D01*
X77522037Y-72848837D01*
X77557212Y-72877936D01*
X77565854Y-72885800D01*
X78079564Y-73399510D01*
X78092912Y-73416169D01*
X78145831Y-73465864D01*
X78148628Y-73468575D01*
X78168961Y-73488908D01*
X78172442Y-73491608D01*
X78181325Y-73499194D01*
X78214607Y-73530448D01*
X78225251Y-73536299D01*
X78233204Y-73540672D01*
X78249464Y-73551352D01*
X78266236Y-73564362D01*
X78308140Y-73582495D01*
X78318620Y-73587629D01*
X78358632Y-73609627D01*
X78379195Y-73614906D01*
X78397598Y-73621207D01*
X78417073Y-73629635D01*
X78462175Y-73636778D01*
X78473570Y-73639137D01*
X78517823Y-73650500D01*
X78539051Y-73650500D01*
X78558449Y-73652026D01*
X78579405Y-73655346D01*
X78624851Y-73651050D01*
X78636521Y-73650500D01*
X78679192Y-73650500D01*
X78726645Y-73659939D01*
X78766873Y-73686819D01*
X78968961Y-73888908D01*
X78968965Y-73888911D01*
X78968966Y-73888912D01*
X79066237Y-73964363D01*
X79110331Y-73983444D01*
X79217070Y-74029635D01*
X79217072Y-74029635D01*
X79217074Y-74029636D01*
X79283421Y-74040144D01*
X79335144Y-74061042D01*
X79372359Y-74087101D01*
X79372360Y-74087101D01*
X79372361Y-74087102D01*
X79570670Y-74179575D01*
X79782023Y-74236207D01*
X80000000Y-74255277D01*
X80217977Y-74236207D01*
X80429330Y-74179575D01*
X80627639Y-74087102D01*
X80806877Y-73961598D01*
X80912321Y-73856153D01*
X80967905Y-73824062D01*
X81032092Y-73824062D01*
X81087680Y-73856155D01*
X81193123Y-73961598D01*
X81372361Y-74087102D01*
X81570670Y-74179575D01*
X81782023Y-74236207D01*
X82000000Y-74255277D01*
X82217977Y-74236207D01*
X82429330Y-74179575D01*
X82627639Y-74087102D01*
X82654116Y-74068561D01*
X82690643Y-74051061D01*
X82702565Y-74047597D01*
X82702569Y-74047597D01*
X82860398Y-74001744D01*
X83001865Y-73918081D01*
X83112319Y-73807627D01*
X83167906Y-73775533D01*
X83232094Y-73775533D01*
X83287681Y-73807627D01*
X83913181Y-74433127D01*
X83940061Y-74473355D01*
X83949500Y-74520808D01*
X83949500Y-75714495D01*
X83947158Y-75735704D01*
X83949439Y-75808262D01*
X83949500Y-75812157D01*
X83949500Y-75825500D01*
X83932887Y-75887500D01*
X83887500Y-75932887D01*
X83825500Y-75949500D01*
X77920808Y-75949500D01*
X77873355Y-75940061D01*
X77833127Y-75913181D01*
X77686819Y-75766873D01*
X77659939Y-75726645D01*
X77650500Y-75679192D01*
X77650500Y-73685504D01*
X77652841Y-73664294D01*
X77652704Y-73659939D01*
X77650560Y-73591736D01*
X77650500Y-73587842D01*
X77650500Y-73559081D01*
X77650500Y-73559075D01*
X77649946Y-73554695D01*
X77649030Y-73543054D01*
X77647597Y-73497431D01*
X77641675Y-73477048D01*
X77637732Y-73458011D01*
X77635071Y-73436942D01*
X77618264Y-73394492D01*
X77614483Y-73383448D01*
X77601745Y-73339604D01*
X77601744Y-73339603D01*
X77601744Y-73339601D01*
X77590934Y-73321322D01*
X77582380Y-73303862D01*
X77574568Y-73284129D01*
X77547723Y-73247180D01*
X77541332Y-73237451D01*
X77518081Y-73198135D01*
X77503068Y-73183122D01*
X77490435Y-73168330D01*
X77477963Y-73151163D01*
X77442779Y-73122056D01*
X77434140Y-73114194D01*
X76920434Y-72600488D01*
X76907091Y-72583833D01*
X76854166Y-72534134D01*
X76851369Y-72531423D01*
X76831034Y-72511088D01*
X76827547Y-72508383D01*
X76818671Y-72500801D01*
X76785394Y-72469552D01*
X76766793Y-72459326D01*
X76750532Y-72448645D01*
X76740581Y-72440926D01*
X76733764Y-72435638D01*
X76716028Y-72427963D01*
X76691869Y-72417508D01*
X76681379Y-72412369D01*
X76641367Y-72390372D01*
X76620800Y-72385091D01*
X76602398Y-72378791D01*
X76582924Y-72370364D01*
X76537837Y-72363223D01*
X76526398Y-72360854D01*
X76482178Y-72349500D01*
X76482177Y-72349500D01*
X76460955Y-72349500D01*
X76441556Y-72347973D01*
X76420596Y-72344653D01*
X76420595Y-72344653D01*
X76399904Y-72346609D01*
X76375139Y-72348950D01*
X76363470Y-72349500D01*
X76285452Y-72349500D01*
X76237999Y-72340061D01*
X76197773Y-72313183D01*
X76014471Y-72129880D01*
X76010300Y-72126645D01*
X75952640Y-72081919D01*
X75920936Y-72057327D01*
X75905160Y-72050500D01*
X75775895Y-71994561D01*
X75763297Y-71992566D01*
X75711572Y-71971668D01*
X75627640Y-71912898D01*
X75429331Y-71820425D01*
X75217974Y-71763792D01*
X74999999Y-71744722D01*
X74782025Y-71763792D01*
X74570668Y-71820425D01*
X74372361Y-71912898D01*
X74193122Y-72038402D01*
X74087681Y-72143844D01*
X74032094Y-72175938D01*
X73967906Y-72175938D01*
X73912319Y-72143844D01*
X73806880Y-72038405D01*
X73806879Y-72038404D01*
X73806877Y-72038402D01*
X73627639Y-71912898D01*
X73536205Y-71870261D01*
X73429331Y-71820425D01*
X73217974Y-71763792D01*
X72999999Y-71744722D01*
X72782025Y-71763792D01*
X72570668Y-71820425D01*
X72372363Y-71912897D01*
X72345884Y-71931437D01*
X72309358Y-71948936D01*
X72139602Y-71998254D01*
X71998135Y-72081918D01*
X71887680Y-72192373D01*
X71832092Y-72224466D01*
X71767905Y-72224466D01*
X71712318Y-72192372D01*
X71486819Y-71966873D01*
X71459939Y-71926645D01*
X71450500Y-71879192D01*
X71450500Y-55520808D01*
X71459939Y-55473355D01*
X71486819Y-55433127D01*
X72433127Y-54486819D01*
X72473355Y-54459939D01*
X72520808Y-54450500D01*
X75714495Y-54450500D01*
X75735704Y-54452841D01*
X75738294Y-54452759D01*
X75738296Y-54452760D01*
X75808262Y-54450560D01*
X75812157Y-54450500D01*
X75840920Y-54450500D01*
X75840925Y-54450500D01*
X75845302Y-54449946D01*
X75856941Y-54449030D01*
X75902569Y-54447597D01*
X75922949Y-54441675D01*
X75941989Y-54437732D01*
X75963058Y-54435071D01*
X76005520Y-54418258D01*
X76016557Y-54414480D01*
X76060398Y-54401744D01*
X76078670Y-54390936D01*
X76096136Y-54382380D01*
X76115871Y-54374568D01*
X76152816Y-54347725D01*
X76162548Y-54341332D01*
X76201865Y-54318081D01*
X76216874Y-54303071D01*
X76231663Y-54290439D01*
X76248837Y-54277963D01*
X76277946Y-54242774D01*
X76285790Y-54234154D01*
X77799513Y-52720431D01*
X77816162Y-52707094D01*
X77817936Y-52705204D01*
X77817940Y-52705202D01*
X77865898Y-52654130D01*
X77868546Y-52651398D01*
X77888912Y-52631034D01*
X77891612Y-52627551D01*
X77899188Y-52618680D01*
X77930448Y-52585393D01*
X77940672Y-52566793D01*
X77951351Y-52550536D01*
X77964363Y-52533763D01*
X77982498Y-52491852D01*
X77987633Y-52481374D01*
X78009626Y-52441370D01*
X78014903Y-52420815D01*
X78021208Y-52402399D01*
X78029636Y-52382926D01*
X78036778Y-52337824D01*
X78039143Y-52326405D01*
X78050500Y-52282177D01*
X78050500Y-52260955D01*
X78052027Y-52241556D01*
X78052874Y-52236207D01*
X78055347Y-52220595D01*
X78051049Y-52175136D01*
X78050500Y-52163469D01*
X78050500Y-51485504D01*
X78052841Y-51464294D01*
X78051742Y-51429330D01*
X78050560Y-51391736D01*
X78050500Y-51387842D01*
X78050500Y-51359081D01*
X78050500Y-51359075D01*
X78049946Y-51354695D01*
X78049030Y-51343054D01*
X78048708Y-51332809D01*
X78047597Y-51297430D01*
X78041675Y-51277047D01*
X78037732Y-51258010D01*
X78035071Y-51236942D01*
X78018266Y-51194498D01*
X78014481Y-51183444D01*
X78003891Y-51146993D01*
X78001744Y-51139601D01*
X77990934Y-51121322D01*
X77982380Y-51103862D01*
X77974568Y-51084129D01*
X77947723Y-51047180D01*
X77941332Y-51037451D01*
X77919184Y-51000000D01*
X78745224Y-51000000D01*
X78764287Y-51217886D01*
X78820898Y-51429161D01*
X78913331Y-51627386D01*
X78956873Y-51689571D01*
X78956875Y-51689572D01*
X79646447Y-51000001D01*
X79646447Y-51000000D01*
X78956875Y-50310427D01*
X78956874Y-50310428D01*
X78913333Y-50372611D01*
X78820897Y-50570840D01*
X78764287Y-50782113D01*
X78745224Y-51000000D01*
X77919184Y-51000000D01*
X77918081Y-50998135D01*
X77903068Y-50983122D01*
X77890435Y-50968330D01*
X77877963Y-50951163D01*
X77842779Y-50922056D01*
X77834140Y-50914194D01*
X77520434Y-50600488D01*
X77507091Y-50583833D01*
X77454166Y-50534134D01*
X77451369Y-50531423D01*
X77431034Y-50511088D01*
X77427547Y-50508383D01*
X77418671Y-50500801D01*
X77385394Y-50469552D01*
X77366793Y-50459326D01*
X77350532Y-50448645D01*
X77333764Y-50435638D01*
X77291870Y-50417508D01*
X77281379Y-50412369D01*
X77241367Y-50390372D01*
X77220800Y-50385091D01*
X77202398Y-50378791D01*
X77182924Y-50370364D01*
X77137837Y-50363223D01*
X77126398Y-50360854D01*
X77082178Y-50349500D01*
X77082177Y-50349500D01*
X77060955Y-50349500D01*
X77041556Y-50347973D01*
X77020596Y-50344653D01*
X77020595Y-50344653D01*
X77011752Y-50345489D01*
X76975139Y-50348950D01*
X76963470Y-50349500D01*
X76320808Y-50349500D01*
X76273355Y-50340061D01*
X76233127Y-50313181D01*
X76031039Y-50111092D01*
X75933764Y-50035638D01*
X75782924Y-49970364D01*
X75716580Y-49959856D01*
X75664857Y-49938959D01*
X75627639Y-49912898D01*
X75536205Y-49870261D01*
X75429331Y-49820425D01*
X75217974Y-49763792D01*
X75000000Y-49744722D01*
X74782025Y-49763792D01*
X74570668Y-49820425D01*
X74372361Y-49912898D01*
X74193122Y-50038402D01*
X74038402Y-50193122D01*
X73958929Y-50306623D01*
X73914611Y-50345489D01*
X73857354Y-50359500D01*
X73586309Y-50359500D01*
X73530014Y-50345985D01*
X73485991Y-50308385D01*
X73463836Y-50254898D01*
X73468378Y-50197182D01*
X73498628Y-50147819D01*
X73689572Y-49956874D01*
X73689571Y-49956873D01*
X73627386Y-49913331D01*
X73429161Y-49820898D01*
X73217886Y-49764287D01*
X73000000Y-49745224D01*
X72782113Y-49764287D01*
X72570840Y-49820897D01*
X72372611Y-49913333D01*
X72310428Y-49956874D01*
X72310427Y-49956875D01*
X72963181Y-50609628D01*
X72990061Y-50649856D01*
X72999500Y-50697309D01*
X72999500Y-51302691D01*
X72990061Y-51350144D01*
X72963181Y-51390372D01*
X72310426Y-52043124D01*
X72310427Y-52043125D01*
X72372610Y-52086666D01*
X72570840Y-52179102D01*
X72782113Y-52235712D01*
X73000000Y-52254775D01*
X73217886Y-52235712D01*
X73429159Y-52179102D01*
X73627385Y-52086667D01*
X73689572Y-52043124D01*
X73488628Y-51842181D01*
X73458378Y-51792818D01*
X73453836Y-51735102D01*
X73475991Y-51681615D01*
X73520014Y-51644015D01*
X73576309Y-51630500D01*
X73850351Y-51630500D01*
X73907608Y-51644511D01*
X73951924Y-51683374D01*
X74038402Y-51806877D01*
X74193123Y-51961598D01*
X74372361Y-52087102D01*
X74570670Y-52179575D01*
X74782023Y-52236207D01*
X75000000Y-52255277D01*
X75217977Y-52236207D01*
X75429330Y-52179575D01*
X75627639Y-52087102D01*
X75654116Y-52068561D01*
X75690643Y-52051061D01*
X75702565Y-52047597D01*
X75702569Y-52047597D01*
X75860398Y-52001744D01*
X76001865Y-51918081D01*
X76199518Y-51720426D01*
X76216163Y-51707093D01*
X76217937Y-51705203D01*
X76217940Y-51705202D01*
X76232574Y-51689617D01*
X76273721Y-51660699D01*
X76322968Y-51650500D01*
X76625500Y-51650500D01*
X76687500Y-51667113D01*
X76732887Y-51712500D01*
X76749500Y-51774500D01*
X76749500Y-51879192D01*
X76740061Y-51926645D01*
X76713181Y-51966873D01*
X75566873Y-53113181D01*
X75526645Y-53140061D01*
X75479192Y-53149500D01*
X72285505Y-53149500D01*
X72264295Y-53147158D01*
X72191738Y-53149439D01*
X72187843Y-53149500D01*
X72159071Y-53149500D01*
X72154690Y-53150053D01*
X72143059Y-53150968D01*
X72097428Y-53152402D01*
X72077052Y-53158322D01*
X72058006Y-53162267D01*
X72036939Y-53164928D01*
X71994487Y-53181736D01*
X71983439Y-53185519D01*
X71939600Y-53198256D01*
X71921330Y-53209061D01*
X71903862Y-53217618D01*
X71892463Y-53222132D01*
X71884126Y-53225433D01*
X71847191Y-53252266D01*
X71837435Y-53258675D01*
X71798135Y-53281918D01*
X71783125Y-53296928D01*
X71768336Y-53309558D01*
X71751164Y-53322034D01*
X71722057Y-53357218D01*
X71714196Y-53365856D01*
X70400484Y-54679568D01*
X70383831Y-54692910D01*
X70334133Y-54745833D01*
X70331427Y-54748626D01*
X70311083Y-54768971D01*
X70308376Y-54772460D01*
X70300807Y-54781321D01*
X70269551Y-54814607D01*
X70259322Y-54833212D01*
X70248645Y-54849467D01*
X70235636Y-54866238D01*
X70217506Y-54908132D01*
X70212370Y-54918616D01*
X70190372Y-54958632D01*
X70185091Y-54979199D01*
X70178791Y-54997600D01*
X70170364Y-55017074D01*
X70163223Y-55062161D01*
X70160855Y-55073598D01*
X70149500Y-55117824D01*
X70149500Y-55139045D01*
X70147973Y-55158444D01*
X70144653Y-55179403D01*
X70148950Y-55224861D01*
X70149500Y-55236530D01*
X70149500Y-72114495D01*
X70147158Y-72135704D01*
X70149439Y-72208262D01*
X70149500Y-72212157D01*
X70149500Y-72240926D01*
X70150053Y-72245307D01*
X70150968Y-72256940D01*
X70152402Y-72302569D01*
X70158323Y-72322950D01*
X70162267Y-72341995D01*
X70164928Y-72363059D01*
X70181737Y-72405515D01*
X70185520Y-72416563D01*
X70198256Y-72460400D01*
X70209061Y-72478670D01*
X70217621Y-72496143D01*
X70225431Y-72515869D01*
X70252267Y-72552808D01*
X70258673Y-72562560D01*
X70281919Y-72601865D01*
X70281921Y-72601867D01*
X70296925Y-72616871D01*
X70309562Y-72631667D01*
X70314611Y-72638616D01*
X70322037Y-72648837D01*
X70357212Y-72677936D01*
X70365854Y-72685800D01*
X71079564Y-73399510D01*
X71092912Y-73416169D01*
X71145831Y-73465864D01*
X71148628Y-73468575D01*
X71168965Y-73488912D01*
X71172448Y-73491614D01*
X71181326Y-73499196D01*
X71205670Y-73522056D01*
X71214607Y-73530448D01*
X71233198Y-73540668D01*
X71249462Y-73551351D01*
X71266235Y-73564362D01*
X71308138Y-73582495D01*
X71318622Y-73587631D01*
X71358632Y-73609627D01*
X71379197Y-73614906D01*
X71397593Y-73621205D01*
X71417074Y-73629636D01*
X71462178Y-73636779D01*
X71473597Y-73639144D01*
X71517823Y-73650500D01*
X71539045Y-73650500D01*
X71558443Y-73652026D01*
X71579405Y-73655347D01*
X71621319Y-73651384D01*
X71624861Y-73651050D01*
X71636530Y-73650500D01*
X71679192Y-73650500D01*
X71726645Y-73659939D01*
X71766873Y-73686819D01*
X71968961Y-73888908D01*
X71968965Y-73888911D01*
X71968966Y-73888912D01*
X72066237Y-73964363D01*
X72110331Y-73983444D01*
X72217070Y-74029635D01*
X72217072Y-74029635D01*
X72217074Y-74029636D01*
X72283421Y-74040144D01*
X72335144Y-74061042D01*
X72372359Y-74087101D01*
X72372360Y-74087101D01*
X72372361Y-74087102D01*
X72570670Y-74179575D01*
X72782023Y-74236207D01*
X73000000Y-74255277D01*
X73217977Y-74236207D01*
X73429330Y-74179575D01*
X73627639Y-74087102D01*
X73806877Y-73961598D01*
X73912321Y-73856153D01*
X73967905Y-73824062D01*
X74032092Y-73824062D01*
X74087680Y-73856155D01*
X74193123Y-73961598D01*
X74372361Y-74087102D01*
X74570670Y-74179575D01*
X74782023Y-74236207D01*
X75000000Y-74255277D01*
X75217977Y-74236207D01*
X75429330Y-74179575D01*
X75627639Y-74087102D01*
X75717662Y-74024066D01*
X75754185Y-74006567D01*
X75850390Y-73978618D01*
X75986420Y-73898170D01*
X76094642Y-73789947D01*
X76150228Y-73757855D01*
X76214415Y-73757855D01*
X76270003Y-73789949D01*
X76313181Y-73833127D01*
X76340061Y-73873355D01*
X76349500Y-73920808D01*
X76349500Y-75914495D01*
X76347158Y-75935704D01*
X76349439Y-76008262D01*
X76349500Y-76012157D01*
X76349500Y-76040926D01*
X76350053Y-76045307D01*
X76350968Y-76056940D01*
X76352402Y-76102569D01*
X76358323Y-76122950D01*
X76362267Y-76141995D01*
X76364928Y-76163059D01*
X76381737Y-76205515D01*
X76385520Y-76216563D01*
X76398256Y-76260400D01*
X76409061Y-76278670D01*
X76417621Y-76296142D01*
X76430968Y-76329852D01*
X76438927Y-76389106D01*
X76418234Y-76445198D01*
X76373699Y-76485087D01*
X76315676Y-76499500D01*
X70920808Y-76499500D01*
X70873355Y-76490061D01*
X70833127Y-76463181D01*
X70686819Y-76316873D01*
X70659939Y-76276645D01*
X70650500Y-76229192D01*
X70650500Y-73885505D01*
X70652841Y-73864295D01*
X70652585Y-73856156D01*
X70650560Y-73791737D01*
X70650500Y-73787843D01*
X70650500Y-73759081D01*
X70650500Y-73759075D01*
X70649946Y-73754695D01*
X70649030Y-73743054D01*
X70648922Y-73739602D01*
X70647597Y-73697431D01*
X70641675Y-73677048D01*
X70637732Y-73658011D01*
X70635071Y-73636942D01*
X70618263Y-73594491D01*
X70614480Y-73583442D01*
X70610090Y-73568331D01*
X70601744Y-73539602D01*
X70590937Y-73521329D01*
X70582382Y-73503866D01*
X70574568Y-73484129D01*
X70547733Y-73447193D01*
X70541325Y-73437436D01*
X70518084Y-73398138D01*
X70514447Y-73394501D01*
X70503068Y-73383122D01*
X70490435Y-73368330D01*
X70477963Y-73351163D01*
X70442779Y-73322056D01*
X70434140Y-73314194D01*
X69720434Y-72600488D01*
X69707091Y-72583833D01*
X69654166Y-72534134D01*
X69651369Y-72531423D01*
X69631034Y-72511088D01*
X69627547Y-72508383D01*
X69618671Y-72500801D01*
X69585394Y-72469552D01*
X69566793Y-72459326D01*
X69550532Y-72448645D01*
X69540581Y-72440926D01*
X69533764Y-72435638D01*
X69516028Y-72427963D01*
X69491869Y-72417508D01*
X69481379Y-72412369D01*
X69441367Y-72390372D01*
X69420800Y-72385091D01*
X69402398Y-72378791D01*
X69382924Y-72370364D01*
X69337837Y-72363223D01*
X69326398Y-72360854D01*
X69270918Y-72346609D01*
X69237999Y-72340061D01*
X69197773Y-72313183D01*
X69014471Y-72129880D01*
X69010300Y-72126645D01*
X68952640Y-72081919D01*
X68920936Y-72057327D01*
X68905160Y-72050500D01*
X68775895Y-71994561D01*
X68763297Y-71992566D01*
X68711572Y-71971668D01*
X68627640Y-71912898D01*
X68429331Y-71820425D01*
X68217974Y-71763792D01*
X67999999Y-71744722D01*
X67782025Y-71763792D01*
X67570668Y-71820425D01*
X67372361Y-71912898D01*
X67193121Y-72038403D01*
X67087679Y-72143844D01*
X67032092Y-72175937D01*
X66967905Y-72175937D01*
X66912318Y-72143843D01*
X66806880Y-72038405D01*
X66806879Y-72038404D01*
X66806877Y-72038402D01*
X66627639Y-71912898D01*
X66536205Y-71870261D01*
X66429331Y-71820425D01*
X66217974Y-71763792D01*
X65999999Y-71744722D01*
X65782025Y-71763792D01*
X65570668Y-71820425D01*
X65372363Y-71912897D01*
X65345884Y-71931437D01*
X65309358Y-71948936D01*
X65139602Y-71998254D01*
X64998135Y-72081918D01*
X64887680Y-72192373D01*
X64832092Y-72224466D01*
X64767905Y-72224466D01*
X64712318Y-72192372D01*
X64686819Y-72166873D01*
X64659939Y-72126645D01*
X64650500Y-72079192D01*
X64650500Y-55520808D01*
X64659939Y-55473355D01*
X64686819Y-55433127D01*
X65633127Y-54486819D01*
X65673355Y-54459939D01*
X65720808Y-54450500D01*
X68714495Y-54450500D01*
X68735704Y-54452841D01*
X68738294Y-54452759D01*
X68738296Y-54452760D01*
X68808262Y-54450560D01*
X68812157Y-54450500D01*
X68840920Y-54450500D01*
X68840925Y-54450500D01*
X68845302Y-54449946D01*
X68856941Y-54449030D01*
X68902569Y-54447597D01*
X68922949Y-54441675D01*
X68941989Y-54437732D01*
X68963058Y-54435071D01*
X69005520Y-54418258D01*
X69016557Y-54414480D01*
X69060398Y-54401744D01*
X69078670Y-54390936D01*
X69096136Y-54382380D01*
X69115871Y-54374568D01*
X69152816Y-54347725D01*
X69162548Y-54341332D01*
X69201865Y-54318081D01*
X69216874Y-54303071D01*
X69231663Y-54290439D01*
X69248837Y-54277963D01*
X69277946Y-54242774D01*
X69285790Y-54234154D01*
X70599513Y-52920431D01*
X70616162Y-52907094D01*
X70617936Y-52905204D01*
X70617940Y-52905202D01*
X70665898Y-52854130D01*
X70668546Y-52851398D01*
X70688911Y-52831035D01*
X70691611Y-52827552D01*
X70699187Y-52818681D01*
X70730448Y-52785393D01*
X70740675Y-52766787D01*
X70751348Y-52750539D01*
X70764362Y-52733764D01*
X70782491Y-52691868D01*
X70787631Y-52681377D01*
X70798862Y-52660949D01*
X70809627Y-52641368D01*
X70814906Y-52620805D01*
X70821204Y-52602406D01*
X70829635Y-52582926D01*
X70836777Y-52537824D01*
X70839145Y-52526397D01*
X70850500Y-52482178D01*
X70850500Y-52460955D01*
X70852027Y-52441556D01*
X70852336Y-52439602D01*
X70855347Y-52420595D01*
X70851050Y-52375139D01*
X70850500Y-52363470D01*
X70850500Y-51485504D01*
X70852841Y-51464294D01*
X70851742Y-51429330D01*
X70850560Y-51391736D01*
X70850500Y-51387842D01*
X70850500Y-51359081D01*
X70850500Y-51359075D01*
X70849946Y-51354695D01*
X70849030Y-51343054D01*
X70848708Y-51332809D01*
X70847597Y-51297430D01*
X70841675Y-51277047D01*
X70837732Y-51258010D01*
X70835071Y-51236942D01*
X70818266Y-51194498D01*
X70814481Y-51183444D01*
X70803891Y-51146993D01*
X70801744Y-51139601D01*
X70790934Y-51121322D01*
X70782380Y-51103862D01*
X70774568Y-51084129D01*
X70747723Y-51047180D01*
X70741332Y-51037451D01*
X70719184Y-51000000D01*
X71745224Y-51000000D01*
X71764287Y-51217886D01*
X71820898Y-51429161D01*
X71913331Y-51627386D01*
X71956873Y-51689571D01*
X71956875Y-51689572D01*
X72646447Y-51000001D01*
X72646447Y-51000000D01*
X71956875Y-50310427D01*
X71956874Y-50310428D01*
X71913333Y-50372611D01*
X71820897Y-50570840D01*
X71764287Y-50782113D01*
X71745224Y-51000000D01*
X70719184Y-51000000D01*
X70718081Y-50998135D01*
X70703068Y-50983122D01*
X70690435Y-50968330D01*
X70677963Y-50951163D01*
X70642779Y-50922056D01*
X70634140Y-50914194D01*
X70320434Y-50600488D01*
X70307091Y-50583833D01*
X70254166Y-50534134D01*
X70251369Y-50531423D01*
X70231034Y-50511088D01*
X70227547Y-50508383D01*
X70218671Y-50500801D01*
X70185394Y-50469552D01*
X70166793Y-50459326D01*
X70150532Y-50448645D01*
X70133764Y-50435638D01*
X70091870Y-50417508D01*
X70081379Y-50412369D01*
X70041367Y-50390372D01*
X70020800Y-50385091D01*
X70002398Y-50378791D01*
X69982924Y-50370364D01*
X69937837Y-50363223D01*
X69926398Y-50360854D01*
X69882178Y-50349500D01*
X69882177Y-50349500D01*
X69860955Y-50349500D01*
X69841556Y-50347973D01*
X69820596Y-50344653D01*
X69820595Y-50344653D01*
X69811752Y-50345489D01*
X69775139Y-50348950D01*
X69763470Y-50349500D01*
X69320808Y-50349500D01*
X69273355Y-50340061D01*
X69233127Y-50313181D01*
X69031039Y-50111092D01*
X68933764Y-50035638D01*
X68782924Y-49970364D01*
X68716580Y-49959856D01*
X68664857Y-49938959D01*
X68627639Y-49912898D01*
X68536205Y-49870261D01*
X68429331Y-49820425D01*
X68217974Y-49763792D01*
X68000000Y-49744722D01*
X67782025Y-49763792D01*
X67570668Y-49820425D01*
X67372361Y-49912898D01*
X67193122Y-50038402D01*
X67038402Y-50193122D01*
X66958929Y-50306623D01*
X66914611Y-50345489D01*
X66857354Y-50359500D01*
X66586309Y-50359500D01*
X66530014Y-50345985D01*
X66485991Y-50308385D01*
X66463836Y-50254898D01*
X66468378Y-50197182D01*
X66498628Y-50147819D01*
X66689572Y-49956874D01*
X66689571Y-49956873D01*
X66627386Y-49913331D01*
X66429161Y-49820898D01*
X66217886Y-49764287D01*
X66000000Y-49745224D01*
X65782113Y-49764287D01*
X65570840Y-49820897D01*
X65372611Y-49913333D01*
X65310428Y-49956874D01*
X65310427Y-49956875D01*
X65963181Y-50609628D01*
X65990061Y-50649856D01*
X65999500Y-50697309D01*
X65999500Y-51302691D01*
X65990061Y-51350144D01*
X65963181Y-51390372D01*
X65310426Y-52043124D01*
X65310427Y-52043125D01*
X65372610Y-52086666D01*
X65570840Y-52179102D01*
X65782113Y-52235712D01*
X66000000Y-52254775D01*
X66217886Y-52235712D01*
X66429159Y-52179102D01*
X66627385Y-52086667D01*
X66689572Y-52043124D01*
X66488628Y-51842181D01*
X66458378Y-51792818D01*
X66453836Y-51735102D01*
X66475991Y-51681615D01*
X66520014Y-51644015D01*
X66576309Y-51630500D01*
X66850351Y-51630500D01*
X66907608Y-51644511D01*
X66951924Y-51683374D01*
X67038402Y-51806877D01*
X67193123Y-51961598D01*
X67372361Y-52087102D01*
X67570670Y-52179575D01*
X67782023Y-52236207D01*
X68000000Y-52255277D01*
X68217977Y-52236207D01*
X68429330Y-52179575D01*
X68627639Y-52087102D01*
X68654116Y-52068561D01*
X68690643Y-52051061D01*
X68702565Y-52047597D01*
X68702569Y-52047597D01*
X68860398Y-52001744D01*
X69001865Y-51918081D01*
X69199518Y-51720426D01*
X69216163Y-51707093D01*
X69217937Y-51705203D01*
X69217940Y-51705202D01*
X69232574Y-51689617D01*
X69273721Y-51660699D01*
X69322968Y-51650500D01*
X69425500Y-51650500D01*
X69487500Y-51667113D01*
X69532887Y-51712500D01*
X69549500Y-51774500D01*
X69549500Y-52079192D01*
X69540061Y-52126645D01*
X69513181Y-52166873D01*
X68566873Y-53113181D01*
X68526645Y-53140061D01*
X68479192Y-53149500D01*
X65485505Y-53149500D01*
X65464295Y-53147158D01*
X65391738Y-53149439D01*
X65387843Y-53149500D01*
X65359071Y-53149500D01*
X65354690Y-53150053D01*
X65343059Y-53150968D01*
X65297428Y-53152402D01*
X65277052Y-53158322D01*
X65258006Y-53162267D01*
X65236939Y-53164928D01*
X65194487Y-53181736D01*
X65183439Y-53185519D01*
X65139600Y-53198256D01*
X65121330Y-53209061D01*
X65103862Y-53217618D01*
X65092463Y-53222132D01*
X65084126Y-53225433D01*
X65047191Y-53252266D01*
X65037435Y-53258675D01*
X64998135Y-53281918D01*
X64983125Y-53296928D01*
X64968336Y-53309558D01*
X64951164Y-53322034D01*
X64922057Y-53357218D01*
X64914196Y-53365856D01*
X63600484Y-54679568D01*
X63583831Y-54692910D01*
X63534133Y-54745833D01*
X63531427Y-54748626D01*
X63511083Y-54768971D01*
X63508376Y-54772460D01*
X63500807Y-54781321D01*
X63469551Y-54814607D01*
X63459322Y-54833212D01*
X63448645Y-54849467D01*
X63435636Y-54866238D01*
X63417506Y-54908132D01*
X63412370Y-54918616D01*
X63390372Y-54958632D01*
X63385091Y-54979199D01*
X63378791Y-54997600D01*
X63370364Y-55017074D01*
X63363223Y-55062161D01*
X63360855Y-55073598D01*
X63349500Y-55117824D01*
X63349500Y-55139045D01*
X63347973Y-55158444D01*
X63344653Y-55179403D01*
X63348950Y-55224861D01*
X63349500Y-55236530D01*
X63349500Y-72314495D01*
X63347158Y-72335704D01*
X63349439Y-72408262D01*
X63349500Y-72412157D01*
X63349500Y-72440926D01*
X63350053Y-72445307D01*
X63350968Y-72456940D01*
X63352402Y-72502569D01*
X63358323Y-72522950D01*
X63362267Y-72541995D01*
X63364928Y-72563059D01*
X63381737Y-72605515D01*
X63385520Y-72616563D01*
X63398256Y-72660400D01*
X63409061Y-72678670D01*
X63417621Y-72696143D01*
X63425432Y-72715871D01*
X63427223Y-72718336D01*
X63452267Y-72752808D01*
X63458673Y-72762560D01*
X63481919Y-72801865D01*
X63481921Y-72801867D01*
X63496925Y-72816871D01*
X63509564Y-72831669D01*
X63522037Y-72848837D01*
X63557212Y-72877936D01*
X63565854Y-72885800D01*
X64079564Y-73399510D01*
X64092912Y-73416169D01*
X64145831Y-73465864D01*
X64148628Y-73468575D01*
X64168961Y-73488908D01*
X64172442Y-73491608D01*
X64181325Y-73499194D01*
X64214607Y-73530448D01*
X64225251Y-73536299D01*
X64233204Y-73540672D01*
X64249464Y-73551352D01*
X64266236Y-73564362D01*
X64308140Y-73582495D01*
X64318620Y-73587629D01*
X64358632Y-73609627D01*
X64379195Y-73614906D01*
X64397598Y-73621207D01*
X64417073Y-73629635D01*
X64462175Y-73636778D01*
X64473570Y-73639137D01*
X64517823Y-73650500D01*
X64539051Y-73650500D01*
X64558449Y-73652026D01*
X64579405Y-73655346D01*
X64624851Y-73651050D01*
X64636521Y-73650500D01*
X64679192Y-73650500D01*
X64726645Y-73659939D01*
X64766873Y-73686819D01*
X64968961Y-73888908D01*
X64968965Y-73888911D01*
X64968966Y-73888912D01*
X65066237Y-73964363D01*
X65110331Y-73983444D01*
X65217070Y-74029635D01*
X65217072Y-74029635D01*
X65217074Y-74029636D01*
X65283421Y-74040144D01*
X65335144Y-74061042D01*
X65372359Y-74087101D01*
X65372360Y-74087101D01*
X65372361Y-74087102D01*
X65570670Y-74179575D01*
X65782023Y-74236207D01*
X66000000Y-74255277D01*
X66217977Y-74236207D01*
X66429330Y-74179575D01*
X66627639Y-74087102D01*
X66806877Y-73961598D01*
X66912321Y-73856153D01*
X66967905Y-73824062D01*
X67032092Y-73824062D01*
X67087680Y-73856155D01*
X67193123Y-73961598D01*
X67372361Y-74087102D01*
X67570670Y-74179575D01*
X67782023Y-74236207D01*
X68000000Y-74255277D01*
X68217977Y-74236207D01*
X68429330Y-74179575D01*
X68627639Y-74087102D01*
X68717662Y-74024066D01*
X68754185Y-74006567D01*
X68850390Y-73978618D01*
X68986420Y-73898170D01*
X68994640Y-73889949D01*
X69050226Y-73857856D01*
X69114415Y-73857855D01*
X69170003Y-73889949D01*
X69313181Y-74033127D01*
X69340061Y-74073355D01*
X69349500Y-74120808D01*
X69349500Y-76464495D01*
X69347158Y-76485704D01*
X69349439Y-76558262D01*
X69349500Y-76562157D01*
X69349500Y-76590926D01*
X69350053Y-76595307D01*
X69350968Y-76606940D01*
X69352402Y-76652569D01*
X69358323Y-76672950D01*
X69362267Y-76691995D01*
X69364928Y-76713059D01*
X69381737Y-76755515D01*
X69385520Y-76766563D01*
X69398256Y-76810400D01*
X69409061Y-76828670D01*
X69417619Y-76846139D01*
X69423733Y-76861581D01*
X69430968Y-76879852D01*
X69438927Y-76939106D01*
X69418234Y-76995198D01*
X69373699Y-77035087D01*
X69315676Y-77049500D01*
X64820808Y-77049500D01*
X64773355Y-77040061D01*
X64733127Y-77013181D01*
X64086819Y-76366873D01*
X64059939Y-76326645D01*
X64050500Y-76279192D01*
X64050500Y-74085505D01*
X64052841Y-74064294D01*
X64052425Y-74051061D01*
X64050561Y-73991724D01*
X64050500Y-73987829D01*
X64050500Y-73959082D01*
X64050500Y-73959075D01*
X64049947Y-73954700D01*
X64049031Y-73943063D01*
X64047598Y-73897431D01*
X64041675Y-73877045D01*
X64037731Y-73858004D01*
X64035071Y-73836942D01*
X64018267Y-73794501D01*
X64014484Y-73783452D01*
X64012385Y-73776226D01*
X64001745Y-73739602D01*
X63996738Y-73731136D01*
X63990937Y-73721326D01*
X63982376Y-73703850D01*
X63974568Y-73684129D01*
X63947731Y-73647191D01*
X63941317Y-73637425D01*
X63918081Y-73598135D01*
X63903074Y-73583128D01*
X63890436Y-73568331D01*
X63887552Y-73564362D01*
X63877963Y-73551163D01*
X63842779Y-73522056D01*
X63834140Y-73514194D01*
X62920434Y-72600488D01*
X62907091Y-72583833D01*
X62854166Y-72534134D01*
X62851369Y-72531423D01*
X62831034Y-72511088D01*
X62827547Y-72508383D01*
X62818671Y-72500801D01*
X62785394Y-72469552D01*
X62766793Y-72459326D01*
X62750532Y-72448645D01*
X62740581Y-72440926D01*
X62733764Y-72435638D01*
X62716028Y-72427963D01*
X62691869Y-72417508D01*
X62681379Y-72412369D01*
X62641367Y-72390372D01*
X62620800Y-72385091D01*
X62602398Y-72378791D01*
X62582924Y-72370364D01*
X62537837Y-72363223D01*
X62526398Y-72360854D01*
X62482178Y-72349500D01*
X62482177Y-72349500D01*
X62460955Y-72349500D01*
X62441556Y-72347973D01*
X62420596Y-72344653D01*
X62420595Y-72344653D01*
X62399904Y-72346609D01*
X62375139Y-72348950D01*
X62363470Y-72349500D01*
X62285452Y-72349500D01*
X62237999Y-72340061D01*
X62197773Y-72313183D01*
X62014471Y-72129880D01*
X62010300Y-72126645D01*
X61952640Y-72081919D01*
X61920936Y-72057327D01*
X61905160Y-72050500D01*
X61775895Y-71994561D01*
X61763297Y-71992566D01*
X61711572Y-71971668D01*
X61627640Y-71912898D01*
X61429331Y-71820425D01*
X61217974Y-71763792D01*
X60999999Y-71744722D01*
X60782025Y-71763792D01*
X60570668Y-71820425D01*
X60372361Y-71912898D01*
X60193121Y-72038403D01*
X60087679Y-72143844D01*
X60032092Y-72175937D01*
X59967905Y-72175937D01*
X59912318Y-72143843D01*
X59806880Y-72038405D01*
X59806879Y-72038404D01*
X59806877Y-72038402D01*
X59627639Y-71912898D01*
X59536205Y-71870261D01*
X59429331Y-71820425D01*
X59217974Y-71763792D01*
X58999999Y-71744722D01*
X58782025Y-71763792D01*
X58570668Y-71820425D01*
X58372363Y-71912897D01*
X58345884Y-71931437D01*
X58309358Y-71948936D01*
X58139602Y-71998254D01*
X57998133Y-72081919D01*
X57800484Y-72279568D01*
X57783831Y-72292910D01*
X57767422Y-72310385D01*
X57726277Y-72339302D01*
X57677031Y-72349500D01*
X57120808Y-72349500D01*
X57073355Y-72340061D01*
X57033127Y-72313181D01*
X56686819Y-71966873D01*
X56659939Y-71926645D01*
X56650500Y-71879192D01*
X56650500Y-55520808D01*
X56659939Y-55473355D01*
X56686819Y-55433127D01*
X57633127Y-54486819D01*
X57673355Y-54459939D01*
X57720808Y-54450500D01*
X61914495Y-54450500D01*
X61935704Y-54452841D01*
X61938294Y-54452759D01*
X61938296Y-54452760D01*
X62008262Y-54450560D01*
X62012157Y-54450500D01*
X62040920Y-54450500D01*
X62040925Y-54450500D01*
X62045302Y-54449946D01*
X62056941Y-54449030D01*
X62102569Y-54447597D01*
X62122949Y-54441675D01*
X62141989Y-54437732D01*
X62163058Y-54435071D01*
X62205520Y-54418258D01*
X62216557Y-54414480D01*
X62260398Y-54401744D01*
X62278670Y-54390936D01*
X62296136Y-54382380D01*
X62315871Y-54374568D01*
X62352816Y-54347725D01*
X62362548Y-54341332D01*
X62401865Y-54318081D01*
X62416874Y-54303071D01*
X62431663Y-54290439D01*
X62448837Y-54277963D01*
X62477946Y-54242774D01*
X62485790Y-54234154D01*
X63599513Y-53120431D01*
X63616162Y-53107094D01*
X63617936Y-53105204D01*
X63617940Y-53105202D01*
X63665898Y-53054130D01*
X63668546Y-53051398D01*
X63688911Y-53031035D01*
X63691611Y-53027552D01*
X63699187Y-53018681D01*
X63730448Y-52985393D01*
X63740675Y-52966787D01*
X63751348Y-52950539D01*
X63764362Y-52933764D01*
X63782495Y-52891857D01*
X63787625Y-52881387D01*
X63809627Y-52841368D01*
X63814903Y-52820813D01*
X63821206Y-52802402D01*
X63829635Y-52782927D01*
X63836777Y-52737825D01*
X63839140Y-52726418D01*
X63850500Y-52682177D01*
X63850500Y-52660949D01*
X63852027Y-52641550D01*
X63853692Y-52631038D01*
X63855346Y-52620595D01*
X63851050Y-52575148D01*
X63850500Y-52563479D01*
X63850500Y-51485504D01*
X63852841Y-51464294D01*
X63851742Y-51429330D01*
X63850560Y-51391736D01*
X63850500Y-51387842D01*
X63850500Y-51359081D01*
X63850500Y-51359075D01*
X63849946Y-51354695D01*
X63849030Y-51343054D01*
X63848708Y-51332809D01*
X63847597Y-51297430D01*
X63841675Y-51277047D01*
X63837732Y-51258010D01*
X63835071Y-51236942D01*
X63818266Y-51194498D01*
X63814481Y-51183444D01*
X63803891Y-51146993D01*
X63801744Y-51139601D01*
X63790934Y-51121322D01*
X63782380Y-51103862D01*
X63774568Y-51084129D01*
X63747723Y-51047180D01*
X63741332Y-51037451D01*
X63719183Y-50999999D01*
X64745224Y-50999999D01*
X64764287Y-51217886D01*
X64820898Y-51429161D01*
X64913331Y-51627386D01*
X64956873Y-51689571D01*
X64956875Y-51689572D01*
X65646447Y-51000001D01*
X65646447Y-51000000D01*
X64956875Y-50310427D01*
X64956874Y-50310428D01*
X64913333Y-50372611D01*
X64820897Y-50570840D01*
X64764287Y-50782113D01*
X64745224Y-50999999D01*
X63719183Y-50999999D01*
X63718081Y-50998135D01*
X63703068Y-50983122D01*
X63690435Y-50968330D01*
X63677963Y-50951163D01*
X63642779Y-50922056D01*
X63634140Y-50914194D01*
X63320434Y-50600488D01*
X63307091Y-50583833D01*
X63254166Y-50534134D01*
X63251369Y-50531423D01*
X63231034Y-50511088D01*
X63227547Y-50508383D01*
X63218671Y-50500801D01*
X63185394Y-50469552D01*
X63166793Y-50459326D01*
X63150532Y-50448645D01*
X63133764Y-50435638D01*
X63091870Y-50417508D01*
X63081379Y-50412369D01*
X63041367Y-50390372D01*
X63020800Y-50385091D01*
X63002398Y-50378791D01*
X62982924Y-50370364D01*
X62937837Y-50363223D01*
X62926398Y-50360854D01*
X62882178Y-50349500D01*
X62882177Y-50349500D01*
X62860955Y-50349500D01*
X62841556Y-50347973D01*
X62820596Y-50344653D01*
X62820595Y-50344653D01*
X62811752Y-50345489D01*
X62775139Y-50348950D01*
X62763470Y-50349500D01*
X62320808Y-50349500D01*
X62273355Y-50340061D01*
X62233127Y-50313181D01*
X62031039Y-50111092D01*
X61933764Y-50035638D01*
X61782924Y-49970364D01*
X61716580Y-49959856D01*
X61664857Y-49938959D01*
X61627639Y-49912898D01*
X61536205Y-49870261D01*
X61429331Y-49820425D01*
X61217974Y-49763792D01*
X61000000Y-49744722D01*
X60782025Y-49763792D01*
X60570668Y-49820425D01*
X60372361Y-49912898D01*
X60193122Y-50038402D01*
X60038402Y-50193122D01*
X59958929Y-50306623D01*
X59914611Y-50345489D01*
X59857354Y-50359500D01*
X59586309Y-50359500D01*
X59530014Y-50345985D01*
X59485991Y-50308385D01*
X59463836Y-50254898D01*
X59468378Y-50197182D01*
X59498628Y-50147819D01*
X59689572Y-49956874D01*
X59689571Y-49956873D01*
X59627386Y-49913331D01*
X59429161Y-49820898D01*
X59217886Y-49764287D01*
X59000000Y-49745224D01*
X58782113Y-49764287D01*
X58570840Y-49820897D01*
X58372611Y-49913333D01*
X58310428Y-49956874D01*
X58310427Y-49956875D01*
X58963181Y-50609628D01*
X58990061Y-50649856D01*
X58999500Y-50697309D01*
X58999500Y-51302691D01*
X58990061Y-51350144D01*
X58963181Y-51390372D01*
X58310426Y-52043124D01*
X58310427Y-52043125D01*
X58372610Y-52086666D01*
X58570840Y-52179102D01*
X58782113Y-52235712D01*
X59000000Y-52254775D01*
X59217886Y-52235712D01*
X59429159Y-52179102D01*
X59627385Y-52086667D01*
X59689572Y-52043124D01*
X59488628Y-51842181D01*
X59458378Y-51792818D01*
X59453836Y-51735102D01*
X59475991Y-51681615D01*
X59520014Y-51644015D01*
X59576309Y-51630500D01*
X59850351Y-51630500D01*
X59907608Y-51644511D01*
X59951924Y-51683374D01*
X60038402Y-51806877D01*
X60193123Y-51961598D01*
X60372361Y-52087102D01*
X60570670Y-52179575D01*
X60782023Y-52236207D01*
X61000000Y-52255277D01*
X61217977Y-52236207D01*
X61429330Y-52179575D01*
X61627639Y-52087102D01*
X61654116Y-52068561D01*
X61690643Y-52051061D01*
X61702565Y-52047597D01*
X61702569Y-52047597D01*
X61860398Y-52001744D01*
X62001865Y-51918081D01*
X62199518Y-51720426D01*
X62216163Y-51707093D01*
X62217937Y-51705203D01*
X62217940Y-51705202D01*
X62232574Y-51689617D01*
X62273721Y-51660699D01*
X62322968Y-51650500D01*
X62425500Y-51650500D01*
X62487500Y-51667113D01*
X62532887Y-51712500D01*
X62549500Y-51774500D01*
X62549500Y-52279192D01*
X62540061Y-52326645D01*
X62513181Y-52366873D01*
X61766873Y-53113181D01*
X61726645Y-53140061D01*
X61679192Y-53149500D01*
X57485505Y-53149500D01*
X57464295Y-53147158D01*
X57391738Y-53149439D01*
X57387843Y-53149500D01*
X57359071Y-53149500D01*
X57354690Y-53150053D01*
X57343059Y-53150968D01*
X57297428Y-53152402D01*
X57277052Y-53158322D01*
X57258006Y-53162267D01*
X57236939Y-53164928D01*
X57194487Y-53181736D01*
X57183439Y-53185519D01*
X57139600Y-53198256D01*
X57121330Y-53209061D01*
X57103862Y-53217618D01*
X57092463Y-53222132D01*
X57084126Y-53225433D01*
X57047191Y-53252266D01*
X57037435Y-53258675D01*
X56998135Y-53281918D01*
X56983125Y-53296928D01*
X56968336Y-53309558D01*
X56951164Y-53322034D01*
X56922057Y-53357218D01*
X56914196Y-53365856D01*
X55600484Y-54679568D01*
X55583831Y-54692910D01*
X55534133Y-54745833D01*
X55531427Y-54748626D01*
X55511083Y-54768971D01*
X55508376Y-54772460D01*
X55500807Y-54781321D01*
X55469551Y-54814607D01*
X55459322Y-54833212D01*
X55448645Y-54849467D01*
X55435636Y-54866238D01*
X55417506Y-54908132D01*
X55412370Y-54918616D01*
X55390372Y-54958632D01*
X55385091Y-54979199D01*
X55378791Y-54997600D01*
X55370364Y-55017074D01*
X55363223Y-55062161D01*
X55360855Y-55073598D01*
X55349500Y-55117824D01*
X55349500Y-55139045D01*
X55347973Y-55158444D01*
X55344653Y-55179403D01*
X55348950Y-55224861D01*
X55349500Y-55236530D01*
X55349500Y-72114495D01*
X55347158Y-72135704D01*
X55349439Y-72208262D01*
X55349500Y-72212157D01*
X55349500Y-72240926D01*
X55350053Y-72245307D01*
X55350968Y-72256940D01*
X55352402Y-72302569D01*
X55358323Y-72322950D01*
X55362267Y-72341995D01*
X55364928Y-72363059D01*
X55381737Y-72405515D01*
X55385520Y-72416563D01*
X55398256Y-72460400D01*
X55409061Y-72478670D01*
X55417621Y-72496143D01*
X55425431Y-72515869D01*
X55452267Y-72552808D01*
X55458673Y-72562560D01*
X55481919Y-72601865D01*
X55481921Y-72601867D01*
X55496925Y-72616871D01*
X55509562Y-72631667D01*
X55514611Y-72638616D01*
X55522037Y-72648837D01*
X55557212Y-72677936D01*
X55565854Y-72685800D01*
X56279564Y-73399510D01*
X56292912Y-73416169D01*
X56345831Y-73465864D01*
X56348628Y-73468575D01*
X56368965Y-73488912D01*
X56372448Y-73491614D01*
X56381326Y-73499196D01*
X56405670Y-73522056D01*
X56414607Y-73530448D01*
X56433198Y-73540668D01*
X56449462Y-73551351D01*
X56466235Y-73564362D01*
X56508138Y-73582495D01*
X56518622Y-73587631D01*
X56558632Y-73609627D01*
X56579197Y-73614906D01*
X56597593Y-73621205D01*
X56617074Y-73629636D01*
X56662178Y-73636779D01*
X56673597Y-73639144D01*
X56717823Y-73650500D01*
X56739045Y-73650500D01*
X56758443Y-73652026D01*
X56779405Y-73655347D01*
X56821319Y-73651384D01*
X56824861Y-73651050D01*
X56836530Y-73650500D01*
X57679192Y-73650500D01*
X57726645Y-73659939D01*
X57766873Y-73686819D01*
X57968961Y-73888908D01*
X57968965Y-73888911D01*
X57968966Y-73888912D01*
X58066237Y-73964363D01*
X58110331Y-73983444D01*
X58217070Y-74029635D01*
X58217072Y-74029635D01*
X58217074Y-74029636D01*
X58283421Y-74040144D01*
X58335144Y-74061042D01*
X58372359Y-74087101D01*
X58372360Y-74087101D01*
X58372361Y-74087102D01*
X58570670Y-74179575D01*
X58782023Y-74236207D01*
X59000000Y-74255277D01*
X59217977Y-74236207D01*
X59429330Y-74179575D01*
X59627639Y-74087102D01*
X59806877Y-73961598D01*
X59912321Y-73856153D01*
X59967905Y-73824062D01*
X60032092Y-73824062D01*
X60087680Y-73856155D01*
X60193123Y-73961598D01*
X60372361Y-74087102D01*
X60570670Y-74179575D01*
X60782023Y-74236207D01*
X61000000Y-74255277D01*
X61217977Y-74236207D01*
X61429330Y-74179575D01*
X61627639Y-74087102D01*
X61717662Y-74024066D01*
X61754185Y-74006567D01*
X61850390Y-73978618D01*
X61986420Y-73898170D01*
X62094642Y-73789947D01*
X62150228Y-73757855D01*
X62214415Y-73757855D01*
X62270003Y-73789949D01*
X62713181Y-74233127D01*
X62740061Y-74273355D01*
X62749500Y-74320808D01*
X62749500Y-76514495D01*
X62747158Y-76535704D01*
X62749439Y-76608262D01*
X62749500Y-76612157D01*
X62749500Y-76640926D01*
X62750053Y-76645307D01*
X62750968Y-76656940D01*
X62752402Y-76702569D01*
X62758323Y-76722950D01*
X62762267Y-76741995D01*
X62764928Y-76763059D01*
X62781737Y-76805515D01*
X62785520Y-76816563D01*
X62798256Y-76860400D01*
X62809061Y-76878670D01*
X62817621Y-76896143D01*
X62825431Y-76915869D01*
X62852267Y-76952808D01*
X62858673Y-76962560D01*
X62881919Y-77001865D01*
X62881921Y-77001867D01*
X62896925Y-77016871D01*
X62909559Y-77031663D01*
X62922037Y-77048837D01*
X62938041Y-77062077D01*
X62957212Y-77077936D01*
X62965854Y-77085800D01*
X63668373Y-77788319D01*
X63698623Y-77837682D01*
X63703165Y-77895398D01*
X63681010Y-77948885D01*
X63636987Y-77986485D01*
X63580692Y-78000000D01*
X38124000Y-78000000D01*
X38062000Y-77983387D01*
X38016613Y-77938000D01*
X38000000Y-77876000D01*
X38000000Y-73431755D01*
X40399500Y-73431755D01*
X40419126Y-73492159D01*
X40424239Y-73499196D01*
X40456458Y-73543542D01*
X40507840Y-73580873D01*
X40568244Y-73600500D01*
X40599901Y-73600500D01*
X40600000Y-73600500D01*
X40600500Y-73600500D01*
X43328593Y-73600500D01*
X43392500Y-73618237D01*
X43438124Y-73666372D01*
X43452415Y-73731136D01*
X43431284Y-73794002D01*
X43379721Y-73870186D01*
X43296986Y-74063388D01*
X43252312Y-74268750D01*
X43249500Y-74315970D01*
X43249500Y-75684030D01*
X43252312Y-75731249D01*
X43296986Y-75936611D01*
X43379719Y-76129810D01*
X43497525Y-76303868D01*
X43646131Y-76452474D01*
X43646134Y-76452476D01*
X43646135Y-76452477D01*
X43820187Y-76570279D01*
X43820188Y-76570279D01*
X43820189Y-76570280D01*
X44013388Y-76653013D01*
X44192584Y-76691995D01*
X44218755Y-76697688D01*
X44265962Y-76700500D01*
X45734030Y-76700500D01*
X45734038Y-76700500D01*
X45781245Y-76697688D01*
X45986612Y-76653013D01*
X46179813Y-76570279D01*
X46353865Y-76452477D01*
X46502477Y-76303865D01*
X46620279Y-76129813D01*
X46703013Y-75936612D01*
X46744012Y-75748140D01*
X46767707Y-75697848D01*
X46810997Y-75662963D01*
X46865178Y-75650500D01*
X46879192Y-75650500D01*
X46926645Y-75659939D01*
X46966873Y-75686819D01*
X47679564Y-76399510D01*
X47692912Y-76416169D01*
X47745831Y-76465864D01*
X47748628Y-76468575D01*
X47768962Y-76488909D01*
X47772443Y-76491609D01*
X47781326Y-76499195D01*
X47814607Y-76530448D01*
X47833198Y-76540668D01*
X47849462Y-76551351D01*
X47866235Y-76564362D01*
X47908138Y-76582495D01*
X47918626Y-76587633D01*
X47958632Y-76609627D01*
X47979197Y-76614906D01*
X47997593Y-76621205D01*
X48017074Y-76629636D01*
X48062178Y-76636779D01*
X48073597Y-76639144D01*
X48117823Y-76650500D01*
X48139045Y-76650500D01*
X48158443Y-76652026D01*
X48179405Y-76655347D01*
X48224863Y-76651049D01*
X48236531Y-76650500D01*
X50679192Y-76650500D01*
X50726645Y-76659939D01*
X50766873Y-76686819D01*
X50968961Y-76888908D01*
X50968965Y-76888911D01*
X50968966Y-76888912D01*
X51066237Y-76964363D01*
X51103694Y-76980572D01*
X51217070Y-77029635D01*
X51217072Y-77029635D01*
X51217074Y-77029636D01*
X51283421Y-77040144D01*
X51335144Y-77061042D01*
X51372359Y-77087101D01*
X51372360Y-77087101D01*
X51372361Y-77087102D01*
X51570670Y-77179575D01*
X51782023Y-77236207D01*
X52000000Y-77255277D01*
X52217977Y-77236207D01*
X52429330Y-77179575D01*
X52627639Y-77087102D01*
X52806877Y-76961598D01*
X52912318Y-76856156D01*
X52967906Y-76824062D01*
X53032094Y-76824062D01*
X53087681Y-76856156D01*
X53193123Y-76961598D01*
X53372361Y-77087102D01*
X53570670Y-77179575D01*
X53782023Y-77236207D01*
X54000000Y-77255277D01*
X54217977Y-77236207D01*
X54429330Y-77179575D01*
X54627639Y-77087102D01*
X54806877Y-76961598D01*
X54961598Y-76806877D01*
X55087102Y-76627639D01*
X55179575Y-76429330D01*
X55236207Y-76217977D01*
X55255277Y-76000000D01*
X55236207Y-75782023D01*
X55179575Y-75570670D01*
X55087102Y-75372362D01*
X54961598Y-75193123D01*
X54806877Y-75038402D01*
X54627639Y-74912898D01*
X54473295Y-74840926D01*
X54429331Y-74820425D01*
X54217974Y-74763792D01*
X54000000Y-74744722D01*
X53782025Y-74763792D01*
X53570668Y-74820425D01*
X53372361Y-74912898D01*
X53193122Y-75038402D01*
X53087681Y-75143844D01*
X53032094Y-75175938D01*
X52967906Y-75175938D01*
X52912319Y-75143844D01*
X52806880Y-75038405D01*
X52806877Y-75038402D01*
X52627639Y-74912898D01*
X52473295Y-74840926D01*
X52429331Y-74820425D01*
X52217974Y-74763792D01*
X52000000Y-74744722D01*
X51782025Y-74763792D01*
X51570668Y-74820425D01*
X51372363Y-74912897D01*
X51345884Y-74931437D01*
X51309358Y-74948936D01*
X51139602Y-74998254D01*
X50998133Y-75081919D01*
X50800483Y-75279569D01*
X50783834Y-75292908D01*
X50767423Y-75310385D01*
X50726278Y-75339302D01*
X50677032Y-75349500D01*
X48520808Y-75349500D01*
X48473355Y-75340061D01*
X48433127Y-75313181D01*
X47720434Y-74600488D01*
X47707091Y-74583833D01*
X47654166Y-74534134D01*
X47651369Y-74531423D01*
X47631034Y-74511088D01*
X47627547Y-74508383D01*
X47618671Y-74500801D01*
X47585394Y-74469552D01*
X47566793Y-74459326D01*
X47550532Y-74448645D01*
X47533764Y-74435638D01*
X47491870Y-74417508D01*
X47481379Y-74412369D01*
X47441367Y-74390372D01*
X47420800Y-74385091D01*
X47402398Y-74378791D01*
X47382924Y-74370364D01*
X47337837Y-74363223D01*
X47326398Y-74360854D01*
X47282178Y-74349500D01*
X47282177Y-74349500D01*
X47260955Y-74349500D01*
X47241556Y-74347973D01*
X47220596Y-74344653D01*
X47220595Y-74344653D01*
X47198558Y-74346736D01*
X47175139Y-74348950D01*
X47163470Y-74349500D01*
X46865178Y-74349500D01*
X46810997Y-74337037D01*
X46767707Y-74302152D01*
X46744012Y-74251858D01*
X46740607Y-74236207D01*
X46703013Y-74063388D01*
X46620279Y-73870187D01*
X46589061Y-73824062D01*
X46568716Y-73794002D01*
X46547585Y-73731136D01*
X46561876Y-73666372D01*
X46607500Y-73618237D01*
X46671407Y-73600500D01*
X49431755Y-73600500D01*
X49431756Y-73600500D01*
X49492160Y-73580873D01*
X49543542Y-73543542D01*
X49580873Y-73492160D01*
X49600500Y-73431756D01*
X49600500Y-73400000D01*
X49600500Y-73399500D01*
X49600500Y-62599901D01*
X49600500Y-62568244D01*
X49580873Y-62507840D01*
X49543542Y-62456458D01*
X49492160Y-62419127D01*
X49492159Y-62419126D01*
X49451382Y-62405877D01*
X49431756Y-62399500D01*
X49400099Y-62399500D01*
X46654644Y-62399500D01*
X46590737Y-62381763D01*
X46545112Y-62333627D01*
X46530822Y-62268863D01*
X46551954Y-62205997D01*
X46569838Y-62179573D01*
X46652534Y-61986458D01*
X46697188Y-61781189D01*
X46699999Y-61733991D01*
X46699999Y-60266007D01*
X46697188Y-60218811D01*
X46652534Y-60013541D01*
X46569838Y-59820426D01*
X46555018Y-59798533D01*
X45087680Y-61265871D01*
X45032093Y-61297965D01*
X44967905Y-61297965D01*
X44912318Y-61265871D01*
X43444980Y-59798532D01*
X43430161Y-59820426D01*
X43347465Y-60013541D01*
X43302811Y-60218810D01*
X43300000Y-60266008D01*
X43300000Y-61733992D01*
X43302811Y-61781188D01*
X43347465Y-61986458D01*
X43430161Y-62179573D01*
X43448046Y-62205997D01*
X43469178Y-62268863D01*
X43454888Y-62333627D01*
X43409263Y-62381763D01*
X43345356Y-62399500D01*
X40600500Y-62399500D01*
X40600000Y-62399500D01*
X40568244Y-62399500D01*
X40553431Y-62404313D01*
X40507840Y-62419126D01*
X40456458Y-62456458D01*
X40419126Y-62507840D01*
X40399500Y-62568245D01*
X40399500Y-73431755D01*
X38000000Y-73431755D01*
X38000000Y-59435344D01*
X43788896Y-59435344D01*
X44999999Y-60646446D01*
X46211103Y-59435343D01*
X46129573Y-59380161D01*
X45936458Y-59297465D01*
X45731189Y-59252811D01*
X45683991Y-59250000D01*
X44316007Y-59250000D01*
X44268811Y-59252811D01*
X44063541Y-59297465D01*
X43870427Y-59380161D01*
X43788896Y-59435342D01*
X43788896Y-59435344D01*
X38000000Y-59435344D01*
X38000000Y-51000000D01*
X57745224Y-51000000D01*
X57764287Y-51217886D01*
X57820898Y-51429161D01*
X57913331Y-51627386D01*
X57956873Y-51689571D01*
X57956875Y-51689572D01*
X58646447Y-51000001D01*
X58646447Y-51000000D01*
X57956875Y-50310427D01*
X57956874Y-50310428D01*
X57913333Y-50372611D01*
X57820897Y-50570840D01*
X57764287Y-50782113D01*
X57745224Y-51000000D01*
X38000000Y-51000000D01*
X38000000Y-29124000D01*
X38016613Y-29062000D01*
X38062000Y-29016613D01*
X38124000Y-29000000D01*
X95949907Y-29000000D01*
X95996353Y-29009027D01*
G37*
%TD.AperFunction*%
%TA.AperFunction,Conductor*%
G36*
X118211843Y-65256569D02*
G01*
X118246407Y-65274180D01*
X118311899Y-65321762D01*
X118397768Y-65384150D01*
X118397769Y-65384150D01*
X118397770Y-65384151D01*
X118570697Y-65461144D01*
X118570699Y-65461144D01*
X118578730Y-65464720D01*
X118630117Y-65507232D01*
X118652049Y-65570214D01*
X118638183Y-65635449D01*
X118592529Y-65684065D01*
X118528294Y-65702000D01*
X117717307Y-65702000D01*
X117661012Y-65688485D01*
X117616989Y-65650885D01*
X117594834Y-65597398D01*
X117599376Y-65539682D01*
X117629626Y-65490319D01*
X117833127Y-65286819D01*
X117873355Y-65259939D01*
X117920808Y-65250500D01*
X118173525Y-65250500D01*
X118211843Y-65256569D01*
G37*
%TD.AperFunction*%
%TA.AperFunction,Conductor*%
G36*
X118126645Y-53059939D02*
G01*
X118166873Y-53086819D01*
X119513181Y-54433127D01*
X119540061Y-54473355D01*
X119549500Y-54520808D01*
X119549500Y-60853676D01*
X119534628Y-60912557D01*
X119493580Y-60957315D01*
X119436202Y-60977213D01*
X119398664Y-60971117D01*
X119398396Y-60972815D01*
X119337837Y-60963223D01*
X119326398Y-60960854D01*
X119282178Y-60949500D01*
X119282177Y-60949500D01*
X119260955Y-60949500D01*
X119241556Y-60947973D01*
X119220596Y-60944653D01*
X119220595Y-60944653D01*
X119198558Y-60946736D01*
X119175139Y-60948950D01*
X119163470Y-60949500D01*
X114724500Y-60949500D01*
X114662500Y-60932887D01*
X114617113Y-60887500D01*
X114600500Y-60825500D01*
X114600500Y-59784308D01*
X114600090Y-59779102D01*
X114597598Y-59747431D01*
X114581909Y-59693431D01*
X114567294Y-59643124D01*
X115910426Y-59643124D01*
X115910427Y-59643125D01*
X115972610Y-59686666D01*
X116170840Y-59779102D01*
X116382113Y-59835712D01*
X116600000Y-59854775D01*
X116817886Y-59835712D01*
X117029159Y-59779102D01*
X117227385Y-59686667D01*
X117289572Y-59643124D01*
X116600001Y-58953553D01*
X116600000Y-58953553D01*
X115910426Y-59643124D01*
X114567294Y-59643124D01*
X114551744Y-59589602D01*
X114467768Y-59447606D01*
X114450500Y-59384485D01*
X114450500Y-57415515D01*
X114467768Y-57352394D01*
X114472305Y-57344723D01*
X114551744Y-57210398D01*
X114597598Y-57052569D01*
X114600500Y-57015694D01*
X114600500Y-55784306D01*
X114597598Y-55747431D01*
X114597597Y-55747427D01*
X114557408Y-55609095D01*
X114554502Y-55552222D01*
X114577323Y-55500048D01*
X114621059Y-55463576D01*
X114676484Y-55450500D01*
X115549864Y-55450500D01*
X115615482Y-55469284D01*
X115661219Y-55519947D01*
X115673218Y-55587137D01*
X115647844Y-55650499D01*
X115635639Y-55666232D01*
X115570365Y-55817074D01*
X115559855Y-55883421D01*
X115538959Y-55935141D01*
X115512897Y-55972363D01*
X115420425Y-56170668D01*
X115363792Y-56382025D01*
X115344722Y-56600000D01*
X115363792Y-56817974D01*
X115420425Y-57029331D01*
X115431852Y-57053836D01*
X115512898Y-57227639D01*
X115638402Y-57406877D01*
X115793123Y-57561598D01*
X115916625Y-57648075D01*
X115955489Y-57692392D01*
X115969500Y-57749649D01*
X115969500Y-58023691D01*
X115955985Y-58079986D01*
X115918385Y-58124009D01*
X115864898Y-58146164D01*
X115807182Y-58141622D01*
X115757819Y-58111372D01*
X115556875Y-57910427D01*
X115556874Y-57910428D01*
X115513333Y-57972611D01*
X115420897Y-58170840D01*
X115364287Y-58382113D01*
X115345224Y-58599999D01*
X115364287Y-58817886D01*
X115420898Y-59029161D01*
X115513331Y-59227386D01*
X115556873Y-59289571D01*
X115556874Y-59289572D01*
X116209628Y-58636819D01*
X116249856Y-58609939D01*
X116297309Y-58600500D01*
X116902691Y-58600500D01*
X116950144Y-58609939D01*
X116990372Y-58636819D01*
X117643124Y-59289572D01*
X117686667Y-59227385D01*
X117779102Y-59029159D01*
X117835712Y-58817886D01*
X117854775Y-58599999D01*
X117835712Y-58382113D01*
X117779102Y-58170840D01*
X117686667Y-57972615D01*
X117643123Y-57910428D01*
X117452181Y-58101372D01*
X117402818Y-58131622D01*
X117345102Y-58136164D01*
X117291615Y-58114009D01*
X117254015Y-58069986D01*
X117240500Y-58013691D01*
X117240500Y-57742647D01*
X117254511Y-57685390D01*
X117293374Y-57641073D01*
X117406877Y-57561598D01*
X117561598Y-57406877D01*
X117687102Y-57227639D01*
X117779575Y-57029330D01*
X117836207Y-56817977D01*
X117855277Y-56600000D01*
X117836207Y-56382023D01*
X117779575Y-56170670D01*
X117687102Y-55972362D01*
X117668565Y-55945888D01*
X117651063Y-55909360D01*
X117647598Y-55897433D01*
X117647598Y-55897431D01*
X117601745Y-55739602D01*
X117518081Y-55598135D01*
X117518080Y-55598133D01*
X117320434Y-55400488D01*
X117307091Y-55383834D01*
X117302375Y-55379405D01*
X117289616Y-55367424D01*
X117260699Y-55326279D01*
X117250500Y-55277032D01*
X117250500Y-55085505D01*
X117252841Y-55064294D01*
X117251864Y-55033212D01*
X117250561Y-54991724D01*
X117250500Y-54987829D01*
X117250500Y-54959082D01*
X117250500Y-54959075D01*
X117249947Y-54954700D01*
X117249031Y-54943063D01*
X117248263Y-54918616D01*
X117247598Y-54897431D01*
X117241675Y-54877045D01*
X117237731Y-54858004D01*
X117235071Y-54836942D01*
X117218267Y-54794501D01*
X117214484Y-54783452D01*
X117212629Y-54777066D01*
X117201745Y-54739602D01*
X117194167Y-54726788D01*
X117190937Y-54721326D01*
X117182376Y-54703850D01*
X117174568Y-54684129D01*
X117147731Y-54647191D01*
X117141317Y-54637425D01*
X117118081Y-54598135D01*
X117103074Y-54583128D01*
X117090436Y-54568331D01*
X117077963Y-54551163D01*
X117042779Y-54522056D01*
X117034140Y-54514194D01*
X116920434Y-54400488D01*
X116907091Y-54383833D01*
X116854166Y-54334134D01*
X116851369Y-54331423D01*
X116831034Y-54311088D01*
X116827547Y-54308383D01*
X116818671Y-54300801D01*
X116785394Y-54269552D01*
X116766793Y-54259326D01*
X116750532Y-54248645D01*
X116733764Y-54235638D01*
X116730309Y-54234143D01*
X116691869Y-54217508D01*
X116681379Y-54212369D01*
X116641367Y-54190372D01*
X116620800Y-54185091D01*
X116602398Y-54178791D01*
X116582924Y-54170364D01*
X116537837Y-54163223D01*
X116526398Y-54160854D01*
X116482178Y-54149500D01*
X116482177Y-54149500D01*
X116460955Y-54149500D01*
X116441556Y-54147973D01*
X116420596Y-54144653D01*
X116420595Y-54144653D01*
X116398558Y-54146736D01*
X116375139Y-54148950D01*
X116363470Y-54149500D01*
X114574500Y-54149500D01*
X114512500Y-54132887D01*
X114467113Y-54087500D01*
X114450500Y-54025500D01*
X114450500Y-53885505D01*
X114452841Y-53864295D01*
X114451474Y-53820808D01*
X114450560Y-53791737D01*
X114450500Y-53787843D01*
X114450500Y-53759081D01*
X114450500Y-53759075D01*
X114449946Y-53754695D01*
X114449030Y-53743054D01*
X114448584Y-53728849D01*
X114447597Y-53697431D01*
X114441675Y-53677048D01*
X114437732Y-53658011D01*
X114435071Y-53636942D01*
X114418263Y-53594491D01*
X114414480Y-53583442D01*
X114411547Y-53573345D01*
X114401744Y-53539602D01*
X114390937Y-53521329D01*
X114382382Y-53503866D01*
X114374568Y-53484129D01*
X114347733Y-53447193D01*
X114341325Y-53437436D01*
X114318084Y-53398138D01*
X114318081Y-53398135D01*
X114303068Y-53383122D01*
X114290435Y-53368330D01*
X114277963Y-53351163D01*
X114242779Y-53322056D01*
X114234140Y-53314194D01*
X114182127Y-53262181D01*
X114151877Y-53212818D01*
X114147335Y-53155102D01*
X114169490Y-53101615D01*
X114213513Y-53064015D01*
X114269808Y-53050500D01*
X118079192Y-53050500D01*
X118126645Y-53059939D01*
G37*
%TD.AperFunction*%
%TA.AperFunction,Conductor*%
G36*
X113087500Y-54167113D02*
G01*
X113132887Y-54212500D01*
X113149500Y-54274500D01*
X113149500Y-54726788D01*
X113147304Y-54750022D01*
X113145623Y-54758830D01*
X113149255Y-54816542D01*
X113149500Y-54824329D01*
X113149500Y-55102708D01*
X113139107Y-55152400D01*
X113109672Y-55193763D01*
X113100000Y-55202704D01*
X113100000Y-55468185D01*
X113082732Y-55531306D01*
X113048255Y-55589602D01*
X113002402Y-55747427D01*
X112999500Y-55784308D01*
X112999500Y-56526000D01*
X112982887Y-56588000D01*
X112937500Y-56633387D01*
X112875500Y-56650000D01*
X112824500Y-56650000D01*
X112762500Y-56633387D01*
X112717113Y-56588000D01*
X112700500Y-56526000D01*
X112700500Y-55784308D01*
X112700500Y-55784306D01*
X112697598Y-55747431D01*
X112695323Y-55739602D01*
X112651744Y-55589602D01*
X112617268Y-55531306D01*
X112600000Y-55468185D01*
X112600000Y-55202704D01*
X112590328Y-55193763D01*
X112560893Y-55152400D01*
X112550500Y-55102708D01*
X112550500Y-54274500D01*
X112567113Y-54212500D01*
X112612500Y-54167113D01*
X112674500Y-54150500D01*
X113025500Y-54150500D01*
X113087500Y-54167113D01*
G37*
%TD.AperFunction*%
%TA.AperFunction,Conductor*%
G36*
X111809646Y-44807740D02*
G01*
X111913349Y-44842682D01*
X112091853Y-44862096D01*
X112270357Y-44842682D01*
X112301289Y-44832259D01*
X112368113Y-44828795D01*
X112427010Y-44860561D01*
X112483882Y-44915472D01*
X112518067Y-44974673D01*
X112516043Y-45032681D01*
X112516181Y-45032696D01*
X112515974Y-45034658D01*
X112515684Y-45042994D01*
X112514818Y-45045657D01*
X112495043Y-45233808D01*
X112514818Y-45421961D01*
X112573278Y-45601885D01*
X112667876Y-45765729D01*
X112719073Y-45825676D01*
X113373817Y-46480420D01*
X113433764Y-46531617D01*
X113597608Y-46626215D01*
X113777532Y-46684675D01*
X113965685Y-46704450D01*
X114153837Y-46684675D01*
X114204516Y-46668208D01*
X114270724Y-46665315D01*
X114328964Y-46696931D01*
X118231713Y-50465102D01*
X118718718Y-50935314D01*
X118751167Y-50988258D01*
X118753880Y-51050295D01*
X118726175Y-51105868D01*
X118675000Y-51141041D01*
X118613190Y-51146993D01*
X118598415Y-51144652D01*
X118552957Y-51148950D01*
X118541288Y-51149500D01*
X112498626Y-51149500D01*
X112451173Y-51140061D01*
X112410945Y-51113181D01*
X110286819Y-48989055D01*
X110259939Y-48948827D01*
X110250500Y-48901374D01*
X110250500Y-46320808D01*
X110259939Y-46273355D01*
X110286819Y-46233127D01*
X110602123Y-45917823D01*
X111682377Y-44837567D01*
X111741763Y-44804521D01*
X111809646Y-44807740D01*
G37*
%TD.AperFunction*%
%TD*%
M02*
