%TF.GenerationSoftware,KiCad,Pcbnew,7.0.1*%
%TF.CreationDate,2023-07-03T20:41:50-04:00*%
%TF.ProjectId,business_card,62757369-6e65-4737-935f-636172642e6b,rev?*%
%TF.SameCoordinates,Original*%
%TF.FileFunction,Copper,L2,Bot*%
%TF.FilePolarity,Positive*%
%FSLAX46Y46*%
G04 Gerber Fmt 4.6, Leading zero omitted, Abs format (unit mm)*
G04 Created by KiCad (PCBNEW 7.0.1) date 2023-07-03 20:41:50*
%MOMM*%
%LPD*%
G01*
G04 APERTURE LIST*
%TA.AperFunction,ComponentPad*%
%ADD10C,1.500000*%
%TD*%
%TA.AperFunction,ViaPad*%
%ADD11C,0.800000*%
%TD*%
%TA.AperFunction,Conductor*%
%ADD12C,0.300000*%
%TD*%
G04 APERTURE END LIST*
D10*
%TO.P,D4,1,K*%
%TO.N,GND*%
X68000000Y-51000000D03*
%TO.P,D4,2,A*%
%TO.N,Net-(D4-A)*%
X66000000Y-51000000D03*
%TD*%
%TO.P,R6,1*%
%TO.N,Net-(BZ1-+)*%
X52000000Y-76000000D03*
%TO.P,R6,2*%
%TO.N,Net-(U1-PB1)*%
X54000000Y-76000000D03*
%TD*%
%TO.P,R4,1*%
%TO.N,Net-(U1-PA1)*%
X68000000Y-73000000D03*
%TO.P,R4,2*%
%TO.N,Net-(D4-A)*%
X66000000Y-73000000D03*
%TD*%
%TO.P,D3,1,K*%
%TO.N,GND*%
X75000000Y-51000000D03*
%TO.P,D3,2,A*%
%TO.N,Net-(D3-A)*%
X73000000Y-51000000D03*
%TD*%
%TO.P,D2,1,K*%
%TO.N,GND*%
X89000000Y-51000000D03*
%TO.P,D2,2,A*%
%TO.N,Net-(D2-A)*%
X87000000Y-51000000D03*
%TD*%
%TO.P,C2,1*%
%TO.N,/3V3_SUPPLY*%
X109200000Y-58600000D03*
%TO.P,C2,2*%
%TO.N,GND*%
X109200000Y-56600000D03*
%TD*%
%TO.P,R3,1*%
%TO.N,Net-(U1-PA2)*%
X75000000Y-73000000D03*
%TO.P,R3,2*%
%TO.N,Net-(D3-A)*%
X73000000Y-73000000D03*
%TD*%
%TO.P,C1,1*%
%TO.N,/5V_USB*%
X116600000Y-56600000D03*
%TO.P,C1,2*%
%TO.N,GND*%
X116600000Y-58600000D03*
%TD*%
%TO.P,D5,1,K*%
%TO.N,GND*%
X61000000Y-51000000D03*
%TO.P,D5,2,A*%
%TO.N,Net-(D5-A)*%
X59000000Y-51000000D03*
%TD*%
%TO.P,R5,1*%
%TO.N,Net-(U1-PA0)*%
X61000000Y-73000000D03*
%TO.P,R5,2*%
%TO.N,Net-(D5-A)*%
X59000000Y-73000000D03*
%TD*%
%TO.P,R2,1*%
%TO.N,Net-(U1-PA4)*%
X89000000Y-73000000D03*
%TO.P,R2,2*%
%TO.N,Net-(D2-A)*%
X87000000Y-73000000D03*
%TD*%
%TO.P,D1,1,K*%
%TO.N,GND*%
X82000000Y-51000000D03*
%TO.P,D1,2,A*%
%TO.N,Net-(D1-A)*%
X80000000Y-51000000D03*
%TD*%
%TO.P,R1,1*%
%TO.N,Net-(U1-PA3)*%
X82000000Y-73000000D03*
%TO.P,R1,2*%
%TO.N,Net-(D1-A)*%
X80000000Y-73000000D03*
%TD*%
D11*
%TO.N,GND*%
X112800000Y-54600000D03*
X96200000Y-30800000D03*
X39000000Y-77200000D03*
X38800000Y-30600000D03*
X116600000Y-60400000D03*
X123400000Y-56400000D03*
X116800000Y-50400000D03*
X121200000Y-75800000D03*
X118188385Y-65414285D03*
X40000000Y-30600000D03*
X124000000Y-57400000D03*
X111000000Y-48200000D03*
X95600000Y-29800000D03*
X116200000Y-49400000D03*
X122800000Y-57400000D03*
X40200000Y-77200000D03*
X120600000Y-76800000D03*
X39400000Y-29600000D03*
X115600000Y-50400000D03*
X95000000Y-30800000D03*
X118000000Y-60400000D03*
X39600000Y-76200000D03*
X121800000Y-76800000D03*
%TO.N,/3V3_SUPPLY*%
X101600000Y-67000000D03*
X110000000Y-60400000D03*
%TO.N,Net-(U1-PB1)*%
X118850500Y-64600000D03*
%TD*%
D12*
%TO.N,/3V3_SUPPLY*%
X101600000Y-61000000D02*
X101600000Y-67000000D01*
X110000000Y-60400000D02*
X102200000Y-60400000D01*
X102200000Y-60400000D02*
X101600000Y-61000000D01*
%TO.N,Net-(U1-PB1)*%
X118850500Y-64600000D02*
X119315500Y-65065000D01*
X54800000Y-76200000D02*
X54600000Y-76400000D01*
X57800000Y-78400000D02*
X57200000Y-77800000D01*
X57200000Y-77800000D02*
X57200000Y-76600000D01*
X122665000Y-65065000D02*
X124200000Y-66600000D01*
X119315500Y-65065000D02*
X122665000Y-65065000D01*
X54800000Y-76000000D02*
X54800000Y-76200000D01*
X124200000Y-66600000D02*
X124200000Y-76800000D01*
X54800000Y-76000000D02*
X54800000Y-75800000D01*
X54800000Y-75800000D02*
X54600000Y-75600000D01*
X56600000Y-76000000D02*
X54800000Y-76000000D01*
X57200000Y-76600000D02*
X56600000Y-76000000D01*
X124200000Y-76800000D02*
X122600000Y-78400000D01*
X54800000Y-76000000D02*
X54150000Y-76000000D01*
X122600000Y-78400000D02*
X57800000Y-78400000D01*
%TD*%
%TA.AperFunction,Conductor*%
%TO.N,GND*%
G36*
X96395909Y-29000586D02*
G01*
X96418772Y-29002817D01*
X96571231Y-29017698D01*
X96594857Y-29022354D01*
X96757753Y-29071299D01*
X96780023Y-29080432D01*
X96930380Y-29159951D01*
X96950477Y-29173226D01*
X97087320Y-29284126D01*
X97096309Y-29292165D01*
X125097735Y-56901963D01*
X125106039Y-56911006D01*
X125220647Y-57048913D01*
X125234381Y-57069234D01*
X125316669Y-57221569D01*
X125326134Y-57244194D01*
X125376831Y-57409746D01*
X125381658Y-57433791D01*
X125399392Y-57612227D01*
X125400000Y-57624490D01*
X125400000Y-77793907D01*
X125399403Y-77806061D01*
X125381982Y-77982934D01*
X125377240Y-78006775D01*
X125327424Y-78170998D01*
X125318121Y-78193456D01*
X125237227Y-78344798D01*
X125223722Y-78365010D01*
X125114854Y-78497666D01*
X125097666Y-78514854D01*
X124965010Y-78623722D01*
X124944798Y-78637227D01*
X124793456Y-78718121D01*
X124770998Y-78727424D01*
X124606775Y-78777240D01*
X124582934Y-78781982D01*
X124406061Y-78799403D01*
X124393907Y-78800000D01*
X123136465Y-78800000D01*
X123080170Y-78786485D01*
X123036147Y-78748885D01*
X123013992Y-78695398D01*
X123018534Y-78637682D01*
X123048784Y-78588319D01*
X123292305Y-78344798D01*
X124495744Y-77141357D01*
X124506093Y-77132109D01*
X124533970Y-77109879D01*
X124566191Y-77062618D01*
X124568859Y-77058859D01*
X124571278Y-77055582D01*
X124602793Y-77012882D01*
X124602794Y-77012877D01*
X124606381Y-77008018D01*
X124608692Y-77003441D01*
X124610470Y-76997675D01*
X124610472Y-76997673D01*
X124627330Y-76943014D01*
X124628775Y-76938626D01*
X124647646Y-76884699D01*
X124647646Y-76884695D01*
X124649637Y-76879006D01*
X124650500Y-76873932D01*
X124650500Y-76810754D01*
X124650587Y-76806116D01*
X124652067Y-76766566D01*
X124652725Y-76748990D01*
X124652724Y-76748989D01*
X124652950Y-76742973D01*
X124650500Y-76724362D01*
X124650500Y-66632262D01*
X124651280Y-66618378D01*
X124655270Y-66582965D01*
X124645640Y-66532069D01*
X124644635Y-66526761D01*
X124643864Y-66522217D01*
X124634450Y-66459752D01*
X124632839Y-66454856D01*
X124603303Y-66398972D01*
X124601212Y-66394830D01*
X124573814Y-66337936D01*
X124570818Y-66333714D01*
X124526152Y-66289048D01*
X124522934Y-66285708D01*
X124479958Y-66239391D01*
X124465070Y-66227966D01*
X123006368Y-64769265D01*
X122997102Y-64758897D01*
X122974879Y-64731030D01*
X122927608Y-64698800D01*
X122923870Y-64696148D01*
X122873035Y-64658629D01*
X122868424Y-64656302D01*
X122808049Y-64637679D01*
X122803644Y-64636230D01*
X122744023Y-64615368D01*
X122738914Y-64614500D01*
X122732902Y-64614500D01*
X122675738Y-64614500D01*
X122671101Y-64614413D01*
X122607970Y-64612050D01*
X122589365Y-64614500D01*
X119667760Y-64614500D01*
X119610134Y-64600297D01*
X119565710Y-64560940D01*
X119544664Y-64505447D01*
X119535640Y-64431128D01*
X119475318Y-64272070D01*
X119378683Y-64132071D01*
X119251352Y-64019266D01*
X119237088Y-64011780D01*
X119100724Y-63940209D01*
X118976265Y-63909533D01*
X118935556Y-63899500D01*
X118765444Y-63899500D01*
X118732784Y-63907549D01*
X118600275Y-63940209D01*
X118449649Y-64019265D01*
X118322315Y-64132072D01*
X118225682Y-64272069D01*
X118165360Y-64431127D01*
X118144854Y-64599999D01*
X118165360Y-64768872D01*
X118225682Y-64927930D01*
X118322315Y-65067927D01*
X118322316Y-65067928D01*
X118322317Y-65067929D01*
X118449648Y-65180734D01*
X118600275Y-65259790D01*
X118765444Y-65300500D01*
X118862535Y-65300500D01*
X118909988Y-65309939D01*
X118950216Y-65336819D01*
X118974130Y-65360733D01*
X118983396Y-65371101D01*
X119005620Y-65398969D01*
X119052864Y-65431180D01*
X119056645Y-65433863D01*
X119107473Y-65471376D01*
X119112064Y-65473694D01*
X119117825Y-65475471D01*
X119117827Y-65475472D01*
X119172483Y-65492330D01*
X119176842Y-65493765D01*
X119230800Y-65512646D01*
X119230803Y-65512646D01*
X119236491Y-65514636D01*
X119241571Y-65515500D01*
X119247598Y-65515500D01*
X119304761Y-65515500D01*
X119309398Y-65515587D01*
X119366510Y-65517724D01*
X119366510Y-65517723D01*
X119372529Y-65517949D01*
X119391135Y-65515500D01*
X122427034Y-65515500D01*
X122474487Y-65524939D01*
X122514715Y-65551819D01*
X123713181Y-66750284D01*
X123740061Y-66790512D01*
X123749500Y-66837965D01*
X123749500Y-76562035D01*
X123740061Y-76609488D01*
X123713181Y-76649716D01*
X122449716Y-77913181D01*
X122409488Y-77940061D01*
X122362035Y-77949500D01*
X58037965Y-77949500D01*
X57990512Y-77940061D01*
X57950284Y-77913181D01*
X57686819Y-77649716D01*
X57659939Y-77609488D01*
X57650500Y-77562035D01*
X57650500Y-76632262D01*
X57651280Y-76618378D01*
X57655270Y-76582966D01*
X57655270Y-76582965D01*
X57644635Y-76526761D01*
X57643864Y-76522220D01*
X57634448Y-76459744D01*
X57632842Y-76454861D01*
X57605936Y-76403956D01*
X57603296Y-76398961D01*
X57601241Y-76394892D01*
X57576425Y-76343358D01*
X57576423Y-76343356D01*
X57573807Y-76337923D01*
X57570827Y-76333723D01*
X57526165Y-76289062D01*
X57522946Y-76285721D01*
X57479958Y-76239391D01*
X57465067Y-76227964D01*
X56941368Y-75704265D01*
X56932102Y-75693897D01*
X56919182Y-75677696D01*
X56909879Y-75666030D01*
X56862608Y-75633800D01*
X56858870Y-75631148D01*
X56808035Y-75593629D01*
X56803424Y-75591302D01*
X56743049Y-75572679D01*
X56738644Y-75571230D01*
X56679023Y-75550368D01*
X56673914Y-75549500D01*
X56667902Y-75549500D01*
X56610738Y-75549500D01*
X56606101Y-75549413D01*
X56542970Y-75547050D01*
X56524365Y-75549500D01*
X55237965Y-75549500D01*
X55190512Y-75540061D01*
X55150284Y-75513181D01*
X55126164Y-75489061D01*
X55122946Y-75485721D01*
X55079958Y-75439391D01*
X55065067Y-75427964D01*
X54894679Y-75257576D01*
X54812882Y-75197207D01*
X54812881Y-75197206D01*
X54684699Y-75152354D01*
X54661847Y-75151498D01*
X54622533Y-75143535D01*
X54587818Y-75123437D01*
X54586449Y-75122314D01*
X54403956Y-75024769D01*
X54403955Y-75024768D01*
X54403954Y-75024768D01*
X54304943Y-74994733D01*
X54205932Y-74964699D01*
X54000000Y-74944417D01*
X53794067Y-74964699D01*
X53596043Y-75024769D01*
X53413551Y-75122314D01*
X53253589Y-75253590D01*
X53203877Y-75314165D01*
X53161041Y-75347595D01*
X53108024Y-75359500D01*
X52891976Y-75359500D01*
X52838959Y-75347595D01*
X52796123Y-75314165D01*
X52746410Y-75253590D01*
X52746409Y-75253589D01*
X52586450Y-75122315D01*
X52403954Y-75024768D01*
X52304943Y-74994733D01*
X52205932Y-74964699D01*
X52000000Y-74944417D01*
X51794067Y-74964699D01*
X51596043Y-75024769D01*
X51413551Y-75122314D01*
X51253589Y-75253589D01*
X51122314Y-75413551D01*
X51024769Y-75596043D01*
X50964699Y-75794067D01*
X50944417Y-76000000D01*
X50964699Y-76205932D01*
X50974849Y-76239391D01*
X51024768Y-76403954D01*
X51122315Y-76586450D01*
X51154199Y-76625301D01*
X51253589Y-76746410D01*
X51326342Y-76806116D01*
X51413550Y-76877685D01*
X51596046Y-76975232D01*
X51794066Y-77035300D01*
X52000000Y-77055583D01*
X52205934Y-77035300D01*
X52403954Y-76975232D01*
X52586450Y-76877685D01*
X52746410Y-76746410D01*
X52804328Y-76675835D01*
X52847165Y-76642405D01*
X52900182Y-76630500D01*
X53099818Y-76630500D01*
X53152835Y-76642405D01*
X53195671Y-76675835D01*
X53253590Y-76746410D01*
X53413550Y-76877685D01*
X53596046Y-76975232D01*
X53794066Y-77035300D01*
X54000000Y-77055583D01*
X54205934Y-77035300D01*
X54403954Y-76975232D01*
X54586450Y-76877685D01*
X54588289Y-76876175D01*
X54596125Y-76872513D01*
X54597223Y-76871927D01*
X54597254Y-76871986D01*
X54643907Y-76850186D01*
X54708496Y-76837965D01*
X54750472Y-76830023D01*
X54870538Y-76766566D01*
X55095748Y-76541353D01*
X55106098Y-76532105D01*
X55133970Y-76509879D01*
X55137535Y-76504649D01*
X55182048Y-76464870D01*
X55239990Y-76450500D01*
X56362034Y-76450500D01*
X56409487Y-76459939D01*
X56449715Y-76486819D01*
X56713181Y-76750284D01*
X56740061Y-76790512D01*
X56749500Y-76837965D01*
X56749500Y-77767738D01*
X56748720Y-77781622D01*
X56744729Y-77817034D01*
X56755356Y-77873194D01*
X56756133Y-77877766D01*
X56765550Y-77940248D01*
X56767163Y-77945148D01*
X56796687Y-78001010D01*
X56798777Y-78005150D01*
X56826184Y-78062060D01*
X56829183Y-78066287D01*
X56873846Y-78110950D01*
X56877063Y-78114289D01*
X56920043Y-78160611D01*
X56934930Y-78172034D01*
X57351216Y-78588319D01*
X57381466Y-78637682D01*
X57386008Y-78695398D01*
X57363853Y-78748885D01*
X57319830Y-78786485D01*
X57263535Y-78800000D01*
X38606093Y-78800000D01*
X38593939Y-78799403D01*
X38417065Y-78781982D01*
X38393224Y-78777240D01*
X38229001Y-78727424D01*
X38206543Y-78718121D01*
X38055201Y-78637227D01*
X38034989Y-78623722D01*
X37902333Y-78514854D01*
X37885145Y-78497666D01*
X37776277Y-78365010D01*
X37762772Y-78344798D01*
X37681878Y-78193456D01*
X37672575Y-78170998D01*
X37622757Y-78006769D01*
X37618018Y-77982941D01*
X37600597Y-77806061D01*
X37600000Y-77793907D01*
X37600000Y-73431755D01*
X40399500Y-73431755D01*
X40419126Y-73492159D01*
X40419127Y-73492160D01*
X40456458Y-73543542D01*
X40507840Y-73580873D01*
X40568244Y-73600500D01*
X40599901Y-73600500D01*
X40600000Y-73600500D01*
X40600500Y-73600500D01*
X49399500Y-73600500D01*
X49400099Y-73600500D01*
X49431755Y-73600500D01*
X49431756Y-73600500D01*
X49492160Y-73580873D01*
X49543542Y-73543542D01*
X49580873Y-73492160D01*
X49600500Y-73431756D01*
X49600500Y-73400000D01*
X49600500Y-73399500D01*
X49600500Y-73000000D01*
X57944417Y-73000000D01*
X57964699Y-73205932D01*
X57964700Y-73205934D01*
X58024768Y-73403954D01*
X58122315Y-73586450D01*
X58173609Y-73648952D01*
X58253589Y-73746410D01*
X58333570Y-73812047D01*
X58413550Y-73877685D01*
X58596046Y-73975232D01*
X58794066Y-74035300D01*
X59000000Y-74055583D01*
X59205934Y-74035300D01*
X59403954Y-73975232D01*
X59586450Y-73877685D01*
X59746410Y-73746410D01*
X59796121Y-73685835D01*
X59838959Y-73652405D01*
X59891976Y-73640500D01*
X60108024Y-73640500D01*
X60161041Y-73652405D01*
X60203878Y-73685835D01*
X60253590Y-73746410D01*
X60413550Y-73877685D01*
X60596046Y-73975232D01*
X60794066Y-74035300D01*
X61000000Y-74055583D01*
X61205934Y-74035300D01*
X61403954Y-73975232D01*
X61586450Y-73877685D01*
X61746410Y-73746410D01*
X61877685Y-73586450D01*
X61975232Y-73403954D01*
X62035300Y-73205934D01*
X62055583Y-73000000D01*
X62055583Y-72999999D01*
X64944417Y-72999999D01*
X64964699Y-73205932D01*
X64964700Y-73205934D01*
X65024768Y-73403954D01*
X65122315Y-73586450D01*
X65173609Y-73648952D01*
X65253589Y-73746410D01*
X65333570Y-73812047D01*
X65413550Y-73877685D01*
X65596046Y-73975232D01*
X65794066Y-74035300D01*
X66000000Y-74055583D01*
X66205934Y-74035300D01*
X66403954Y-73975232D01*
X66586450Y-73877685D01*
X66746410Y-73746410D01*
X66796121Y-73685835D01*
X66838959Y-73652405D01*
X66891976Y-73640500D01*
X67108024Y-73640500D01*
X67161041Y-73652405D01*
X67203878Y-73685835D01*
X67253590Y-73746410D01*
X67413550Y-73877685D01*
X67596046Y-73975232D01*
X67794066Y-74035300D01*
X68000000Y-74055583D01*
X68205934Y-74035300D01*
X68403954Y-73975232D01*
X68586450Y-73877685D01*
X68746410Y-73746410D01*
X68877685Y-73586450D01*
X68975232Y-73403954D01*
X69035300Y-73205934D01*
X69055583Y-73000000D01*
X69055583Y-72999999D01*
X71944417Y-72999999D01*
X71964699Y-73205932D01*
X71964700Y-73205934D01*
X72024768Y-73403954D01*
X72122315Y-73586450D01*
X72173609Y-73648952D01*
X72253589Y-73746410D01*
X72333570Y-73812047D01*
X72413550Y-73877685D01*
X72596046Y-73975232D01*
X72794066Y-74035300D01*
X73000000Y-74055583D01*
X73205934Y-74035300D01*
X73403954Y-73975232D01*
X73586450Y-73877685D01*
X73746410Y-73746410D01*
X73796121Y-73685835D01*
X73838959Y-73652405D01*
X73891976Y-73640500D01*
X74108024Y-73640500D01*
X74161041Y-73652405D01*
X74203878Y-73685835D01*
X74253590Y-73746410D01*
X74413550Y-73877685D01*
X74596046Y-73975232D01*
X74794066Y-74035300D01*
X75000000Y-74055583D01*
X75205934Y-74035300D01*
X75403954Y-73975232D01*
X75586450Y-73877685D01*
X75746410Y-73746410D01*
X75877685Y-73586450D01*
X75975232Y-73403954D01*
X76035300Y-73205934D01*
X76055583Y-73000000D01*
X76055583Y-72999999D01*
X78944417Y-72999999D01*
X78964699Y-73205932D01*
X78964700Y-73205934D01*
X79024768Y-73403954D01*
X79122315Y-73586450D01*
X79173609Y-73648952D01*
X79253589Y-73746410D01*
X79333570Y-73812047D01*
X79413550Y-73877685D01*
X79596046Y-73975232D01*
X79794066Y-74035300D01*
X80000000Y-74055583D01*
X80205934Y-74035300D01*
X80403954Y-73975232D01*
X80586450Y-73877685D01*
X80746410Y-73746410D01*
X80796121Y-73685835D01*
X80838959Y-73652405D01*
X80891976Y-73640500D01*
X81108024Y-73640500D01*
X81161041Y-73652405D01*
X81203878Y-73685835D01*
X81253590Y-73746410D01*
X81413550Y-73877685D01*
X81596046Y-73975232D01*
X81794066Y-74035300D01*
X82000000Y-74055583D01*
X82205934Y-74035300D01*
X82403954Y-73975232D01*
X82586450Y-73877685D01*
X82746410Y-73746410D01*
X82877685Y-73586450D01*
X82975232Y-73403954D01*
X83035300Y-73205934D01*
X83055583Y-73000000D01*
X83055583Y-72999999D01*
X85944417Y-72999999D01*
X85964699Y-73205932D01*
X85964700Y-73205934D01*
X86024768Y-73403954D01*
X86122315Y-73586450D01*
X86173609Y-73648952D01*
X86253589Y-73746410D01*
X86333570Y-73812047D01*
X86413550Y-73877685D01*
X86596046Y-73975232D01*
X86794066Y-74035300D01*
X87000000Y-74055583D01*
X87205934Y-74035300D01*
X87403954Y-73975232D01*
X87586450Y-73877685D01*
X87746410Y-73746410D01*
X87796121Y-73685835D01*
X87838959Y-73652405D01*
X87891976Y-73640500D01*
X88108024Y-73640500D01*
X88161041Y-73652405D01*
X88203878Y-73685835D01*
X88253590Y-73746410D01*
X88413550Y-73877685D01*
X88596046Y-73975232D01*
X88794066Y-74035300D01*
X89000000Y-74055583D01*
X89205934Y-74035300D01*
X89403954Y-73975232D01*
X89586450Y-73877685D01*
X89746410Y-73746410D01*
X89877685Y-73586450D01*
X89975232Y-73403954D01*
X90035300Y-73205934D01*
X90055583Y-73000000D01*
X90035300Y-72794066D01*
X89975232Y-72596046D01*
X89877685Y-72413550D01*
X89804328Y-72324164D01*
X89746410Y-72253589D01*
X89648952Y-72173608D01*
X89586450Y-72122315D01*
X89403954Y-72024768D01*
X89304944Y-71994734D01*
X89205932Y-71964699D01*
X89000000Y-71944417D01*
X88794067Y-71964699D01*
X88596043Y-72024769D01*
X88413551Y-72122314D01*
X88253589Y-72253590D01*
X88195672Y-72324164D01*
X88152835Y-72357595D01*
X88099818Y-72369500D01*
X87900182Y-72369500D01*
X87847165Y-72357595D01*
X87804328Y-72324164D01*
X87746410Y-72253590D01*
X87746409Y-72253589D01*
X87586450Y-72122315D01*
X87403954Y-72024768D01*
X87304944Y-71994734D01*
X87205932Y-71964699D01*
X87000000Y-71944417D01*
X86794067Y-71964699D01*
X86596043Y-72024769D01*
X86413551Y-72122314D01*
X86253589Y-72253589D01*
X86122314Y-72413551D01*
X86024769Y-72596043D01*
X85964699Y-72794067D01*
X85944417Y-72999999D01*
X83055583Y-72999999D01*
X83035300Y-72794066D01*
X82975232Y-72596046D01*
X82877685Y-72413550D01*
X82804328Y-72324164D01*
X82746410Y-72253589D01*
X82648952Y-72173608D01*
X82586450Y-72122315D01*
X82403954Y-72024768D01*
X82304944Y-71994734D01*
X82205932Y-71964699D01*
X82000000Y-71944417D01*
X81794067Y-71964699D01*
X81596043Y-72024769D01*
X81413551Y-72122314D01*
X81253589Y-72253590D01*
X81195672Y-72324164D01*
X81152835Y-72357595D01*
X81099818Y-72369500D01*
X80900182Y-72369500D01*
X80847165Y-72357595D01*
X80804328Y-72324164D01*
X80746410Y-72253590D01*
X80746409Y-72253589D01*
X80586450Y-72122315D01*
X80403954Y-72024768D01*
X80304944Y-71994734D01*
X80205932Y-71964699D01*
X80000000Y-71944417D01*
X79794067Y-71964699D01*
X79596043Y-72024769D01*
X79413551Y-72122314D01*
X79253589Y-72253589D01*
X79122314Y-72413551D01*
X79024769Y-72596043D01*
X78964699Y-72794067D01*
X78944417Y-72999999D01*
X76055583Y-72999999D01*
X76035300Y-72794066D01*
X75975232Y-72596046D01*
X75877685Y-72413550D01*
X75804328Y-72324164D01*
X75746410Y-72253589D01*
X75648952Y-72173608D01*
X75586450Y-72122315D01*
X75403954Y-72024768D01*
X75304944Y-71994734D01*
X75205932Y-71964699D01*
X75000000Y-71944417D01*
X74794067Y-71964699D01*
X74596043Y-72024769D01*
X74413551Y-72122314D01*
X74253589Y-72253590D01*
X74195672Y-72324164D01*
X74152835Y-72357595D01*
X74099818Y-72369500D01*
X73900182Y-72369500D01*
X73847165Y-72357595D01*
X73804328Y-72324164D01*
X73746410Y-72253590D01*
X73746409Y-72253589D01*
X73586450Y-72122315D01*
X73403954Y-72024768D01*
X73304944Y-71994734D01*
X73205932Y-71964699D01*
X73000000Y-71944417D01*
X72794067Y-71964699D01*
X72596043Y-72024769D01*
X72413551Y-72122314D01*
X72253589Y-72253589D01*
X72122314Y-72413551D01*
X72024769Y-72596043D01*
X71964699Y-72794067D01*
X71944417Y-72999999D01*
X69055583Y-72999999D01*
X69035300Y-72794066D01*
X68975232Y-72596046D01*
X68877685Y-72413550D01*
X68804328Y-72324164D01*
X68746410Y-72253589D01*
X68648952Y-72173608D01*
X68586450Y-72122315D01*
X68403954Y-72024768D01*
X68304944Y-71994734D01*
X68205932Y-71964699D01*
X68000000Y-71944417D01*
X67794067Y-71964699D01*
X67596043Y-72024769D01*
X67413551Y-72122314D01*
X67253589Y-72253590D01*
X67195672Y-72324164D01*
X67152835Y-72357595D01*
X67099818Y-72369500D01*
X66900182Y-72369500D01*
X66847165Y-72357595D01*
X66804328Y-72324164D01*
X66746410Y-72253590D01*
X66746409Y-72253589D01*
X66586450Y-72122315D01*
X66403954Y-72024768D01*
X66304944Y-71994734D01*
X66205932Y-71964699D01*
X66000000Y-71944417D01*
X65794067Y-71964699D01*
X65596043Y-72024769D01*
X65413551Y-72122314D01*
X65253589Y-72253589D01*
X65122314Y-72413551D01*
X65024769Y-72596043D01*
X64964699Y-72794067D01*
X64944417Y-72999999D01*
X62055583Y-72999999D01*
X62035300Y-72794066D01*
X61975232Y-72596046D01*
X61877685Y-72413550D01*
X61804328Y-72324164D01*
X61746410Y-72253589D01*
X61648952Y-72173608D01*
X61586450Y-72122315D01*
X61403954Y-72024768D01*
X61304944Y-71994734D01*
X61205932Y-71964699D01*
X61000000Y-71944417D01*
X60794067Y-71964699D01*
X60596043Y-72024769D01*
X60413551Y-72122314D01*
X60253589Y-72253590D01*
X60195672Y-72324164D01*
X60152835Y-72357595D01*
X60099818Y-72369500D01*
X59900182Y-72369500D01*
X59847165Y-72357595D01*
X59804328Y-72324164D01*
X59746410Y-72253590D01*
X59746409Y-72253589D01*
X59586450Y-72122315D01*
X59403954Y-72024768D01*
X59304944Y-71994734D01*
X59205932Y-71964699D01*
X59000000Y-71944417D01*
X58794067Y-71964699D01*
X58596043Y-72024769D01*
X58413551Y-72122314D01*
X58253589Y-72253589D01*
X58122314Y-72413551D01*
X58024769Y-72596043D01*
X57964699Y-72794067D01*
X57944417Y-73000000D01*
X49600500Y-73000000D01*
X49600500Y-69596394D01*
X109249500Y-69596394D01*
X109274596Y-69706350D01*
X109323532Y-69807967D01*
X109358196Y-69851433D01*
X109393854Y-69896146D01*
X109436964Y-69930525D01*
X109482032Y-69966467D01*
X109583649Y-70015403D01*
X109693606Y-70040500D01*
X109693607Y-70040500D01*
X109749901Y-70040500D01*
X109750000Y-70040500D01*
X109750500Y-70040500D01*
X114249500Y-70040500D01*
X114250099Y-70040500D01*
X114306393Y-70040500D01*
X114306394Y-70040500D01*
X114343045Y-70032134D01*
X114416351Y-70015403D01*
X114517661Y-69966614D01*
X114517833Y-69966573D01*
X114517964Y-69966468D01*
X114517967Y-69966467D01*
X114606146Y-69896146D01*
X114606150Y-69896140D01*
X114607879Y-69894762D01*
X114608233Y-69894233D01*
X114614390Y-69885808D01*
X114676467Y-69807967D01*
X114725403Y-69706351D01*
X114750500Y-69596393D01*
X114750500Y-69540000D01*
X114750500Y-69539500D01*
X114750500Y-62539901D01*
X114750500Y-62483607D01*
X114750301Y-62482737D01*
X114725403Y-62373649D01*
X114676467Y-62272032D01*
X114641804Y-62228567D01*
X114606146Y-62183854D01*
X114567023Y-62152654D01*
X114517967Y-62113532D01*
X114416350Y-62064596D01*
X114306394Y-62039500D01*
X114306393Y-62039500D01*
X114250099Y-62039500D01*
X109750500Y-62039500D01*
X109750000Y-62039500D01*
X109693607Y-62039500D01*
X109693606Y-62039500D01*
X109583649Y-62064596D01*
X109482032Y-62113532D01*
X109393854Y-62183854D01*
X109323532Y-62272032D01*
X109274596Y-62373649D01*
X109249500Y-62483606D01*
X109249500Y-69596394D01*
X49600500Y-69596394D01*
X49600500Y-66999999D01*
X100894354Y-66999999D01*
X100914860Y-67168872D01*
X100975182Y-67327930D01*
X101071815Y-67467927D01*
X101071816Y-67467928D01*
X101071817Y-67467929D01*
X101199148Y-67580734D01*
X101349775Y-67659790D01*
X101514944Y-67700500D01*
X101685055Y-67700500D01*
X101685056Y-67700500D01*
X101850225Y-67659790D01*
X102000852Y-67580734D01*
X102128183Y-67467929D01*
X102224818Y-67327930D01*
X102285140Y-67168872D01*
X102305645Y-67000000D01*
X102285140Y-66831128D01*
X102224818Y-66672070D01*
X102128183Y-66532071D01*
X102128182Y-66532069D01*
X102092273Y-66500257D01*
X102061424Y-66458333D01*
X102050500Y-66407442D01*
X102050500Y-61237966D01*
X102059939Y-61190513D01*
X102086819Y-61150285D01*
X102350284Y-60886819D01*
X102390512Y-60859939D01*
X102437965Y-60850500D01*
X109405116Y-60850500D01*
X109449086Y-60858558D01*
X109487342Y-60881684D01*
X109537467Y-60926090D01*
X109599148Y-60980734D01*
X109749775Y-61059790D01*
X109914944Y-61100500D01*
X110085055Y-61100500D01*
X110085056Y-61100500D01*
X110250225Y-61059790D01*
X110400852Y-60980734D01*
X110528183Y-60867929D01*
X110624818Y-60727930D01*
X110685140Y-60568872D01*
X110705645Y-60400000D01*
X110685140Y-60231128D01*
X110624818Y-60072070D01*
X110553245Y-59968379D01*
X110528184Y-59932072D01*
X110409025Y-59826507D01*
X110400852Y-59819266D01*
X110308433Y-59770760D01*
X110250224Y-59740209D01*
X110104855Y-59704380D01*
X110085056Y-59699500D01*
X109914944Y-59699500D01*
X109914943Y-59699500D01*
X109867602Y-59711168D01*
X109808403Y-59711205D01*
X109755933Y-59683792D01*
X109722152Y-59635178D01*
X109714759Y-59576442D01*
X109735438Y-59520973D01*
X109779477Y-59481412D01*
X109786450Y-59477685D01*
X109842416Y-59431755D01*
X111249500Y-59431755D01*
X111269126Y-59492159D01*
X111269127Y-59492160D01*
X111306458Y-59543542D01*
X111357840Y-59580873D01*
X111418244Y-59600500D01*
X111449901Y-59600500D01*
X111450000Y-59600500D01*
X111450500Y-59600500D01*
X114249500Y-59600500D01*
X114250099Y-59600500D01*
X114281755Y-59600500D01*
X114281756Y-59600500D01*
X114342160Y-59580873D01*
X114393542Y-59543542D01*
X114430873Y-59492160D01*
X114450500Y-59431756D01*
X114450500Y-59400000D01*
X114450500Y-59399500D01*
X114450500Y-57399901D01*
X114450500Y-57368244D01*
X114430873Y-57307840D01*
X114393542Y-57256458D01*
X114342160Y-57219127D01*
X114342159Y-57219126D01*
X114301382Y-57205877D01*
X114281756Y-57199500D01*
X114250099Y-57199500D01*
X111450500Y-57199500D01*
X111450000Y-57199500D01*
X111418244Y-57199500D01*
X111403431Y-57204313D01*
X111357840Y-57219126D01*
X111306458Y-57256458D01*
X111269126Y-57307840D01*
X111249500Y-57368245D01*
X111249500Y-59431755D01*
X109842416Y-59431755D01*
X109946410Y-59346410D01*
X110077685Y-59186450D01*
X110175232Y-59003954D01*
X110235300Y-58805934D01*
X110255583Y-58600000D01*
X110235300Y-58394066D01*
X110175232Y-58196046D01*
X110077685Y-58013550D01*
X109946410Y-57853590D01*
X109875835Y-57795671D01*
X109842405Y-57752835D01*
X109830500Y-57699818D01*
X109830500Y-56624760D01*
X109830528Y-56624616D01*
X109830524Y-56624616D01*
X109830539Y-56600002D01*
X109830541Y-56600000D01*
X115544417Y-56600000D01*
X115564699Y-56805932D01*
X115564700Y-56805934D01*
X115624768Y-57003954D01*
X115722315Y-57186450D01*
X115853590Y-57346410D01*
X115919499Y-57400500D01*
X115924164Y-57404328D01*
X115957595Y-57447165D01*
X115969500Y-57500182D01*
X115969500Y-58575240D01*
X115969459Y-58575446D01*
X115969459Y-58600000D01*
X115969500Y-58600099D01*
X115969616Y-58600382D01*
X115969617Y-58600383D01*
X115969618Y-58600384D01*
X115969808Y-58600462D01*
X115970000Y-58600541D01*
X115970002Y-58600539D01*
X115994616Y-58600524D01*
X115994616Y-58600528D01*
X115994760Y-58600500D01*
X117215240Y-58600500D01*
X117215383Y-58600528D01*
X117215384Y-58600524D01*
X117239997Y-58600539D01*
X117240000Y-58600541D01*
X117240383Y-58600383D01*
X117240500Y-58600099D01*
X117240541Y-58600000D01*
X117240541Y-58575446D01*
X117240500Y-58575240D01*
X117240500Y-57491976D01*
X117252405Y-57438959D01*
X117285835Y-57396123D01*
X117319805Y-57368244D01*
X117346410Y-57346410D01*
X117477685Y-57186450D01*
X117575232Y-57003954D01*
X117635300Y-56805934D01*
X117655583Y-56600000D01*
X117635300Y-56394066D01*
X117575232Y-56196046D01*
X117477685Y-56013550D01*
X117412047Y-55933569D01*
X117346410Y-55853589D01*
X117248952Y-55773609D01*
X117186450Y-55722315D01*
X117003954Y-55624768D01*
X116904943Y-55594733D01*
X116805932Y-55564699D01*
X116600000Y-55544417D01*
X116394067Y-55564699D01*
X116196043Y-55624769D01*
X116013551Y-55722314D01*
X115853589Y-55853589D01*
X115722314Y-56013551D01*
X115624769Y-56196043D01*
X115564699Y-56394067D01*
X115544417Y-56600000D01*
X109830541Y-56600000D01*
X109830461Y-56599808D01*
X109830384Y-56599618D01*
X109830380Y-56599614D01*
X109830194Y-56599538D01*
X109830002Y-56599459D01*
X109805446Y-56599459D01*
X109805240Y-56599500D01*
X108584760Y-56599500D01*
X108584554Y-56599459D01*
X108559998Y-56599459D01*
X108559807Y-56599538D01*
X108559619Y-56599615D01*
X108559615Y-56599618D01*
X108559459Y-56599999D01*
X108559476Y-56624616D01*
X108559471Y-56624616D01*
X108559500Y-56624760D01*
X108559500Y-57708024D01*
X108547595Y-57761041D01*
X108514165Y-57803877D01*
X108453590Y-57853589D01*
X108322314Y-58013551D01*
X108224769Y-58196043D01*
X108164699Y-58394067D01*
X108144417Y-58600000D01*
X108164699Y-58805932D01*
X108164700Y-58805934D01*
X108224768Y-59003954D01*
X108322315Y-59186450D01*
X108373609Y-59248952D01*
X108453589Y-59346410D01*
X108518281Y-59399500D01*
X108613550Y-59477685D01*
X108796046Y-59575232D01*
X108994066Y-59635300D01*
X109200000Y-59655583D01*
X109405934Y-59635300D01*
X109472752Y-59615030D01*
X109539150Y-59613476D01*
X109596826Y-59646408D01*
X109629234Y-59704380D01*
X109627077Y-59770760D01*
X109590975Y-59826507D01*
X109487343Y-59918316D01*
X109449087Y-59941442D01*
X109405116Y-59949500D01*
X102232262Y-59949500D01*
X102218378Y-59948720D01*
X102182963Y-59944729D01*
X102126811Y-59955354D01*
X102122241Y-59956131D01*
X102059758Y-59965549D01*
X102054851Y-59967163D01*
X101998985Y-59996690D01*
X101994847Y-59998779D01*
X101937936Y-60026186D01*
X101933712Y-60029183D01*
X101889059Y-60073836D01*
X101885722Y-60077051D01*
X101839392Y-60120039D01*
X101827967Y-60134928D01*
X101304264Y-60658631D01*
X101293898Y-60667895D01*
X101266031Y-60690118D01*
X101233824Y-60737356D01*
X101231144Y-60741132D01*
X101193633Y-60791959D01*
X101191301Y-60796578D01*
X101172674Y-60856966D01*
X101171225Y-60861369D01*
X101150369Y-60920973D01*
X101149500Y-60926090D01*
X101149500Y-60989262D01*
X101149413Y-60993899D01*
X101147050Y-61057029D01*
X101149500Y-61075635D01*
X101149500Y-66407442D01*
X101138576Y-66458333D01*
X101107727Y-66500257D01*
X101071817Y-66532069D01*
X100975182Y-66672069D01*
X100914860Y-66831127D01*
X100894354Y-66999999D01*
X49600500Y-66999999D01*
X49600500Y-62599901D01*
X49600500Y-62568244D01*
X49580873Y-62507840D01*
X49543542Y-62456458D01*
X49492160Y-62419127D01*
X49492159Y-62419126D01*
X49451382Y-62405877D01*
X49431756Y-62399500D01*
X49400099Y-62399500D01*
X40600500Y-62399500D01*
X40600000Y-62399500D01*
X40568244Y-62399500D01*
X40553431Y-62404313D01*
X40507840Y-62419126D01*
X40456458Y-62456458D01*
X40419126Y-62507840D01*
X40399500Y-62568245D01*
X40399500Y-73431755D01*
X37600000Y-73431755D01*
X37600000Y-51000000D01*
X57944417Y-51000000D01*
X57964699Y-51205932D01*
X57964700Y-51205934D01*
X58024768Y-51403954D01*
X58122315Y-51586450D01*
X58166692Y-51640524D01*
X58253589Y-51746410D01*
X58333570Y-51812047D01*
X58413550Y-51877685D01*
X58596046Y-51975232D01*
X58794066Y-52035300D01*
X59000000Y-52055583D01*
X59205934Y-52035300D01*
X59403954Y-51975232D01*
X59586450Y-51877685D01*
X59746410Y-51746410D01*
X59796121Y-51685835D01*
X59838959Y-51652405D01*
X59891976Y-51640500D01*
X60975240Y-51640500D01*
X60975383Y-51640528D01*
X60975384Y-51640524D01*
X60999997Y-51640539D01*
X61000000Y-51640541D01*
X61000383Y-51640383D01*
X61000500Y-51640099D01*
X61000541Y-51640000D01*
X61000541Y-51615446D01*
X61000500Y-51615240D01*
X61000500Y-50999999D01*
X64944417Y-50999999D01*
X64964699Y-51205932D01*
X64964700Y-51205934D01*
X65024768Y-51403954D01*
X65122315Y-51586450D01*
X65166692Y-51640524D01*
X65253589Y-51746410D01*
X65333570Y-51812047D01*
X65413550Y-51877685D01*
X65596046Y-51975232D01*
X65794066Y-52035300D01*
X66000000Y-52055583D01*
X66205934Y-52035300D01*
X66403954Y-51975232D01*
X66586450Y-51877685D01*
X66746410Y-51746410D01*
X66796121Y-51685835D01*
X66838959Y-51652405D01*
X66891976Y-51640500D01*
X67975240Y-51640500D01*
X67975383Y-51640528D01*
X67975384Y-51640524D01*
X67999997Y-51640539D01*
X68000000Y-51640541D01*
X68000383Y-51640383D01*
X68000500Y-51640099D01*
X68000541Y-51640000D01*
X68000541Y-51615446D01*
X68000500Y-51615240D01*
X68000500Y-50999999D01*
X71944417Y-50999999D01*
X71964699Y-51205932D01*
X71964700Y-51205934D01*
X72024768Y-51403954D01*
X72122315Y-51586450D01*
X72166692Y-51640524D01*
X72253589Y-51746410D01*
X72333570Y-51812047D01*
X72413550Y-51877685D01*
X72596046Y-51975232D01*
X72794066Y-52035300D01*
X73000000Y-52055583D01*
X73205934Y-52035300D01*
X73403954Y-51975232D01*
X73586450Y-51877685D01*
X73746410Y-51746410D01*
X73796121Y-51685835D01*
X73838959Y-51652405D01*
X73891976Y-51640500D01*
X74975240Y-51640500D01*
X74975383Y-51640528D01*
X74975384Y-51640524D01*
X74999997Y-51640539D01*
X75000000Y-51640541D01*
X75000383Y-51640383D01*
X75000500Y-51640099D01*
X75000541Y-51640000D01*
X75000541Y-51615446D01*
X75000500Y-51615240D01*
X75000500Y-51000000D01*
X78944417Y-51000000D01*
X78964699Y-51205932D01*
X78964700Y-51205934D01*
X79024768Y-51403954D01*
X79122315Y-51586450D01*
X79166692Y-51640524D01*
X79253589Y-51746410D01*
X79333570Y-51812047D01*
X79413550Y-51877685D01*
X79596046Y-51975232D01*
X79794066Y-52035300D01*
X80000000Y-52055583D01*
X80205934Y-52035300D01*
X80403954Y-51975232D01*
X80586450Y-51877685D01*
X80746410Y-51746410D01*
X80796121Y-51685835D01*
X80838959Y-51652405D01*
X80891976Y-51640500D01*
X81975240Y-51640500D01*
X81975383Y-51640528D01*
X81975384Y-51640524D01*
X81999997Y-51640539D01*
X82000000Y-51640541D01*
X82000383Y-51640383D01*
X82000500Y-51640099D01*
X82000541Y-51640000D01*
X82000541Y-51615446D01*
X82000500Y-51615240D01*
X82000500Y-51000000D01*
X85944417Y-51000000D01*
X85964699Y-51205932D01*
X85964700Y-51205934D01*
X86024768Y-51403954D01*
X86122315Y-51586450D01*
X86166692Y-51640524D01*
X86253589Y-51746410D01*
X86333570Y-51812047D01*
X86413550Y-51877685D01*
X86596046Y-51975232D01*
X86794066Y-52035300D01*
X87000000Y-52055583D01*
X87205934Y-52035300D01*
X87403954Y-51975232D01*
X87586450Y-51877685D01*
X87746410Y-51746410D01*
X87796121Y-51685835D01*
X87838959Y-51652405D01*
X87891976Y-51640500D01*
X88975240Y-51640500D01*
X88975383Y-51640528D01*
X88975384Y-51640524D01*
X88999997Y-51640539D01*
X89000000Y-51640541D01*
X89000383Y-51640383D01*
X89000500Y-51640099D01*
X89000541Y-51640000D01*
X89000541Y-51615446D01*
X89000500Y-51615240D01*
X89000500Y-50394760D01*
X89000528Y-50394616D01*
X89000524Y-50394616D01*
X89000539Y-50370002D01*
X89000541Y-50370000D01*
X89000462Y-50369808D01*
X89000384Y-50369618D01*
X89000380Y-50369614D01*
X89000194Y-50369538D01*
X89000002Y-50369459D01*
X88975446Y-50369459D01*
X88975240Y-50369500D01*
X87900182Y-50369500D01*
X87847165Y-50357595D01*
X87804328Y-50324164D01*
X87746410Y-50253590D01*
X87746409Y-50253589D01*
X87586450Y-50122315D01*
X87403954Y-50024768D01*
X87304944Y-49994734D01*
X87205932Y-49964699D01*
X87000000Y-49944417D01*
X86794067Y-49964699D01*
X86596043Y-50024769D01*
X86413551Y-50122314D01*
X86253589Y-50253589D01*
X86122314Y-50413551D01*
X86024769Y-50596043D01*
X85964699Y-50794067D01*
X85944417Y-51000000D01*
X82000500Y-51000000D01*
X82000500Y-50394760D01*
X82000528Y-50394616D01*
X82000524Y-50394616D01*
X82000539Y-50370002D01*
X82000541Y-50370000D01*
X82000462Y-50369808D01*
X82000384Y-50369618D01*
X82000380Y-50369614D01*
X82000194Y-50369538D01*
X82000002Y-50369459D01*
X81975446Y-50369459D01*
X81975240Y-50369500D01*
X80900182Y-50369500D01*
X80847165Y-50357595D01*
X80804328Y-50324164D01*
X80746410Y-50253590D01*
X80746409Y-50253589D01*
X80586450Y-50122315D01*
X80403954Y-50024768D01*
X80304944Y-49994734D01*
X80205932Y-49964699D01*
X80000000Y-49944417D01*
X79794067Y-49964699D01*
X79596043Y-50024769D01*
X79413551Y-50122314D01*
X79253589Y-50253589D01*
X79122314Y-50413551D01*
X79024769Y-50596043D01*
X78964699Y-50794067D01*
X78944417Y-51000000D01*
X75000500Y-51000000D01*
X75000500Y-50394760D01*
X75000528Y-50394616D01*
X75000524Y-50394616D01*
X75000539Y-50370002D01*
X75000541Y-50370000D01*
X75000462Y-50369808D01*
X75000384Y-50369618D01*
X75000380Y-50369614D01*
X75000194Y-50369538D01*
X75000002Y-50369459D01*
X74975446Y-50369459D01*
X74975240Y-50369500D01*
X73900182Y-50369500D01*
X73847165Y-50357595D01*
X73804328Y-50324164D01*
X73746410Y-50253590D01*
X73746409Y-50253589D01*
X73586450Y-50122315D01*
X73403954Y-50024768D01*
X73304944Y-49994734D01*
X73205932Y-49964699D01*
X73000000Y-49944417D01*
X72794067Y-49964699D01*
X72596043Y-50024769D01*
X72413551Y-50122314D01*
X72253589Y-50253589D01*
X72122314Y-50413551D01*
X72024769Y-50596043D01*
X71964699Y-50794067D01*
X71944417Y-50999999D01*
X68000500Y-50999999D01*
X68000500Y-50394760D01*
X68000528Y-50394616D01*
X68000524Y-50394616D01*
X68000539Y-50370002D01*
X68000541Y-50370000D01*
X68000462Y-50369808D01*
X68000384Y-50369618D01*
X68000380Y-50369614D01*
X68000194Y-50369538D01*
X68000002Y-50369459D01*
X67975446Y-50369459D01*
X67975240Y-50369500D01*
X66900182Y-50369500D01*
X66847165Y-50357595D01*
X66804328Y-50324164D01*
X66746410Y-50253590D01*
X66746409Y-50253589D01*
X66586450Y-50122315D01*
X66403954Y-50024768D01*
X66304944Y-49994734D01*
X66205932Y-49964699D01*
X66000000Y-49944417D01*
X65794067Y-49964699D01*
X65596043Y-50024769D01*
X65413551Y-50122314D01*
X65253589Y-50253589D01*
X65122314Y-50413551D01*
X65024769Y-50596043D01*
X64964699Y-50794067D01*
X64944417Y-50999999D01*
X61000500Y-50999999D01*
X61000500Y-50394760D01*
X61000528Y-50394616D01*
X61000524Y-50394616D01*
X61000539Y-50370002D01*
X61000541Y-50370000D01*
X61000462Y-50369808D01*
X61000384Y-50369618D01*
X61000380Y-50369614D01*
X61000194Y-50369538D01*
X61000002Y-50369459D01*
X60975446Y-50369459D01*
X60975240Y-50369500D01*
X59900182Y-50369500D01*
X59847165Y-50357595D01*
X59804328Y-50324164D01*
X59746410Y-50253590D01*
X59746409Y-50253589D01*
X59586450Y-50122315D01*
X59403954Y-50024768D01*
X59304944Y-49994734D01*
X59205932Y-49964699D01*
X59000000Y-49944417D01*
X58794067Y-49964699D01*
X58596043Y-50024769D01*
X58413551Y-50122314D01*
X58253589Y-50253589D01*
X58122314Y-50413551D01*
X58024769Y-50596043D01*
X57964699Y-50794067D01*
X57944417Y-51000000D01*
X37600000Y-51000000D01*
X37600000Y-30006093D01*
X37600597Y-29993939D01*
X37601290Y-29986895D01*
X37618018Y-29817056D01*
X37622757Y-29793232D01*
X37672577Y-29628994D01*
X37681875Y-29606549D01*
X37762775Y-29455195D01*
X37776272Y-29434995D01*
X37885149Y-29302328D01*
X37902328Y-29285149D01*
X38034995Y-29176272D01*
X38055195Y-29162775D01*
X38206549Y-29081875D01*
X38228994Y-29072577D01*
X38393232Y-29022757D01*
X38417056Y-29018018D01*
X38593938Y-29000597D01*
X38606093Y-29000000D01*
X96383864Y-29000000D01*
X96395909Y-29000586D01*
G37*
%TD.AperFunction*%
%TD*%
M02*
